M48
;Layer_Color=9474304
;FILE_FORMAT=2:5
INCH,LZ
;TYPE=PLATED
T01F00S00C0.00800
T02F00S00C0.01200
T04F00S00C0.03543
T05F00S00C0.03937
%
T01
X0022733Y00453
X0025367
X0028
X0030633
X0033267
X00359
X0038533
X0041167
X00438
X0046433
X0046233Y00485
X00436
X0040967
X0038333
X00357
X0033067
X0030433
X00278
X0025167
X0022533
X00225Y00518
X0025133
X0027767
X00304
X0033033
X0035667
X00383
X0040933
X0043567
X00462
X0047462Y00665
X0044275
X0041087
X00379
X0034712
X0031525
X0028337
X002515
X0021962
X00307Y01012
X00275Y01143
X00277Y01449
X00304Y01528
X00999Y01453
X01051Y01452
X01349Y01444
X0139894Y0144394
X01449Y01441
X01499Y01439
X0154878Y0144264
X01269Y0131
X01217Y01293
X00729Y01116
X0073Y01089
X01816Y01087
X01965Y01116
T02
X00648Y00149
X00832Y00135
X00823Y002
X00824Y00241
X00826Y00286
X00827Y00327
X008419Y0043655
X00826Y00509
X00827Y0055
X00815Y00599
X00721Y00684
X00617Y00437
X01092Y00434
Y00481
Y00529
X0114
Y00481
Y00434
Y00386
X01092
Y00338
Y0029
Y00242
X0114
Y0029
Y00338
X01304Y00339
Y00386
Y00433
Y00479
X0155604Y0043704
X01554Y0068509
X0151811Y0070035
X0148819Y0069291
X0142604Y0069974
X014Y0075
X0139Y0078
X013883Y0080629
X0141339Y0083549
X0144882Y0084252
X0148819
X0151969Y0085039
X0155905
X01405Y00923
X01267Y009062
Y00866
Y008258
Y007856
Y007454
X01207Y00703
X01208Y008
X01115Y00804
Y007515
Y008565
X01267Y009464
X01134Y01154
X00759Y01395
X0036Y01101
X004495Y009495
X0023Y00946
X0097025Y00145
X0103112
X01092
X0127462
X013355
X0139637
X0145725
X01208Y00055
X01573Y00153
X01778Y00142
X01785Y00437
X01867Y00668
X01851Y00706
X01831Y00742
X01813Y00771
X0181567Y00922
X017765
X0173733
X0185483
X01894
X0193317
X0197233
X0208Y00614
Y0057
Y00526
X02261Y00508
Y0047029
Y0043257
Y0039486
Y0035714
Y0031943
Y0054571
Y0058343
X0158268Y007126
X0158661Y007441
Y0078683
Y008189
X0178Y01577
X018275
X01875
X019225
X0197
X020175
X02065
X0196833Y01851
X0191
X0185167
X0179333
X0166Y02189
X02056Y02106
X01368Y0187567
Y0183733
Y01799
Y0176067
Y0172233
Y01684
Y0164567
X01328
X0128967
X0125133
X01213
X0117467
X0113633
X00718Y01573
X0067233
X0062667
X00581
X0053533
X0048967
X00444
X00634Y02038
X00686
X00789
X00872
X0081Y02142
X0076925
X007285
X0068775
X00647
T04
X0220101Y0020932
Y0030776
T05
X00156Y00546
Y00646
Y00746
Y00846
Y00946
Y01046
Y01146
Y01246
Y01346
Y01446
Y01546
Y01646
Y01746
Y01846
M30
