G04*
G04 #@! TF.GenerationSoftware,Altium Limited,Altium Designer,25.0.2 (28)*
G04*
G04 Layer_Color=255*
%FSLAX25Y25*%
%MOIN*%
G70*
G04*
G04 #@! TF.SameCoordinates,2A04F1A2-3F02-4B23-887A-497E0413F5F6*
G04*
G04*
G04 #@! TF.FilePolarity,Positive*
G04*
G01*
G75*
%ADD16R,0.05118X0.02756*%
%ADD17R,0.03858X0.09213*%
%ADD18R,0.03150X0.03150*%
%ADD19R,0.05512X0.04724*%
%ADD20O,0.02370X0.07760*%
%ADD21R,0.05906X0.03543*%
%ADD22R,0.14173X0.09213*%
%ADD23R,0.02362X0.03937*%
%ADD24R,0.04221X0.02095*%
%ADD25R,0.02756X0.04921*%
%ADD26R,0.03543X0.05906*%
%ADD27R,0.03543X0.03543*%
%ADD54R,0.01181X0.04331*%
%ADD55R,0.02165X0.04331*%
%ADD56R,0.03111X0.02126*%
%ADD57R,0.02126X0.02227*%
%ADD58R,0.02126X0.03111*%
%ADD59R,0.05906X0.05256*%
%ADD60R,0.02227X0.02126*%
%ADD63O,0.04331X0.07874*%
%ADD64O,0.04724X0.07087*%
%ADD65C,0.07087*%
%ADD66R,0.05906X0.05906*%
%ADD67C,0.05906*%
D16*
X178576Y152729D02*
D03*
X196293D02*
D03*
X178576Y144264D02*
D03*
X196293D02*
D03*
X54953D02*
D03*
X72669Y152729D02*
D03*
X54953D02*
D03*
X72669Y144264D02*
D03*
D17*
X201955Y59801D02*
D03*
X192900D02*
D03*
X183845D02*
D03*
D18*
X199000Y195148D02*
D03*
X177000Y195700D02*
D03*
X188000D02*
D03*
X199001Y188853D02*
D03*
X188000Y189000D02*
D03*
X177000D02*
D03*
D19*
X145200Y73936D02*
D03*
X153862Y80629D02*
D03*
X145200D02*
D03*
X153862Y73936D02*
D03*
D20*
X146700Y101730D02*
D03*
X141700D02*
D03*
X126700D02*
D03*
X121700D02*
D03*
X116700D02*
D03*
X121700Y123270D02*
D03*
X111700Y101730D02*
D03*
X126700Y123270D02*
D03*
X131700Y101730D02*
D03*
X136700D02*
D03*
X111700Y123270D02*
D03*
X116700D02*
D03*
X131700D02*
D03*
X136700D02*
D03*
X141700D02*
D03*
X146700D02*
D03*
D21*
X92945Y203882D02*
D03*
Y143882D02*
D03*
Y148882D02*
D03*
X161843Y193882D02*
D03*
Y188882D02*
D03*
Y183882D02*
D03*
Y178882D02*
D03*
Y173882D02*
D03*
Y168882D02*
D03*
Y163882D02*
D03*
X92945Y158882D02*
D03*
Y163882D02*
D03*
Y168882D02*
D03*
Y173882D02*
D03*
Y153882D02*
D03*
Y178882D02*
D03*
Y183882D02*
D03*
Y188882D02*
D03*
Y193882D02*
D03*
X161843Y198882D02*
D03*
Y203882D02*
D03*
Y143882D02*
D03*
Y208882D02*
D03*
X92945D02*
D03*
Y198882D02*
D03*
X161843Y158882D02*
D03*
Y153882D02*
D03*
Y148882D02*
D03*
D22*
X192900Y82399D02*
D03*
D23*
X120800Y65400D02*
D03*
X124540Y56738D02*
D03*
X128280D02*
D03*
X120801D02*
D03*
X128281Y65400D02*
D03*
D24*
X76824Y59900D02*
D03*
X67776Y63640D02*
D03*
Y56160D02*
D03*
X76824Y63640D02*
D03*
Y56160D02*
D03*
X67776Y59900D02*
D03*
D25*
X72860Y116663D02*
D03*
X189003D02*
D03*
X65380D02*
D03*
X192743Y124537D02*
D03*
X69120D02*
D03*
X196483Y116663D02*
D03*
D26*
X149894Y138843D02*
D03*
X144894D02*
D03*
X104894D02*
D03*
X154894Y138961D02*
D03*
X139894Y138843D02*
D03*
X134894D02*
D03*
X129894D02*
D03*
X124894D02*
D03*
X119894D02*
D03*
X114894D02*
D03*
X109894D02*
D03*
X99894D02*
D03*
D27*
X127000Y184000D02*
D03*
X121488Y178488D02*
D03*
Y184000D02*
D03*
X127000Y178488D02*
D03*
Y172976D02*
D03*
X121488D02*
D03*
X115976Y184000D02*
D03*
Y178488D02*
D03*
Y172976D02*
D03*
D54*
X163078Y5399D02*
D03*
X174890D02*
D03*
X170952D02*
D03*
X167016D02*
D03*
X168984D02*
D03*
X165048D02*
D03*
X172921D02*
D03*
X161109D02*
D03*
X71201D02*
D03*
X75138D02*
D03*
X73169D02*
D03*
X77106D02*
D03*
X79074D02*
D03*
X67263D02*
D03*
X81043D02*
D03*
X69232D02*
D03*
D55*
X155402D02*
D03*
X180598D02*
D03*
X177448D02*
D03*
X158551D02*
D03*
X83602D02*
D03*
X64704D02*
D03*
X86752D02*
D03*
X61555D02*
D03*
D56*
X213954Y59700D02*
D03*
X213854Y52600D02*
D03*
X147211Y63916D02*
D03*
X151346Y89937D02*
D03*
X120946Y84400D02*
D03*
X120800Y75400D02*
D03*
X147054Y89937D02*
D03*
X218246Y59700D02*
D03*
X218146Y52600D02*
D03*
X151503Y63916D02*
D03*
X116654Y84400D02*
D03*
X116508Y75400D02*
D03*
X124946Y43400D02*
D03*
Y33400D02*
D03*
X120654D02*
D03*
Y43400D02*
D03*
D57*
X199000Y207296D02*
D03*
Y210704D02*
D03*
X81800Y140696D02*
D03*
X161000Y40296D02*
D03*
X172900Y40300D02*
D03*
X79000Y40296D02*
D03*
X67000D02*
D03*
X177000Y207296D02*
D03*
X188000D02*
D03*
X177000Y210704D02*
D03*
X188000D02*
D03*
X172900Y43708D02*
D03*
X161000Y43704D02*
D03*
X79000D02*
D03*
X67000D02*
D03*
X81800Y144104D02*
D03*
D58*
X83000Y204454D02*
D03*
X74000D02*
D03*
X179000Y86946D02*
D03*
X171900Y86846D02*
D03*
X45000Y145854D02*
D03*
X206000Y146854D02*
D03*
Y151146D02*
D03*
X179000Y82654D02*
D03*
X171900Y82554D02*
D03*
X83000Y208746D02*
D03*
X74000D02*
D03*
X45000Y150146D02*
D03*
D59*
X120800Y12902D02*
D03*
Y21898D02*
D03*
D60*
X185696Y108700D02*
D03*
X189104D02*
D03*
X65196Y108900D02*
D03*
X68604D02*
D03*
D63*
X150972Y7564D02*
D03*
X185028D02*
D03*
X91181D02*
D03*
X57126D02*
D03*
D64*
X150972Y24101D02*
D03*
X185028D02*
D03*
X91181D02*
D03*
X57126D02*
D03*
D65*
X15600Y184600D02*
D03*
Y64600D02*
D03*
Y114600D02*
D03*
Y144600D02*
D03*
Y74600D02*
D03*
Y84600D02*
D03*
Y104600D02*
D03*
Y164600D02*
D03*
Y134600D02*
D03*
Y174600D02*
D03*
Y94600D02*
D03*
Y154600D02*
D03*
Y54600D02*
D03*
Y124600D02*
D03*
D66*
X220101Y20932D02*
D03*
D67*
Y30775D02*
D03*
M02*
