G04*
G04 #@! TF.GenerationSoftware,Altium Limited,Altium Designer,25.0.2 (28)*
G04*
G04 Layer_Color=16711935*
%FSLAX25Y25*%
%MOIN*%
G70*
G04*
G04 #@! TF.SameCoordinates,2A04F1A2-3F02-4B23-887A-497E0413F5F6*
G04*
G04*
G04 #@! TF.FilePolarity,Negative*
G04*
G01*
G75*
%ADD33R,0.02526X0.02627*%
%ADD38R,0.02526X0.03511*%
%ADD48O,0.04725X0.08268*%
%ADD49O,0.05118X0.07480*%
%ADD50C,0.07887*%
%ADD51R,0.06706X0.06706*%
%ADD52C,0.06706*%
D33*
X36000Y118296D02*
D03*
Y121704D02*
D03*
Y101296D02*
D03*
Y104704D02*
D03*
D38*
X32300Y60946D02*
D03*
Y56654D02*
D03*
X41300Y60946D02*
D03*
Y56654D02*
D03*
D48*
X150972Y7564D02*
D03*
X185028D02*
D03*
X91181D02*
D03*
X57126D02*
D03*
D49*
X150972Y24101D02*
D03*
X185028D02*
D03*
X91181D02*
D03*
X57126D02*
D03*
D50*
X15600Y184600D02*
D03*
Y64600D02*
D03*
Y114600D02*
D03*
Y144600D02*
D03*
Y74600D02*
D03*
Y84600D02*
D03*
Y104600D02*
D03*
Y164600D02*
D03*
Y134600D02*
D03*
Y174600D02*
D03*
Y94600D02*
D03*
Y154600D02*
D03*
Y54600D02*
D03*
Y124600D02*
D03*
D51*
X220101Y20932D02*
D03*
D52*
Y30775D02*
D03*
M02*
