G04*
G04 #@! TF.GenerationSoftware,Altium Limited,Altium Designer,25.0.2 (28)*
G04*
G04 Layer_Color=2752767*
%FSLAX25Y25*%
%MOIN*%
G70*
G04*
G04 #@! TF.SameCoordinates,2A04F1A2-3F02-4B23-887A-497E0413F5F6*
G04*
G04*
G04 #@! TF.FilePolarity,Positive*
G04*
G01*
G75*
%ADD53C,0.00500*%
%ADD76C,0.00667*%
D53*
X150973Y5564D02*
X148973Y9564D01*
X152973D01*
X150973Y5564D01*
X150972Y22100D02*
X151972Y23100D01*
X152972D01*
X151972Y24101D01*
X152972Y25100D01*
X151972D01*
X150972Y26101D01*
X149972Y25100D01*
X148972D01*
X149972Y24101D01*
X148972Y23100D01*
X149972D01*
X150972Y22100D01*
X185028D02*
X186028Y23100D01*
X187028D01*
X186028Y24101D01*
X187028Y25100D01*
X186028D01*
X185028Y26101D01*
X184028Y25100D01*
X183028D01*
X184028Y24101D01*
X183028Y23100D01*
X184028D01*
X185028Y22100D01*
X13600Y182600D02*
Y186600D01*
X17600D01*
Y182600D01*
X13600D01*
Y62600D02*
Y66600D01*
X17600D01*
Y62600D01*
X13600D01*
Y112600D02*
Y116600D01*
X17600D01*
Y112600D01*
X13600D01*
Y142600D02*
Y146600D01*
X17600D01*
Y142600D01*
X13600D01*
Y72600D02*
Y76600D01*
X17600D01*
Y72600D01*
X13600D01*
Y82600D02*
Y86600D01*
X17600D01*
Y82600D01*
X13600D01*
Y102600D02*
Y106600D01*
X17600D01*
Y102600D01*
X13600D01*
Y162600D02*
Y166600D01*
X17600D01*
Y162600D01*
X13600D01*
Y132600D02*
Y136600D01*
X17600D01*
Y132600D01*
X13600D01*
Y172600D02*
Y176600D01*
X17600D01*
Y172600D01*
X13600D01*
Y92600D02*
Y96600D01*
X17600D01*
Y92600D01*
X13600D01*
Y152600D02*
Y156600D01*
X17600D01*
Y152600D01*
X13600D01*
Y52600D02*
Y56600D01*
X17600D01*
Y52600D01*
X13600D01*
Y122600D02*
Y126600D01*
X17600D01*
Y122600D01*
X13600D01*
X218102Y20932D02*
X220101Y22932D01*
X222101Y20932D01*
X220101Y18932D01*
X218102Y20932D01*
Y30776D02*
X220101Y32776D01*
X222101Y30776D01*
X220101Y28776D01*
X218102Y30776D01*
X91181Y22100D02*
X92181Y23100D01*
X93181D01*
X92181Y24101D01*
X93181Y25100D01*
X92181D01*
X91181Y26101D01*
X90181Y25100D01*
X89181D01*
X90181Y24101D01*
X89181Y23100D01*
X90181D01*
X91181Y22100D01*
X57126D02*
X58126Y23100D01*
X59126D01*
X58126Y24101D01*
X59126Y25100D01*
X58126D01*
X57126Y26101D01*
X56126Y25100D01*
X55126D01*
X56126Y24101D01*
X55126Y23100D01*
X56126D01*
X57126Y22100D01*
X57126Y5564D02*
X55126Y9564D01*
X59126D01*
X57126Y5564D01*
X140604Y67974D02*
X141604Y69974D01*
X140604Y71974D01*
X142604Y70974D01*
X144604Y71974D01*
X143604Y69974D01*
X144604Y67974D01*
X142604Y68974D01*
X140604Y67974D01*
X136829Y78629D02*
X137829Y80629D01*
X136829Y82630D01*
X138830Y81630D01*
X140830Y82630D01*
X139830Y80629D01*
X140830Y78629D01*
X138830Y79629D01*
X136829Y78629D01*
X156268Y69260D02*
X157268Y71260D01*
X156268Y73260D01*
X158268Y72260D01*
X160268Y73260D01*
X159268Y71260D01*
X160268Y69260D01*
X158268Y70260D01*
X156268Y69260D01*
X156661Y72409D02*
X157661Y74410D01*
X156661Y76410D01*
X158661Y75410D01*
X160661Y76410D01*
X159661Y74410D01*
X160661Y72409D01*
X158661Y73409D01*
X156661Y72409D01*
Y76683D02*
X157661Y78683D01*
X156661Y80683D01*
X158661Y79683D01*
X160661Y80683D01*
X159661Y78683D01*
X160661Y76683D01*
X158661Y77683D01*
X156661Y76683D01*
Y79890D02*
X157661Y81890D01*
X156661Y83890D01*
X158661Y82890D01*
X160661Y83890D01*
X159661Y81890D01*
X160661Y79890D01*
X158661Y80890D01*
X156661Y79890D01*
X153905Y83039D02*
X154905Y85039D01*
X153905Y87039D01*
X155905Y86039D01*
X157905Y87039D01*
X156905Y85039D01*
X157905Y83039D01*
X155905Y84039D01*
X153905Y83039D01*
X149969D02*
X150969Y85039D01*
X149969Y87039D01*
X151969Y86039D01*
X153969Y87039D01*
X152969Y85039D01*
X153969Y83039D01*
X151969Y84039D01*
X149969Y83039D01*
X146819Y82252D02*
X147819Y84252D01*
X146819Y86252D01*
X148819Y85252D01*
X150819Y86252D01*
X149819Y84252D01*
X150819Y82252D01*
X148819Y83252D01*
X146819Y82252D01*
X142882D02*
X143882Y84252D01*
X142882Y86252D01*
X144882Y85252D01*
X146882Y86252D01*
X145882Y84252D01*
X146882Y82252D01*
X144882Y83252D01*
X142882Y82252D01*
X139339Y81549D02*
X140339Y83549D01*
X139339Y85549D01*
X141339Y84549D01*
X143339Y85549D01*
X142339Y83549D01*
X143339Y81549D01*
X141339Y82549D01*
X139339Y81549D01*
X137000Y76000D02*
X138000Y78000D01*
X137000Y80000D01*
X139000Y79000D01*
X141000Y80000D01*
X140000Y78000D01*
X141000Y76000D01*
X139000Y77000D01*
X137000Y76000D01*
X138000Y73000D02*
X139000Y75000D01*
X138000Y77000D01*
X140000Y76000D01*
X142000Y77000D01*
X141000Y75000D01*
X142000Y73000D01*
X140000Y74000D01*
X138000Y73000D01*
X146819Y67291D02*
X147819Y69291D01*
X146819Y71291D01*
X148819Y70291D01*
X150819Y71291D01*
X149819Y69291D01*
X150819Y67291D01*
X148819Y68291D01*
X146819Y67291D01*
X149811Y68036D02*
X150811Y70035D01*
X149811Y72035D01*
X151811Y71035D01*
X153811Y72035D01*
X152811Y70035D01*
X153811Y68036D01*
X151811Y69036D01*
X149811Y68036D01*
X21533Y47500D02*
Y46500D01*
X23533D01*
Y47500D01*
X24533D01*
Y49500D01*
X23533D01*
Y50500D01*
X21533D01*
Y49500D01*
X20533D01*
Y47500D01*
X21533D01*
X21733Y44300D02*
Y43300D01*
X23733D01*
Y44300D01*
X24733D01*
Y46300D01*
X23733D01*
Y47300D01*
X21733D01*
Y46300D01*
X20733D01*
Y44300D01*
X21733D01*
X24133Y50800D02*
Y49800D01*
X26133D01*
Y50800D01*
X27133D01*
Y52800D01*
X26133D01*
Y53800D01*
X24133D01*
Y52800D01*
X23133D01*
Y50800D01*
X24133D01*
X24167Y47500D02*
Y46500D01*
X26167D01*
Y47500D01*
X27167D01*
Y49500D01*
X26167D01*
Y50500D01*
X24167D01*
Y49500D01*
X23167D01*
Y47500D01*
X24167D01*
X24367Y44300D02*
Y43300D01*
X26367D01*
Y44300D01*
X27367D01*
Y46300D01*
X26367D01*
Y47300D01*
X24367D01*
Y46300D01*
X23367D01*
Y44300D01*
X24367D01*
X26800Y47500D02*
Y46500D01*
X28800D01*
Y47500D01*
X29800D01*
Y49500D01*
X28800D01*
Y50500D01*
X26800D01*
Y49500D01*
X25800D01*
Y47500D01*
X26800D01*
X27000Y44300D02*
Y43300D01*
X29000D01*
Y44300D01*
X30000D01*
Y46300D01*
X29000D01*
Y47300D01*
X27000D01*
Y46300D01*
X26000D01*
Y44300D01*
X27000D01*
X29433Y47500D02*
Y46500D01*
X31433D01*
Y47500D01*
X32433D01*
Y49500D01*
X31433D01*
Y50500D01*
X29433D01*
Y49500D01*
X28433D01*
Y47500D01*
X29433D01*
X29633Y44300D02*
Y43300D01*
X31633D01*
Y44300D01*
X32633D01*
Y46300D01*
X31633D01*
Y47300D01*
X29633D01*
Y46300D01*
X28633D01*
Y44300D01*
X29633D01*
X32067Y47500D02*
Y46500D01*
X34067D01*
Y47500D01*
X35067D01*
Y49500D01*
X34067D01*
Y50500D01*
X32067D01*
Y49500D01*
X31067D01*
Y47500D01*
X32067D01*
X32267Y44300D02*
Y43300D01*
X34267D01*
Y44300D01*
X35267D01*
Y46300D01*
X34267D01*
Y47300D01*
X32267D01*
Y46300D01*
X31267D01*
Y44300D01*
X32267D01*
X34700Y47500D02*
Y46500D01*
X36700D01*
Y47500D01*
X37700D01*
Y49500D01*
X36700D01*
Y50500D01*
X34700D01*
Y49500D01*
X33700D01*
Y47500D01*
X34700D01*
X34900Y44300D02*
Y43300D01*
X36900D01*
Y44300D01*
X37900D01*
Y46300D01*
X36900D01*
Y47300D01*
X34900D01*
Y46300D01*
X33900D01*
Y44300D01*
X34900D01*
X37300Y50800D02*
Y49800D01*
X39300D01*
Y50800D01*
X40300D01*
Y52800D01*
X39300D01*
Y53800D01*
X37300D01*
Y52800D01*
X36300D01*
Y50800D01*
X37300D01*
X37333Y47500D02*
Y46500D01*
X39333D01*
Y47500D01*
X40333D01*
Y49500D01*
X39333D01*
Y50500D01*
X37333D01*
Y49500D01*
X36333D01*
Y47500D01*
X37333D01*
X37533Y44300D02*
Y43300D01*
X39533D01*
Y44300D01*
X40533D01*
Y46300D01*
X39533D01*
Y47300D01*
X37533D01*
Y46300D01*
X36533D01*
Y44300D01*
X37533D01*
X81200Y11500D02*
X82200Y13500D01*
X81200Y15500D01*
X83200Y14500D01*
X85200Y15500D01*
X84200Y13500D01*
X85200Y11500D01*
X83200Y12500D01*
X81200Y11500D01*
X101112Y12500D02*
X102112Y14500D01*
X101112Y16500D01*
X103112Y15500D01*
X105113Y16500D01*
X104113Y14500D01*
X105113Y12500D01*
X103112Y13500D01*
X101112Y12500D01*
X95025D02*
X96025Y14500D01*
X95025Y16500D01*
X97025Y15500D01*
X99025Y16500D01*
X98025Y14500D01*
X99025Y12500D01*
X97025Y13500D01*
X95025Y12500D01*
X107200D02*
X108200Y14500D01*
X107200Y16500D01*
X109200Y15500D01*
X111200Y16500D01*
X110200Y14500D01*
X111200Y12500D01*
X109200Y13500D01*
X107200Y12500D01*
X62800Y12900D02*
X63800Y14900D01*
X62800Y16900D01*
X64800Y15900D01*
X66800Y16900D01*
X65800Y14900D01*
X66800Y12900D01*
X64800Y13900D01*
X62800Y12900D01*
X80300Y18000D02*
X81300Y20000D01*
X80300Y22000D01*
X82300Y21000D01*
X84300Y22000D01*
X83300Y20000D01*
X84300Y18000D01*
X82300Y19000D01*
X80300Y18000D01*
X80400Y22100D02*
X81400Y24100D01*
X80400Y26100D01*
X82400Y25100D01*
X84400Y26100D01*
X83400Y24100D01*
X84400Y22100D01*
X82400Y23100D01*
X80400Y22100D01*
X107200Y22200D02*
X108200Y24200D01*
X107200Y26200D01*
X109200Y25200D01*
X111200Y26200D01*
X110200Y24200D01*
X111200Y22200D01*
X109200Y23200D01*
X107200Y22200D01*
X80600Y26600D02*
X81600Y28600D01*
X80600Y30600D01*
X82600Y29600D01*
X84600Y30600D01*
X83600Y28600D01*
X84600Y26600D01*
X82600Y27600D01*
X80600Y26600D01*
X107200Y27000D02*
X108200Y29000D01*
X107200Y31000D01*
X109200Y30000D01*
X111200Y31000D01*
X110200Y29000D01*
X111200Y27000D01*
X109200Y28000D01*
X107200Y27000D01*
X80700Y30700D02*
X81700Y32700D01*
X80700Y34700D01*
X82700Y33700D01*
X84700Y34700D01*
X83700Y32700D01*
X84700Y30700D01*
X82700Y31700D01*
X80700Y30700D01*
X107200Y31800D02*
X108200Y33800D01*
X107200Y35800D01*
X109200Y34800D01*
X111200Y35800D01*
X110200Y33800D01*
X111200Y31800D01*
X109200Y32800D01*
X107200Y31800D01*
Y36600D02*
X108200Y38600D01*
X107200Y40600D01*
X109200Y39600D01*
X111200Y40600D01*
X110200Y38600D01*
X111200Y36600D01*
X109200Y37600D01*
X107200Y36600D01*
Y41400D02*
X108200Y43400D01*
X107200Y45400D01*
X109200Y44400D01*
X111200Y45400D01*
X110200Y43400D01*
X111200Y41400D01*
X109200Y42400D01*
X107200Y41400D01*
X82190Y41655D02*
X83190Y43655D01*
X82190Y45655D01*
X84190Y44655D01*
X86190Y45655D01*
X85190Y43655D01*
X86190Y41655D01*
X84190Y42655D01*
X82190Y41655D01*
X59700Y41700D02*
X60700Y43700D01*
X59700Y45700D01*
X61700Y44700D01*
X63700Y45700D01*
X62700Y43700D01*
X63700Y41700D01*
X61700Y42700D01*
X59700Y41700D01*
X40167Y44300D02*
Y43300D01*
X42167D01*
Y44300D01*
X43167D01*
Y46300D01*
X42167D01*
Y47300D01*
X40167D01*
Y46300D01*
X39167D01*
Y44300D01*
X40167D01*
X42800D02*
Y43300D01*
X44800D01*
Y44300D01*
X45800D01*
Y46300D01*
X44800D01*
Y47300D01*
X42800D01*
Y46300D01*
X41800D01*
Y44300D01*
X42800D01*
X45433D02*
Y43300D01*
X47433D01*
Y44300D01*
X48433D01*
Y46300D01*
X47433D01*
Y47300D01*
X45433D01*
Y46300D01*
X44433D01*
Y44300D01*
X45433D01*
X107200Y46100D02*
X108200Y48100D01*
X107200Y50100D01*
X109200Y49100D01*
X111200Y50100D01*
X110200Y48100D01*
X111200Y46100D01*
X109200Y47100D01*
X107200Y46100D01*
X39967Y47500D02*
Y46500D01*
X41967D01*
Y47500D01*
X42967D01*
Y49500D01*
X41967D01*
Y50500D01*
X39967D01*
Y49500D01*
X38967D01*
Y47500D01*
X39967D01*
X42600D02*
Y46500D01*
X44600D01*
Y47500D01*
X45600D01*
Y49500D01*
X44600D01*
Y50500D01*
X42600D01*
Y49500D01*
X41600D01*
Y47500D01*
X42600D01*
X45233D02*
Y46500D01*
X47233D01*
Y47500D01*
X48233D01*
Y49500D01*
X47233D01*
Y50500D01*
X45233D01*
Y49500D01*
X44233D01*
Y47500D01*
X45233D01*
X80600Y48900D02*
X81600Y50900D01*
X80600Y52900D01*
X82600Y51900D01*
X84600Y52900D01*
X83600Y50900D01*
X84600Y48900D01*
X82600Y49900D01*
X80600Y48900D01*
X21500Y50800D02*
Y49800D01*
X23500D01*
Y50800D01*
X24500D01*
Y52800D01*
X23500D01*
Y53800D01*
X21500D01*
Y52800D01*
X20500D01*
Y50800D01*
X21500D01*
X26767D02*
Y49800D01*
X28767D01*
Y50800D01*
X29767D01*
Y52800D01*
X28767D01*
Y53800D01*
X26767D01*
Y52800D01*
X25767D01*
Y50800D01*
X26767D01*
X29400D02*
Y49800D01*
X31400D01*
Y50800D01*
X32400D01*
Y52800D01*
X31400D01*
Y53800D01*
X29400D01*
Y52800D01*
X28400D01*
Y50800D01*
X29400D01*
X32033D02*
Y49800D01*
X34033D01*
Y50800D01*
X35033D01*
Y52800D01*
X34033D01*
Y53800D01*
X32033D01*
Y52800D01*
X31033D01*
Y50800D01*
X32033D01*
X34667D02*
Y49800D01*
X36667D01*
Y50800D01*
X37667D01*
Y52800D01*
X36667D01*
Y53800D01*
X34667D01*
Y52800D01*
X33667D01*
Y50800D01*
X34667D01*
X39933D02*
Y49800D01*
X41933D01*
Y50800D01*
X42933D01*
Y52800D01*
X41933D01*
Y53800D01*
X39933D01*
Y52800D01*
X38933D01*
Y50800D01*
X39933D01*
X40088Y65500D02*
Y64500D01*
X42088D01*
Y65500D01*
X43088D01*
Y67500D01*
X42088D01*
Y68500D01*
X40088D01*
Y67500D01*
X39088D01*
Y65500D01*
X40088D01*
X20963D02*
Y64500D01*
X22963D01*
Y65500D01*
X23963D01*
Y67500D01*
X22963D01*
Y68500D01*
X20963D01*
Y67500D01*
X19963D01*
Y65500D01*
X20963D01*
X24150D02*
Y64500D01*
X26150D01*
Y65500D01*
X27150D01*
Y67500D01*
X26150D01*
Y68500D01*
X24150D01*
Y67500D01*
X23150D01*
Y65500D01*
X24150D01*
X27338D02*
Y64500D01*
X29337D01*
Y65500D01*
X30338D01*
Y67500D01*
X29337D01*
Y68500D01*
X27338D01*
Y67500D01*
X26338D01*
Y65500D01*
X27338D01*
X30525D02*
Y64500D01*
X32525D01*
Y65500D01*
X33525D01*
Y67500D01*
X32525D01*
Y68500D01*
X30525D01*
Y67500D01*
X29525D01*
Y65500D01*
X30525D01*
X33713D02*
Y64500D01*
X35713D01*
Y65500D01*
X36713D01*
Y67500D01*
X35713D01*
Y68500D01*
X33713D01*
Y67500D01*
X32713D01*
Y65500D01*
X33713D01*
X36900D02*
Y64500D01*
X38900D01*
Y65500D01*
X39900D01*
Y67500D01*
X38900D01*
Y68500D01*
X36900D01*
Y67500D01*
X35900D01*
Y65500D01*
X36900D01*
X21000Y92600D02*
X22000Y94600D01*
X21000Y96600D01*
X23000Y95600D01*
X25000Y96600D01*
X24000Y94600D01*
X25000Y92600D01*
X23000Y93600D01*
X21000Y92600D01*
X29700Y100200D02*
Y99200D01*
X31700D01*
Y100200D01*
X32700D01*
Y102200D01*
X31700D01*
Y103200D01*
X29700D01*
Y102200D01*
X28700D01*
Y100200D01*
X29700D01*
X26500Y113300D02*
Y112300D01*
X28500D01*
Y113300D01*
X29500D01*
Y115300D01*
X28500D01*
Y116300D01*
X26500D01*
Y115300D01*
X25500D01*
Y113300D01*
X26500D01*
X26700Y143900D02*
Y142900D01*
X28700D01*
Y143900D01*
X29700D01*
Y145900D01*
X28700D01*
Y146900D01*
X26700D01*
Y145900D01*
X25700D01*
Y143900D01*
X26700D01*
X29400Y151800D02*
Y150800D01*
X31400D01*
Y151800D01*
X32400D01*
Y153800D01*
X31400D01*
Y154800D01*
X29400D01*
Y153800D01*
X28400D01*
Y151800D01*
X29400D01*
X42567Y50800D02*
Y49800D01*
X44567D01*
Y50800D01*
X45567D01*
Y52800D01*
X44567D01*
Y53800D01*
X42567D01*
Y52800D01*
X41567D01*
Y50800D01*
X42567D01*
X45200D02*
Y49800D01*
X47200D01*
Y50800D01*
X48200D01*
Y52800D01*
X47200D01*
Y53800D01*
X45200D01*
Y52800D01*
X44200D01*
Y50800D01*
X45200D01*
X107200Y50900D02*
X108200Y52900D01*
X107200Y54900D01*
X109200Y53900D01*
X111200Y54900D01*
X110200Y52900D01*
X111200Y50900D01*
X109200Y51900D01*
X107200Y50900D01*
X80700Y53000D02*
X81700Y55000D01*
X80700Y57000D01*
X82700Y56000D01*
X84700Y57000D01*
X83700Y55000D01*
X84700Y53000D01*
X82700Y54000D01*
X80700Y53000D01*
X79500Y57900D02*
X80500Y59900D01*
X79500Y61900D01*
X81500Y60900D01*
X83500Y61900D01*
X82500Y59900D01*
X83500Y57900D01*
X81500Y58900D01*
X79500Y57900D01*
X43275Y65500D02*
Y64500D01*
X45275D01*
Y65500D01*
X46275D01*
Y67500D01*
X45275D01*
Y68500D01*
X43275D01*
Y67500D01*
X42275D01*
Y65500D01*
X43275D01*
X46463D02*
Y64500D01*
X48463D01*
Y65500D01*
X49463D01*
Y67500D01*
X48463D01*
Y68500D01*
X46463D01*
Y67500D01*
X45463D01*
Y65500D01*
X46463D01*
X70100Y66400D02*
X71100Y68400D01*
X70100Y70400D01*
X72100Y69400D01*
X74100Y70400D01*
X73100Y68400D01*
X74100Y66400D01*
X72100Y67400D01*
X70100Y66400D01*
X109500Y73150D02*
X110500Y75150D01*
X109500Y77150D01*
X111500Y76150D01*
X113500Y77150D01*
X112500Y75150D01*
X113500Y73150D01*
X111500Y74150D01*
X109500Y73150D01*
X71900Y110600D02*
Y109600D01*
X73900D01*
Y110600D01*
X74900D01*
Y112600D01*
X73900D01*
Y113600D01*
X71900D01*
Y112600D01*
X70900D01*
Y110600D01*
X71900D01*
X42950Y92950D02*
X43950Y94950D01*
X42950Y96950D01*
X44950Y95950D01*
X46950Y96950D01*
X45950Y94950D01*
X46950Y92950D01*
X44950Y93950D01*
X42950Y92950D01*
X72000Y107900D02*
Y106900D01*
X74000D01*
Y107900D01*
X75000D01*
Y109900D01*
X74000D01*
Y110900D01*
X72000D01*
Y109900D01*
X71000D01*
Y107900D01*
X72000D01*
X109500Y83650D02*
X110500Y85650D01*
X109500Y87650D01*
X111500Y86650D01*
X113500Y87650D01*
X112500Y85650D01*
X113500Y83650D01*
X111500Y84650D01*
X109500Y83650D01*
X42400Y155300D02*
X43400Y157300D01*
X42400Y159300D01*
X44400Y158300D01*
X46400Y159300D01*
X45400Y157300D01*
X46400Y155300D01*
X44400Y156300D01*
X42400Y155300D01*
X46967D02*
X47967Y157300D01*
X46967Y159300D01*
X48967Y158300D01*
X50967Y159300D01*
X49967Y157300D01*
X50967Y155300D01*
X48967Y156300D01*
X46967Y155300D01*
X51533D02*
X52533Y157300D01*
X51533Y159300D01*
X53533Y158300D01*
X55533Y159300D01*
X54533Y157300D01*
X55533Y155300D01*
X53533Y156300D01*
X51533Y155300D01*
X56100D02*
X57100Y157300D01*
X56100Y159300D01*
X58100Y158300D01*
X60100Y159300D01*
X59100Y157300D01*
X60100Y155300D01*
X58100Y156300D01*
X56100Y155300D01*
X60667D02*
X61667Y157300D01*
X60667Y159300D01*
X62667Y158300D01*
X64667Y159300D01*
X63667Y157300D01*
X64667Y155300D01*
X62667Y156300D01*
X60667Y155300D01*
X65233D02*
X66233Y157300D01*
X65233Y159300D01*
X67233Y158300D01*
X69233Y159300D01*
X68233Y157300D01*
X69233Y155300D01*
X67233Y156300D01*
X65233Y155300D01*
X69800D02*
X70800Y157300D01*
X69800Y159300D01*
X71800Y158300D01*
X73800Y159300D01*
X72800Y157300D01*
X73800Y155300D01*
X71800Y156300D01*
X69800Y155300D01*
X61400Y201800D02*
X62400Y203800D01*
X61400Y205800D01*
X63400Y204800D01*
X65400Y205800D01*
X64400Y203800D01*
X65400Y201800D01*
X63400Y202800D01*
X61400Y201800D01*
X66600D02*
X67600Y203800D01*
X66600Y205800D01*
X68600Y204800D01*
X70600Y205800D01*
X69600Y203800D01*
X70600Y201800D01*
X68600Y202800D01*
X66600Y201800D01*
X76900D02*
X77900Y203800D01*
X76900Y205800D01*
X78900Y204800D01*
X80900Y205800D01*
X79900Y203800D01*
X80900Y201800D01*
X78900Y202800D01*
X76900Y201800D01*
X85200D02*
X86200Y203800D01*
X85200Y205800D01*
X87200Y204800D01*
X89200Y205800D01*
X88200Y203800D01*
X89200Y201800D01*
X87200Y202800D01*
X85200Y201800D01*
X66775Y212200D02*
X67775Y214200D01*
X66775Y216200D01*
X68775Y215200D01*
X70775Y216200D01*
X69775Y214200D01*
X70775Y212200D01*
X68775Y213200D01*
X66775Y212200D01*
X70850D02*
X71850Y214200D01*
X70850Y216200D01*
X72850Y215200D01*
X74850Y216200D01*
X73850Y214200D01*
X74850Y212200D01*
X72850Y213200D01*
X70850Y212200D01*
X62700D02*
X63700Y214200D01*
X62700Y216200D01*
X64700Y215200D01*
X66700Y216200D01*
X65700Y214200D01*
X66700Y212200D01*
X64700Y213200D01*
X62700Y212200D01*
X74925D02*
X75925Y214200D01*
X74925Y216200D01*
X76925Y215200D01*
X78925Y216200D01*
X77925Y214200D01*
X78925Y212200D01*
X76925Y213200D01*
X74925Y212200D01*
X79000D02*
X80000Y214200D01*
X79000Y216200D01*
X81000Y215200D01*
X83000Y216200D01*
X82000Y214200D01*
X83000Y212200D01*
X81000Y213200D01*
X79000Y212200D01*
X175800Y12200D02*
X176800Y14200D01*
X175800Y16200D01*
X177800Y15200D01*
X179800Y16200D01*
X178800Y14200D01*
X179800Y12200D01*
X177800Y13200D01*
X175800Y12200D01*
X118800Y3500D02*
X119800Y5500D01*
X118800Y7500D01*
X120800Y6500D01*
X122800Y7500D01*
X121800Y5500D01*
X122800Y3500D01*
X120800Y4500D01*
X118800Y3500D01*
X143725Y12500D02*
X144725Y14500D01*
X143725Y16500D01*
X145725Y15500D01*
X147725Y16500D01*
X146725Y14500D01*
X147725Y12500D01*
X145725Y13500D01*
X143725Y12500D01*
X125462D02*
X126462Y14500D01*
X125462Y16500D01*
X127462Y15500D01*
X129463Y16500D01*
X128463Y14500D01*
X129463Y12500D01*
X127462Y13500D01*
X125462Y12500D01*
X131550D02*
X132550Y14500D01*
X131550Y16500D01*
X133550Y15500D01*
X135550Y16500D01*
X134550Y14500D01*
X135550Y12500D01*
X133550Y13500D01*
X131550Y12500D01*
X137637D02*
X138637Y14500D01*
X137637Y16500D01*
X139637Y15500D01*
X141638Y16500D01*
X140638Y14500D01*
X141638Y12500D01*
X139637Y13500D01*
X137637Y12500D01*
X155300Y13300D02*
X156300Y15300D01*
X155300Y17300D01*
X157300Y16300D01*
X159300Y17300D01*
X158300Y15300D01*
X159300Y13300D01*
X157300Y14300D01*
X155300Y13300D01*
X112000Y22200D02*
X113000Y24200D01*
X112000Y26200D01*
X114000Y25200D01*
X116000Y26200D01*
X115000Y24200D01*
X116000Y22200D01*
X114000Y23200D01*
X112000Y22200D01*
Y27000D02*
X113000Y29000D01*
X112000Y31000D01*
X114000Y30000D01*
X116000Y31000D01*
X115000Y29000D01*
X116000Y27000D01*
X114000Y28000D01*
X112000Y27000D01*
Y31800D02*
X113000Y33800D01*
X112000Y35800D01*
X114000Y34800D01*
X116000Y35800D01*
X115000Y33800D01*
X116000Y31800D01*
X114000Y32800D01*
X112000Y31800D01*
Y36600D02*
X113000Y38600D01*
X112000Y40600D01*
X114000Y39600D01*
X116000Y40600D01*
X115000Y38600D01*
X116000Y36600D01*
X114000Y37600D01*
X112000Y36600D01*
Y41400D02*
X113000Y43400D01*
X112000Y45400D01*
X114000Y44400D01*
X116000Y45400D01*
X115000Y43400D01*
X116000Y41400D01*
X114000Y42400D01*
X112000Y41400D01*
Y46100D02*
X113000Y48100D01*
X112000Y50100D01*
X114000Y49100D01*
X116000Y50100D01*
X115000Y48100D01*
X116000Y46100D01*
X114000Y47100D01*
X112000Y46100D01*
Y50900D02*
X113000Y52900D01*
X112000Y54900D01*
X114000Y53900D01*
X116000Y54900D01*
X115000Y52900D01*
X116000Y50900D01*
X114000Y51900D01*
X112000Y50900D01*
X118700Y68300D02*
X119700Y70300D01*
X118700Y72300D01*
X120700Y71300D01*
X122700Y72300D01*
X121700Y70300D01*
X122700Y68300D01*
X120700Y69300D01*
X118700Y68300D01*
X124700Y72540D02*
X125700Y74540D01*
X124700Y76540D01*
X126700Y75540D01*
X128700Y76540D01*
X127700Y74540D01*
X128700Y72540D01*
X126700Y73540D01*
X124700Y72540D01*
X128400Y31900D02*
X129400Y33900D01*
X128400Y35900D01*
X130400Y34900D01*
X132400Y35900D01*
X131400Y33900D01*
X132400Y31900D01*
X130400Y32900D01*
X128400Y31900D01*
Y36600D02*
X129400Y38600D01*
X128400Y40600D01*
X130400Y39600D01*
X132400Y40600D01*
X131400Y38600D01*
X132400Y36600D01*
X130400Y37600D01*
X128400Y36600D01*
Y41300D02*
X129400Y43300D01*
X128400Y45300D01*
X130400Y44300D01*
X132400Y45300D01*
X131400Y43300D01*
X132400Y41300D01*
X130400Y42300D01*
X128400Y41300D01*
Y45900D02*
X129400Y47900D01*
X128400Y49900D01*
X130400Y48900D01*
X132400Y49900D01*
X131400Y47900D01*
X132400Y45900D01*
X130400Y46900D01*
X128400Y45900D01*
X153400Y66509D02*
X154400Y68509D01*
X153400Y70509D01*
X155400Y69509D01*
X157400Y70509D01*
X156400Y68509D01*
X157400Y66509D01*
X155400Y67509D01*
X153400Y66509D01*
X153604Y41704D02*
X154604Y43704D01*
X153604Y45704D01*
X155604Y44704D01*
X157604Y45704D01*
X156604Y43704D01*
X157604Y41704D01*
X155604Y42704D01*
X153604Y41704D01*
X176500Y41700D02*
X177500Y43700D01*
X176500Y45700D01*
X178500Y44700D01*
X180500Y45700D01*
X179500Y43700D01*
X180500Y41700D01*
X178500Y42700D01*
X176500Y41700D01*
X179300Y75100D02*
X180300Y77100D01*
X179300Y79100D01*
X181300Y78100D01*
X183300Y79100D01*
X182300Y77100D01*
X183300Y75100D01*
X181300Y76100D01*
X179300Y75100D01*
X181100Y72200D02*
X182100Y74200D01*
X181100Y76200D01*
X183100Y75200D01*
X185100Y76200D01*
X184100Y74200D01*
X185100Y72200D01*
X183100Y73200D01*
X181100Y72200D01*
X183100Y68600D02*
X184100Y70600D01*
X183100Y72600D01*
X185100Y71600D01*
X187100Y72600D01*
X186100Y70600D01*
X187100Y68600D01*
X185100Y69600D01*
X183100Y68600D01*
X184700Y64800D02*
X185700Y66800D01*
X184700Y68800D01*
X186700Y67800D01*
X188700Y68800D01*
X187700Y66800D01*
X188700Y64800D01*
X186700Y65800D01*
X184700Y64800D01*
X206000Y50600D02*
X207000Y52600D01*
X206000Y54600D01*
X208000Y53600D01*
X210000Y54600D01*
X209000Y52600D01*
X210000Y50600D01*
X208000Y51600D01*
X206000Y50600D01*
Y55000D02*
X207000Y57000D01*
X206000Y59000D01*
X208000Y58000D01*
X210000Y59000D01*
X209000Y57000D01*
X210000Y55000D01*
X208000Y56000D01*
X206000Y55000D01*
Y59400D02*
X207000Y61400D01*
X206000Y63400D01*
X208000Y62400D01*
X210000Y63400D01*
X209000Y61400D01*
X210000Y59400D01*
X208000Y60400D01*
X206000Y59400D01*
X224100Y56343D02*
X225100Y58343D01*
X224100Y60343D01*
X226100Y59343D01*
X228100Y60343D01*
X227100Y58343D01*
X228100Y56343D01*
X226100Y57343D01*
X224100Y56343D01*
Y29943D02*
X225100Y31943D01*
X224100Y33943D01*
X226100Y32943D01*
X228100Y33943D01*
X227100Y31943D01*
X228100Y29943D01*
X226100Y30943D01*
X224100Y29943D01*
Y33714D02*
X225100Y35714D01*
X224100Y37714D01*
X226100Y36714D01*
X228100Y37714D01*
X227100Y35714D01*
X228100Y33714D01*
X226100Y34714D01*
X224100Y33714D01*
Y37486D02*
X225100Y39486D01*
X224100Y41486D01*
X226100Y40486D01*
X228100Y41486D01*
X227100Y39486D01*
X228100Y37486D01*
X226100Y38486D01*
X224100Y37486D01*
Y41257D02*
X225100Y43257D01*
X224100Y45257D01*
X226100Y44257D01*
X228100Y45257D01*
X227100Y43257D01*
X228100Y41257D01*
X226100Y42257D01*
X224100Y41257D01*
Y45029D02*
X225100Y47029D01*
X224100Y49029D01*
X226100Y48029D01*
X228100Y49029D01*
X227100Y47029D01*
X228100Y45029D01*
X226100Y46029D01*
X224100Y45029D01*
Y48800D02*
X225100Y50800D01*
X224100Y52800D01*
X226100Y51800D01*
X228100Y52800D01*
X227100Y50800D01*
X228100Y48800D01*
X226100Y49800D01*
X224100Y48800D01*
Y52571D02*
X225100Y54571D01*
X224100Y56571D01*
X226100Y55571D01*
X228100Y56571D01*
X227100Y54571D01*
X228100Y52571D01*
X226100Y53571D01*
X224100Y52571D01*
X98900Y144300D02*
Y143300D01*
X100900D01*
Y144300D01*
X101900D01*
Y146300D01*
X100900D01*
Y147300D01*
X98900D01*
Y146300D01*
X97900D01*
Y144300D01*
X98900D01*
X111400Y113400D02*
X112400Y115400D01*
X111400Y117400D01*
X113400Y116400D01*
X115400Y117400D01*
X114400Y115400D01*
X115400Y113400D01*
X113400Y114400D01*
X111400Y113400D01*
X143900Y143100D02*
Y142100D01*
X145900D01*
Y143100D01*
X146900D01*
Y145100D01*
X145900D01*
Y146100D01*
X143900D01*
Y145100D01*
X142900D01*
Y143100D01*
X143900D01*
X153878Y143264D02*
Y142264D01*
X155878D01*
Y143264D01*
X156878D01*
Y145264D01*
X155878D01*
Y146264D01*
X153878D01*
Y145264D01*
X152878D01*
Y143264D01*
X153878D01*
X104100Y144200D02*
Y143200D01*
X106100D01*
Y144200D01*
X107100D01*
Y146200D01*
X106100D01*
Y147200D01*
X104100D01*
Y146200D01*
X103100D01*
Y144200D01*
X104100D01*
X138894Y143394D02*
Y142394D01*
X140894D01*
Y143394D01*
X141894D01*
Y145394D01*
X140894D01*
Y146394D01*
X138894D01*
Y145394D01*
X137894D01*
Y143394D01*
X138894D01*
X133900Y143400D02*
Y142400D01*
X135900D01*
Y143400D01*
X136900D01*
Y145400D01*
X135900D01*
Y146400D01*
X133900D01*
Y145400D01*
X132900D01*
Y143400D01*
X133900D01*
X119300Y162567D02*
X120300Y164567D01*
X119300Y166567D01*
X121300Y165567D01*
X123300Y166567D01*
X122300Y164567D01*
X123300Y162567D01*
X121300Y163567D01*
X119300Y162567D01*
X115467D02*
X116467Y164567D01*
X115467Y166567D01*
X117467Y165567D01*
X119467Y166567D01*
X118467Y164567D01*
X119467Y162567D01*
X117467Y163567D01*
X115467Y162567D01*
X123133D02*
X124133Y164567D01*
X123133Y166567D01*
X125133Y165567D01*
X127133Y166567D01*
X126133Y164567D01*
X127133Y162567D01*
X125133Y163567D01*
X123133Y162567D01*
X111633D02*
X112633Y164567D01*
X111633Y166567D01*
X113633Y165567D01*
X115633Y166567D01*
X114633Y164567D01*
X115633Y162567D01*
X113633Y163567D01*
X111633Y162567D01*
X126967D02*
X127967Y164567D01*
X126967Y166567D01*
X128967Y165567D01*
X130967Y166567D01*
X129967Y164567D01*
X130967Y162567D01*
X128967Y163567D01*
X126967Y162567D01*
X130800D02*
X131800Y164567D01*
X130800Y166567D01*
X132800Y165567D01*
X134800Y166567D01*
X133800Y164567D01*
X134800Y162567D01*
X132800Y163567D01*
X130800Y162567D01*
X134800D02*
X135800Y164567D01*
X134800Y166567D01*
X136800Y165567D01*
X138800Y166567D01*
X137800Y164567D01*
X138800Y162567D01*
X136800Y163567D01*
X134800Y162567D01*
Y166400D02*
X135800Y168400D01*
X134800Y170400D01*
X136800Y169400D01*
X138800Y170400D01*
X137800Y168400D01*
X138800Y166400D01*
X136800Y167400D01*
X134800Y166400D01*
Y170233D02*
X135800Y172233D01*
X134800Y174233D01*
X136800Y173233D01*
X138800Y174233D01*
X137800Y172233D01*
X138800Y170233D01*
X136800Y171233D01*
X134800Y170233D01*
Y174067D02*
X135800Y176067D01*
X134800Y178067D01*
X136800Y177067D01*
X138800Y178067D01*
X137800Y176067D01*
X138800Y174067D01*
X136800Y175067D01*
X134800Y174067D01*
Y177900D02*
X135800Y179900D01*
X134800Y181900D01*
X136800Y180900D01*
X138800Y181900D01*
X137800Y179900D01*
X138800Y177900D01*
X136800Y178900D01*
X134800Y177900D01*
Y181733D02*
X135800Y183733D01*
X134800Y185733D01*
X136800Y184733D01*
X138800Y185733D01*
X137800Y183733D01*
X138800Y181733D01*
X136800Y182733D01*
X134800Y181733D01*
Y185567D02*
X135800Y187567D01*
X134800Y189567D01*
X136800Y188567D01*
X138800Y189567D01*
X137800Y187567D01*
X138800Y185567D01*
X136800Y186567D01*
X134800Y185567D01*
X164000Y216900D02*
X165000Y218900D01*
X164000Y220900D01*
X166000Y219900D01*
X168000Y220900D01*
X167000Y218900D01*
X168000Y216900D01*
X166000Y217900D01*
X164000Y216900D01*
X171733Y90200D02*
X172733Y92200D01*
X171733Y94200D01*
X173733Y93200D01*
X175733Y94200D01*
X174733Y92200D01*
X175733Y90200D01*
X173733Y91200D01*
X171733Y90200D01*
X175650D02*
X176650Y92200D01*
X175650Y94200D01*
X177650Y93200D01*
X179650Y94200D01*
X178650Y92200D01*
X179650Y90200D01*
X177650Y91200D01*
X175650Y90200D01*
X179567D02*
X180567Y92200D01*
X179567Y94200D01*
X181567Y93200D01*
X183567Y94200D01*
X182567Y92200D01*
X183567Y90200D01*
X181567Y91200D01*
X179567Y90200D01*
X183483D02*
X184483Y92200D01*
X183483Y94200D01*
X185483Y93200D01*
X187483Y94200D01*
X186483Y92200D01*
X187483Y90200D01*
X185483Y91200D01*
X183483Y90200D01*
X187400D02*
X188400Y92200D01*
X187400Y94200D01*
X189400Y93200D01*
X191400Y94200D01*
X190400Y92200D01*
X191400Y90200D01*
X189400Y91200D01*
X187400Y90200D01*
X191317D02*
X192317Y92200D01*
X191317Y94200D01*
X193317Y93200D01*
X195317Y94200D01*
X194317Y92200D01*
X195317Y90200D01*
X193317Y91200D01*
X191317Y90200D01*
X195233D02*
X196233Y92200D01*
X195233Y94200D01*
X197233Y93200D01*
X199233Y94200D01*
X198233Y92200D01*
X199233Y90200D01*
X197233Y91200D01*
X195233Y90200D01*
X180600Y107700D02*
Y106700D01*
X182600D01*
Y107700D01*
X183600D01*
Y109700D01*
X182600D01*
Y110700D01*
X180600D01*
Y109700D01*
X179600D01*
Y107700D01*
X180600D01*
X195500Y110600D02*
Y109600D01*
X197500D01*
Y110600D01*
X198500D01*
Y112600D01*
X197500D01*
Y113600D01*
X195500D01*
Y112600D01*
X194500D01*
Y110600D01*
X195500D01*
X176000Y155700D02*
X177000Y157700D01*
X176000Y159700D01*
X178000Y158700D01*
X180000Y159700D01*
X179000Y157700D01*
X180000Y155700D01*
X178000Y156700D01*
X176000Y155700D01*
X180750D02*
X181750Y157700D01*
X180750Y159700D01*
X182750Y158700D01*
X184750Y159700D01*
X183750Y157700D01*
X184750Y155700D01*
X182750Y156700D01*
X180750Y155700D01*
X185500D02*
X186500Y157700D01*
X185500Y159700D01*
X187500Y158700D01*
X189500Y159700D01*
X188500Y157700D01*
X189500Y155700D01*
X187500Y156700D01*
X185500Y155700D01*
X190250D02*
X191250Y157700D01*
X190250Y159700D01*
X192250Y158700D01*
X194250Y159700D01*
X193250Y157700D01*
X194250Y155700D01*
X192250Y156700D01*
X190250Y155700D01*
X195000D02*
X196000Y157700D01*
X195000Y159700D01*
X197000Y158700D01*
X199000Y159700D01*
X198000Y157700D01*
X199000Y155700D01*
X197000Y156700D01*
X195000Y155700D01*
X199750D02*
X200750Y157700D01*
X199750Y159700D01*
X201750Y158700D01*
X203750Y159700D01*
X202750Y157700D01*
X203750Y155700D01*
X201750Y156700D01*
X199750Y155700D01*
X204500D02*
X205500Y157700D01*
X204500Y159700D01*
X206500Y158700D01*
X208500Y159700D01*
X207500Y157700D01*
X208500Y155700D01*
X206500Y156700D01*
X204500Y155700D01*
X177333Y183100D02*
X178333Y185100D01*
X177333Y187100D01*
X179333Y186100D01*
X181333Y187100D01*
X180333Y185100D01*
X181333Y183100D01*
X179333Y184100D01*
X177333Y183100D01*
X183167D02*
X184167Y185100D01*
X183167Y187100D01*
X185167Y186100D01*
X187167Y187100D01*
X186167Y185100D01*
X187167Y183100D01*
X185167Y184100D01*
X183167Y183100D01*
X189000D02*
X190000Y185100D01*
X189000Y187100D01*
X191000Y186100D01*
X193000Y187100D01*
X192000Y185100D01*
X193000Y183100D01*
X191000Y184100D01*
X189000Y183100D01*
X194833D02*
X195833Y185100D01*
X194833Y187100D01*
X196833Y186100D01*
X198833Y187100D01*
X197833Y185100D01*
X198833Y183100D01*
X196833Y184100D01*
X194833Y183100D01*
X203600Y208600D02*
X204600Y210600D01*
X203600Y212600D01*
X205600Y211600D01*
X207600Y212600D01*
X206600Y210600D01*
X207600Y208600D01*
X205600Y209600D01*
X203600Y208600D01*
X73900Y137500D02*
X74900Y139500D01*
X73900Y141500D01*
X75900Y140500D01*
X77900Y141500D01*
X76900Y139500D01*
X77900Y137500D01*
X75900Y138500D01*
X73900Y137500D01*
X34000Y108100D02*
X35000Y110100D01*
X34000Y112100D01*
X36000Y111100D01*
X38000Y112100D01*
X37000Y110100D01*
X38000Y108100D01*
X36000Y109100D01*
X34000Y108100D01*
X124700Y76560D02*
X125700Y78560D01*
X124700Y80560D01*
X126700Y79560D01*
X128700Y80560D01*
X127700Y78560D01*
X128700Y76560D01*
X126700Y77560D01*
X124700Y76560D01*
X118800Y78000D02*
X119800Y80000D01*
X118800Y82000D01*
X120800Y81000D01*
X122800Y82000D01*
X121800Y80000D01*
X122800Y78000D01*
X120800Y79000D01*
X118800Y78000D01*
X109500Y78400D02*
X110500Y80400D01*
X109500Y82400D01*
X111500Y81400D01*
X113500Y82400D01*
X112500Y80400D01*
X113500Y78400D01*
X111500Y79400D01*
X109500Y78400D01*
X124700Y80580D02*
X125700Y82580D01*
X124700Y84580D01*
X126700Y83580D01*
X128700Y84580D01*
X127700Y82580D01*
X128700Y80580D01*
X126700Y81580D01*
X124700Y80580D01*
Y84600D02*
X125700Y86600D01*
X124700Y88600D01*
X126700Y87600D01*
X128700Y88600D01*
X127700Y86600D01*
X128700Y84600D01*
X126700Y85600D01*
X124700Y84600D01*
Y88620D02*
X125700Y90620D01*
X124700Y92620D01*
X126700Y91620D01*
X128700Y92620D01*
X127700Y90620D01*
X128700Y88620D01*
X126700Y89620D01*
X124700Y88620D01*
X138500Y90300D02*
X139500Y92300D01*
X138500Y94300D01*
X140500Y93300D01*
X142500Y94300D01*
X141500Y92300D01*
X142500Y90300D01*
X140500Y91300D01*
X138500Y90300D01*
X124700Y92640D02*
X125700Y94640D01*
X124700Y96640D01*
X126700Y95640D01*
X128700Y96640D01*
X127700Y94640D01*
X128700Y92640D01*
X126700Y93640D01*
X124700Y92640D01*
X120700Y128300D02*
Y127300D01*
X122700D01*
Y128300D01*
X123700D01*
Y130300D01*
X122700D01*
Y131300D01*
X120700D01*
Y130300D01*
X119700D01*
Y128300D01*
X120700D01*
X125900Y130000D02*
Y129000D01*
X127900D01*
Y130000D01*
X128900D01*
Y132000D01*
X127900D01*
Y133000D01*
X125900D01*
Y132000D01*
X124900D01*
Y130000D01*
X125900D01*
X148900Y142900D02*
Y141900D01*
X150900D01*
Y142900D01*
X151900D01*
Y144900D01*
X150900D01*
Y145900D01*
X148900D01*
Y144900D01*
X147900D01*
Y142900D01*
X148900D01*
D76*
X187028Y7564D02*
G03*
X187028Y7564I-2000J0D01*
G01*
X93181D02*
G03*
X93181Y7564I-2000J0D01*
G01*
M02*
