G04*
G04 #@! TF.GenerationSoftware,Altium Limited,Altium Designer,25.0.2 (28)*
G04*
G04 Layer_Color=255*
%FSLAX25Y25*%
%MOIN*%
G70*
G04*
G04 #@! TF.SameCoordinates,2A04F1A2-3F02-4B23-887A-497E0413F5F6*
G04*
G04*
G04 #@! TF.FilePolarity,Positive*
G04*
G01*
G75*
%ADD57R,0.02126X0.02227*%
%ADD58R,0.02126X0.03111*%
%ADD63O,0.04331X0.07874*%
%ADD64O,0.04724X0.07087*%
%ADD65C,0.07087*%
%ADD66R,0.05906X0.05906*%
%ADD67C,0.05906*%
D57*
X36000Y118296D02*
D03*
Y121704D02*
D03*
Y101296D02*
D03*
Y104704D02*
D03*
D58*
X32300Y60946D02*
D03*
Y56654D02*
D03*
X41300Y60946D02*
D03*
Y56654D02*
D03*
D63*
X150972Y7564D02*
D03*
X185028D02*
D03*
X91181D02*
D03*
X57126D02*
D03*
D64*
X150972Y24101D02*
D03*
X185028D02*
D03*
X91181D02*
D03*
X57126D02*
D03*
D65*
X15600Y184600D02*
D03*
Y64600D02*
D03*
Y114600D02*
D03*
Y144600D02*
D03*
Y74600D02*
D03*
Y84600D02*
D03*
Y104600D02*
D03*
Y164600D02*
D03*
Y134600D02*
D03*
Y174600D02*
D03*
Y94600D02*
D03*
Y154600D02*
D03*
Y54600D02*
D03*
Y124600D02*
D03*
D66*
X220101Y20932D02*
D03*
D67*
Y30775D02*
D03*
M02*
