G04*
G04 #@! TF.GenerationSoftware,Altium Limited,Altium Designer,25.0.2 (28)*
G04*
G04 Layer_Color=32896*
%FSLAX25Y25*%
%MOIN*%
G70*
G04*
G04 #@! TF.SameCoordinates,2A04F1A2-3F02-4B23-887A-497E0413F5F6*
G04*
G04*
G04 #@! TF.FilePolarity,Positive*
G04*
G01*
G75*
%ADD10C,0.01000*%
%ADD11C,0.00600*%
G36*
X434769Y3525D02*
X434798Y3547D01*
X434813Y3558D01*
X434825Y3568D01*
X434837Y3578D01*
X434845Y3585D01*
X434850Y3590D01*
X434852Y3591D01*
X434860Y3600D01*
X434871Y3611D01*
X434883Y3623D01*
X434895Y3636D01*
X434921Y3666D01*
X434948Y3698D01*
X434973Y3726D01*
X434984Y3739D01*
X434994Y3749D01*
X435001Y3759D01*
X435008Y3766D01*
X435011Y3771D01*
X435013Y3772D01*
X435039Y3802D01*
X435064Y3832D01*
X435086Y3857D01*
X435107Y3882D01*
X435127Y3903D01*
X435147Y3923D01*
X435164Y3942D01*
X435179Y3957D01*
X435192Y3972D01*
X435204Y3983D01*
X435214Y3993D01*
X435222Y4002D01*
X435228Y4007D01*
X435233Y4011D01*
X435235Y4015D01*
X435237D01*
X435267Y4040D01*
X435296Y4061D01*
X435323Y4079D01*
X435346Y4094D01*
X435364Y4106D01*
X435380Y4113D01*
X435389Y4118D01*
X435393Y4119D01*
X435421Y4129D01*
X435448Y4138D01*
X435474Y4143D01*
X435496Y4148D01*
X435516Y4149D01*
X435531Y4151D01*
X435540D01*
X435544D01*
X435572Y4149D01*
X435599Y4146D01*
X435624Y4141D01*
X435647Y4134D01*
X435690Y4116D01*
X435710Y4108D01*
X435726Y4098D01*
X435743Y4086D01*
X435756Y4078D01*
X435768Y4068D01*
X435778Y4060D01*
X435786Y4053D01*
X435791Y4048D01*
X435794Y4045D01*
X435796Y4043D01*
X435814Y4021D01*
X435829Y4000D01*
X435844Y3977D01*
X435856Y3952D01*
X435866Y3927D01*
X435874Y3903D01*
X435886Y3857D01*
X435891Y3836D01*
X435894Y3816D01*
X435896Y3797D01*
X435897Y3781D01*
X435899Y3769D01*
Y3751D01*
X435897Y3718D01*
X435896Y3686D01*
X435891Y3656D01*
X435884Y3630D01*
X435878Y3603D01*
X435869Y3580D01*
X435861Y3558D01*
X435853Y3538D01*
X435843Y3520D01*
X435834Y3505D01*
X435826Y3492D01*
X435819Y3480D01*
X435813Y3472D01*
X435808Y3465D01*
X435806Y3462D01*
X435804Y3460D01*
X435786Y3440D01*
X435766Y3424D01*
X435745Y3409D01*
X435721Y3396D01*
X435700Y3384D01*
X435677Y3374D01*
X435632Y3359D01*
X435612Y3352D01*
X435592Y3347D01*
X435575Y3344D01*
X435560Y3341D01*
X435547Y3339D01*
X435539D01*
X435532Y3337D01*
X435531D01*
X435514Y3498D01*
X435557Y3502D01*
X435594Y3509D01*
X435625Y3520D01*
X435653Y3533D01*
X435673Y3545D01*
X435690Y3557D01*
X435698Y3563D01*
X435702Y3567D01*
X435725Y3593D01*
X435741Y3623D01*
X435753Y3655D01*
X435761Y3683D01*
X435766Y3708D01*
X435768Y3719D01*
Y3729D01*
X435770Y3736D01*
Y3748D01*
X435766Y3786D01*
X435760Y3821D01*
X435750Y3850D01*
X435738Y3875D01*
X435725Y3895D01*
X435715Y3910D01*
X435708Y3918D01*
X435705Y3922D01*
X435680Y3945D01*
X435653Y3962D01*
X435629Y3973D01*
X435604Y3982D01*
X435582Y3986D01*
X435564Y3988D01*
X435557Y3990D01*
X435554D01*
X435550D01*
X435549D01*
X435532D01*
X435516Y3986D01*
X435481Y3978D01*
X435449Y3967D01*
X435421Y3953D01*
X435396Y3938D01*
X435386Y3932D01*
X435376Y3927D01*
X435369Y3922D01*
X435364Y3918D01*
X435361Y3917D01*
X435360Y3915D01*
X435340Y3900D01*
X435320Y3882D01*
X435298Y3862D01*
X435275Y3841D01*
X435230Y3794D01*
X435187Y3748D01*
X435167Y3726D01*
X435149Y3704D01*
X435132Y3684D01*
X435117Y3668D01*
X435106Y3655D01*
X435097Y3643D01*
X435091Y3636D01*
X435089Y3635D01*
X435049Y3587D01*
X435013Y3545D01*
X434979Y3510D01*
X434951Y3482D01*
X434928Y3459D01*
X434910Y3442D01*
X434903Y3437D01*
X434898Y3432D01*
X434896Y3430D01*
X434895Y3429D01*
X434863Y3404D01*
X434833Y3382D01*
X434805Y3366D01*
X434779Y3351D01*
X434757Y3339D01*
X434740Y3333D01*
X434734Y3329D01*
X434729Y3328D01*
X434727Y3326D01*
X434725D01*
X434705Y3319D01*
X434687Y3314D01*
X434669Y3311D01*
X434652Y3309D01*
X434637Y3308D01*
X434627D01*
X434621D01*
X434618D01*
Y4153D01*
X434769D01*
Y3525D01*
D02*
G37*
G36*
X435894Y2942D02*
X435157D01*
X435114Y2941D01*
X435074Y2939D01*
X435038Y2936D01*
X435004Y2931D01*
X434974Y2924D01*
X434948Y2918D01*
X434925Y2911D01*
X434905Y2903D01*
X434887Y2896D01*
X434871Y2888D01*
X434858Y2881D01*
X434848Y2876D01*
X434842Y2869D01*
X434837Y2866D01*
X434833Y2864D01*
X434832Y2863D01*
X434817Y2846D01*
X434805Y2828D01*
X434794Y2808D01*
X434784Y2788D01*
X434769Y2743D01*
X434759Y2700D01*
X434755Y2680D01*
X434754Y2660D01*
X434752Y2642D01*
X434750Y2627D01*
X434749Y2615D01*
Y2597D01*
X434750Y2557D01*
X434755Y2522D01*
X434762Y2491D01*
X434770Y2464D01*
X434777Y2443D01*
X434784Y2426D01*
X434789Y2416D01*
X434790Y2414D01*
Y2413D01*
X434808Y2386D01*
X434827Y2365D01*
X434848Y2347D01*
X434867Y2331D01*
X434885Y2320D01*
X434898Y2313D01*
X434908Y2308D01*
X434910Y2307D01*
X434911D01*
X434928Y2302D01*
X434945Y2297D01*
X434983Y2290D01*
X435024Y2283D01*
X435064Y2280D01*
X435082D01*
X435101Y2278D01*
X435115D01*
X435131Y2277D01*
X435140D01*
X435150D01*
X435155D01*
X435157D01*
X435894D01*
Y2107D01*
X435155D01*
X435119D01*
X435084Y2109D01*
X435051Y2112D01*
X435019Y2116D01*
X434991Y2119D01*
X434965Y2122D01*
X434941Y2127D01*
X434920Y2132D01*
X434900Y2136D01*
X434883Y2141D01*
X434868Y2144D01*
X434857Y2149D01*
X434847Y2151D01*
X434840Y2154D01*
X434837Y2156D01*
X434835D01*
X434794Y2177D01*
X434759Y2202D01*
X434727Y2229D01*
X434702Y2255D01*
X434682Y2280D01*
X434669Y2300D01*
X434664Y2307D01*
X434661Y2313D01*
X434657Y2317D01*
Y2318D01*
X434637Y2363D01*
X434622Y2413D01*
X434611Y2461D01*
X434604Y2507D01*
X434601Y2529D01*
X434599Y2549D01*
X434598Y2567D01*
Y2582D01*
X434596Y2596D01*
Y2612D01*
X434598Y2645D01*
X434599Y2678D01*
X434603Y2708D01*
X434608Y2737D01*
X434613Y2763D01*
X434618Y2786D01*
X434624Y2810D01*
X434631Y2829D01*
X434637Y2848D01*
X434644Y2864D01*
X434649Y2878D01*
X434654Y2889D01*
X434659Y2898D01*
X434662Y2904D01*
X434666Y2908D01*
Y2909D01*
X434679Y2929D01*
X434694Y2949D01*
X434725Y2982D01*
X434755Y3009D01*
X434785Y3030D01*
X434810Y3047D01*
X434822Y3054D01*
X434832Y3059D01*
X434838Y3062D01*
X434845Y3065D01*
X434848Y3067D01*
X434850D01*
X434871Y3075D01*
X434895Y3082D01*
X434945Y3094D01*
X434996Y3100D01*
X435046Y3107D01*
X435067Y3108D01*
X435089Y3110D01*
X435107D01*
X435124Y3112D01*
X435137D01*
X435147D01*
X435154D01*
X435155D01*
X435894D01*
Y2942D01*
D02*
G37*
G36*
X36436Y113650D02*
X36462Y113648D01*
X36512Y113638D01*
X36555Y113623D01*
X36573Y113615D01*
X36592Y113608D01*
X36607Y113600D01*
X36621Y113592D01*
X36633Y113584D01*
X36643Y113577D01*
X36651Y113572D01*
X36656Y113567D01*
X36660Y113565D01*
X36661Y113564D01*
X36680Y113547D01*
X36696Y113529D01*
X36724Y113489D01*
X36746Y113449D01*
X36764Y113411D01*
X36771Y113393D01*
X36776Y113376D01*
X36781Y113359D01*
X36784Y113348D01*
X36788Y113336D01*
X36789Y113328D01*
X36791Y113323D01*
Y113321D01*
X36635Y113293D01*
X36626Y113333D01*
X36617Y113368D01*
X36603Y113398D01*
X36590Y113421D01*
X36578Y113441D01*
X36568Y113454D01*
X36562Y113461D01*
X36558Y113464D01*
X36533Y113484D01*
X36509Y113497D01*
X36482Y113507D01*
X36459Y113515D01*
X36437Y113519D01*
X36419Y113520D01*
X36412Y113522D01*
X36404D01*
X36371Y113520D01*
X36343Y113514D01*
X36316Y113504D01*
X36294Y113494D01*
X36278Y113482D01*
X36265Y113474D01*
X36258Y113467D01*
X36255Y113464D01*
X36235Y113442D01*
X36220Y113417D01*
X36210Y113394D01*
X36202Y113373D01*
X36198Y113353D01*
X36197Y113338D01*
X36195Y113326D01*
Y113324D01*
Y113323D01*
X36197Y113303D01*
X36198Y113285D01*
X36208Y113251D01*
X36220Y113223D01*
X36235Y113200D01*
X36250Y113183D01*
X36263Y113170D01*
X36273Y113163D01*
X36275Y113160D01*
X36276D01*
X36306Y113144D01*
X36338Y113130D01*
X36367Y113122D01*
X36396Y113115D01*
X36419Y113112D01*
X36439Y113110D01*
X36446Y113109D01*
X36464D01*
X36472Y113110D01*
X36477Y113112D01*
X36480D01*
X36499Y112974D01*
X36475Y112979D01*
X36454Y112984D01*
X36434Y112988D01*
X36417Y112989D01*
X36406Y112991D01*
X36388D01*
X36348Y112988D01*
X36313Y112979D01*
X36283Y112969D01*
X36256Y112956D01*
X36236Y112943D01*
X36222Y112933D01*
X36211Y112925D01*
X36208Y112921D01*
X36195Y112908D01*
X36185Y112893D01*
X36167Y112865D01*
X36153Y112835D01*
X36145Y112807D01*
X36140Y112782D01*
X36138Y112770D01*
Y112762D01*
X36137Y112753D01*
Y112749D01*
Y112745D01*
Y112743D01*
Y112724D01*
X36140Y112704D01*
X36148Y112667D01*
X36162Y112634D01*
X36175Y112607D01*
X36188Y112584D01*
X36202Y112568D01*
X36206Y112563D01*
X36210Y112558D01*
X36211Y112556D01*
X36213Y112554D01*
X36228Y112541D01*
X36243Y112529D01*
X36275Y112510D01*
X36306Y112496D01*
X36336Y112488D01*
X36361Y112481D01*
X36373Y112480D01*
X36382D01*
X36389Y112478D01*
X36401D01*
X36434Y112481D01*
X36465Y112488D01*
X36492Y112496D01*
X36515Y112508D01*
X36535Y112518D01*
X36549Y112528D01*
X36557Y112534D01*
X36560Y112536D01*
X36572Y112548D01*
X36582Y112561D01*
X36600Y112592D01*
X36617Y112624D01*
X36628Y112655D01*
X36638Y112685D01*
X36641Y112697D01*
X36645Y112709D01*
X36646Y112717D01*
X36648Y112724D01*
X36650Y112729D01*
Y112730D01*
X36806Y112709D01*
X36803Y112679D01*
X36796Y112651D01*
X36789Y112626D01*
X36779Y112601D01*
X36769Y112577D01*
X36759Y112556D01*
X36748Y112536D01*
X36738Y112518D01*
X36726Y112503D01*
X36716Y112488D01*
X36706Y112476D01*
X36698Y112466D01*
X36690Y112458D01*
X36685Y112453D01*
X36681Y112450D01*
X36680Y112448D01*
X36658Y112430D01*
X36636Y112415D01*
X36613Y112402D01*
X36588Y112390D01*
X36565Y112382D01*
X36542Y112373D01*
X36499Y112362D01*
X36479Y112357D01*
X36459Y112353D01*
X36442Y112352D01*
X36429Y112350D01*
X36417Y112348D01*
X36401D01*
X36366Y112350D01*
X36334Y112353D01*
X36303Y112358D01*
X36275Y112367D01*
X36246Y112375D01*
X36222Y112385D01*
X36198Y112395D01*
X36177Y112407D01*
X36158Y112417D01*
X36142Y112426D01*
X36127Y112436D01*
X36115Y112445D01*
X36105Y112453D01*
X36099Y112458D01*
X36095Y112461D01*
X36094Y112463D01*
X36072Y112485D01*
X36054Y112508D01*
X36037Y112533D01*
X36022Y112556D01*
X36011Y112581D01*
X36001Y112604D01*
X35992Y112627D01*
X35986Y112649D01*
X35981Y112669D01*
X35977Y112687D01*
X35974Y112704D01*
X35972Y112719D01*
X35971Y112730D01*
Y112740D01*
Y112745D01*
Y112747D01*
X35974Y112792D01*
X35981Y112830D01*
X35991Y112865D01*
X36002Y112895D01*
X36014Y112919D01*
X36019Y112928D01*
X36024Y112936D01*
X36027Y112943D01*
X36031Y112948D01*
X36034Y112949D01*
Y112951D01*
X36059Y112979D01*
X36089Y113003D01*
X36117Y113022D01*
X36145Y113037D01*
X36170Y113047D01*
X36182Y113052D01*
X36192Y113056D01*
X36198Y113057D01*
X36205Y113059D01*
X36208Y113061D01*
X36210D01*
X36180Y113077D01*
X36153Y113094D01*
X36130Y113112D01*
X36112Y113130D01*
X36097Y113145D01*
X36087Y113157D01*
X36080Y113165D01*
X36079Y113169D01*
X36064Y113195D01*
X36052Y113222D01*
X36046Y113247D01*
X36039Y113270D01*
X36035Y113290D01*
X36034Y113306D01*
Y113316D01*
Y113318D01*
Y113320D01*
X36035Y113351D01*
X36040Y113381D01*
X36049Y113409D01*
X36057Y113434D01*
X36067Y113454D01*
X36074Y113471D01*
X36080Y113481D01*
X36082Y113482D01*
Y113484D01*
X36100Y113512D01*
X36122Y113535D01*
X36145Y113557D01*
X36167Y113575D01*
X36187Y113589D01*
X36202Y113598D01*
X36208Y113602D01*
X36213Y113605D01*
X36215Y113607D01*
X36217D01*
X36250Y113622D01*
X36283Y113633D01*
X36314Y113640D01*
X36344Y113647D01*
X36369Y113650D01*
X36381D01*
X36389Y113652D01*
X36407D01*
X36436Y113650D01*
D02*
G37*
G36*
X38029Y112370D02*
X37860D01*
Y112936D01*
X37641D01*
X37622Y112934D01*
X37606D01*
X37593Y112933D01*
X37583Y112931D01*
X37576D01*
X37573Y112929D01*
X37571D01*
X37543Y112919D01*
X37530Y112915D01*
X37518Y112908D01*
X37508Y112903D01*
X37501Y112898D01*
X37496Y112896D01*
X37495Y112895D01*
X37480Y112883D01*
X37465Y112871D01*
X37450Y112856D01*
X37437Y112841D01*
X37425Y112830D01*
X37417Y112818D01*
X37410Y112812D01*
X37408Y112808D01*
X37388Y112783D01*
X37369Y112755D01*
X37349Y112727D01*
X37329Y112699D01*
X37312Y112674D01*
X37304Y112662D01*
X37297Y112652D01*
X37292Y112646D01*
X37289Y112639D01*
X37286Y112636D01*
Y112634D01*
X37118Y112370D01*
X36905D01*
X37126Y112715D01*
X37151Y112752D01*
X37176Y112785D01*
X37199Y112815D01*
X37221Y112838D01*
X37241Y112858D01*
X37254Y112873D01*
X37264Y112881D01*
X37266Y112885D01*
X37267D01*
X37282Y112896D01*
X37297Y112908D01*
X37330Y112929D01*
X37345Y112938D01*
X37357Y112944D01*
X37365Y112948D01*
X37369Y112949D01*
X37335Y112954D01*
X37304Y112961D01*
X37276Y112969D01*
X37249Y112978D01*
X37224Y112988D01*
X37201Y112997D01*
X37181Y113007D01*
X37163Y113017D01*
X37148Y113027D01*
X37135Y113037D01*
X37123Y113046D01*
X37113Y113052D01*
X37106Y113059D01*
X37100Y113064D01*
X37098Y113066D01*
X37096Y113067D01*
X37081Y113085D01*
X37066Y113104D01*
X37055Y113124D01*
X37045Y113142D01*
X37030Y113180D01*
X37020Y113217D01*
X37013Y113248D01*
X37012Y113261D01*
X37010Y113273D01*
X37008Y113283D01*
Y113290D01*
Y113295D01*
Y113296D01*
X37010Y113335D01*
X37017Y113371D01*
X37025Y113404D01*
X37035Y113432D01*
X37045Y113456D01*
X37053Y113474D01*
X37056Y113481D01*
X37060Y113486D01*
X37061Y113487D01*
Y113489D01*
X37083Y113519D01*
X37106Y113545D01*
X37130Y113567D01*
X37153Y113584D01*
X37173Y113597D01*
X37189Y113605D01*
X37196Y113608D01*
X37201Y113610D01*
X37203Y113612D01*
X37204D01*
X37221Y113618D01*
X37241Y113623D01*
X37282Y113632D01*
X37325Y113638D01*
X37367Y113642D01*
X37387Y113643D01*
X37405Y113645D01*
X37420D01*
X37435Y113647D01*
X38029D01*
Y112370D01*
D02*
G37*
G36*
X35412Y95639D02*
X35444Y95637D01*
X35474Y95632D01*
X35500Y95626D01*
X35527Y95619D01*
X35550Y95611D01*
X35572Y95603D01*
X35592Y95594D01*
X35610Y95584D01*
X35625Y95576D01*
X35638Y95568D01*
X35650Y95561D01*
X35658Y95554D01*
X35665Y95549D01*
X35668Y95548D01*
X35670Y95546D01*
X35690Y95528D01*
X35706Y95508D01*
X35721Y95486D01*
X35734Y95463D01*
X35746Y95442D01*
X35756Y95418D01*
X35771Y95373D01*
X35778Y95354D01*
X35783Y95334D01*
X35786Y95317D01*
X35789Y95302D01*
X35791Y95289D01*
Y95280D01*
X35792Y95274D01*
Y95272D01*
X35631Y95256D01*
X35628Y95299D01*
X35622Y95335D01*
X35610Y95367D01*
X35597Y95395D01*
X35585Y95415D01*
X35573Y95432D01*
X35567Y95440D01*
X35563Y95443D01*
X35537Y95467D01*
X35507Y95483D01*
X35475Y95495D01*
X35447Y95503D01*
X35422Y95508D01*
X35411Y95510D01*
X35401D01*
X35394Y95511D01*
X35383D01*
X35344Y95508D01*
X35309Y95501D01*
X35280Y95491D01*
X35255Y95480D01*
X35235Y95467D01*
X35220Y95456D01*
X35212Y95450D01*
X35208Y95446D01*
X35185Y95422D01*
X35168Y95395D01*
X35157Y95370D01*
X35148Y95345D01*
X35143Y95324D01*
X35142Y95305D01*
X35140Y95299D01*
Y95296D01*
Y95292D01*
Y95290D01*
Y95274D01*
X35143Y95257D01*
X35152Y95222D01*
X35163Y95191D01*
X35177Y95163D01*
X35192Y95138D01*
X35198Y95128D01*
X35203Y95118D01*
X35208Y95111D01*
X35212Y95106D01*
X35213Y95103D01*
X35215Y95101D01*
X35230Y95081D01*
X35248Y95061D01*
X35268Y95040D01*
X35289Y95017D01*
X35336Y94972D01*
X35383Y94929D01*
X35404Y94909D01*
X35426Y94890D01*
X35446Y94874D01*
X35462Y94859D01*
X35475Y94847D01*
X35487Y94839D01*
X35494Y94832D01*
X35495Y94831D01*
X35544Y94791D01*
X35585Y94754D01*
X35620Y94721D01*
X35648Y94693D01*
X35671Y94670D01*
X35688Y94651D01*
X35693Y94645D01*
X35698Y94640D01*
X35699Y94638D01*
X35701Y94636D01*
X35726Y94605D01*
X35748Y94575D01*
X35764Y94547D01*
X35779Y94520D01*
X35791Y94499D01*
X35798Y94482D01*
X35801Y94475D01*
X35803Y94471D01*
X35804Y94469D01*
Y94467D01*
X35811Y94447D01*
X35816Y94429D01*
X35819Y94411D01*
X35821Y94394D01*
X35822Y94379D01*
Y94369D01*
Y94363D01*
Y94359D01*
X34977D01*
Y94510D01*
X35605D01*
X35583Y94540D01*
X35572Y94555D01*
X35562Y94567D01*
X35552Y94578D01*
X35545Y94587D01*
X35540Y94592D01*
X35539Y94593D01*
X35530Y94602D01*
X35519Y94613D01*
X35507Y94625D01*
X35494Y94636D01*
X35464Y94663D01*
X35432Y94690D01*
X35404Y94714D01*
X35391Y94726D01*
X35381Y94736D01*
X35371Y94743D01*
X35364Y94749D01*
X35359Y94753D01*
X35358Y94754D01*
X35328Y94781D01*
X35298Y94806D01*
X35273Y94827D01*
X35248Y94849D01*
X35226Y94869D01*
X35206Y94889D01*
X35188Y94905D01*
X35173Y94920D01*
X35158Y94934D01*
X35147Y94945D01*
X35137Y94955D01*
X35129Y94964D01*
X35124Y94970D01*
X35118Y94975D01*
X35115Y94977D01*
Y94978D01*
X35090Y95008D01*
X35069Y95038D01*
X35050Y95065D01*
X35035Y95088D01*
X35024Y95106D01*
X35017Y95121D01*
X35012Y95131D01*
X35011Y95135D01*
X35001Y95163D01*
X34992Y95189D01*
X34987Y95216D01*
X34982Y95237D01*
X34981Y95257D01*
X34979Y95272D01*
Y95282D01*
Y95285D01*
X34981Y95314D01*
X34984Y95340D01*
X34989Y95365D01*
X34996Y95388D01*
X35014Y95432D01*
X35022Y95451D01*
X35032Y95468D01*
X35044Y95485D01*
X35052Y95498D01*
X35062Y95510D01*
X35070Y95520D01*
X35077Y95528D01*
X35082Y95533D01*
X35085Y95536D01*
X35087Y95538D01*
X35109Y95556D01*
X35130Y95571D01*
X35153Y95586D01*
X35178Y95598D01*
X35203Y95608D01*
X35226Y95616D01*
X35273Y95627D01*
X35294Y95632D01*
X35314Y95636D01*
X35333Y95637D01*
X35349Y95639D01*
X35361Y95641D01*
X35379D01*
X35412Y95639D01*
D02*
G37*
G36*
X37023Y94359D02*
X36853D01*
Y94925D01*
X36634D01*
X36616Y94924D01*
X36599D01*
X36586Y94922D01*
X36576Y94920D01*
X36569D01*
X36566Y94919D01*
X36564D01*
X36536Y94909D01*
X36523Y94904D01*
X36511Y94897D01*
X36501Y94892D01*
X36495Y94887D01*
X36490Y94885D01*
X36488Y94884D01*
X36473Y94872D01*
X36458Y94861D01*
X36443Y94846D01*
X36430Y94831D01*
X36418Y94819D01*
X36410Y94807D01*
X36403Y94801D01*
X36402Y94797D01*
X36382Y94773D01*
X36362Y94744D01*
X36342Y94716D01*
X36322Y94688D01*
X36305Y94663D01*
X36297Y94651D01*
X36290Y94641D01*
X36285Y94635D01*
X36282Y94628D01*
X36279Y94625D01*
Y94623D01*
X36111Y94359D01*
X35899D01*
X36119Y94705D01*
X36144Y94741D01*
X36169Y94774D01*
X36193Y94804D01*
X36214Y94827D01*
X36234Y94847D01*
X36247Y94862D01*
X36257Y94871D01*
X36259Y94874D01*
X36261D01*
X36276Y94885D01*
X36290Y94897D01*
X36324Y94919D01*
X36339Y94927D01*
X36350Y94934D01*
X36359Y94937D01*
X36362Y94939D01*
X36329Y94944D01*
X36297Y94950D01*
X36269Y94959D01*
X36242Y94967D01*
X36217Y94977D01*
X36194Y94987D01*
X36174Y94997D01*
X36156Y95007D01*
X36141Y95017D01*
X36128Y95027D01*
X36116Y95035D01*
X36106Y95042D01*
X36100Y95048D01*
X36093Y95053D01*
X36091Y95055D01*
X36090Y95056D01*
X36075Y95075D01*
X36060Y95093D01*
X36048Y95113D01*
X36038Y95131D01*
X36023Y95169D01*
X36013Y95206D01*
X36007Y95237D01*
X36005Y95251D01*
X36003Y95262D01*
X36002Y95272D01*
Y95279D01*
Y95284D01*
Y95285D01*
X36003Y95324D01*
X36010Y95360D01*
X36018Y95393D01*
X36028Y95422D01*
X36038Y95445D01*
X36046Y95463D01*
X36050Y95470D01*
X36053Y95475D01*
X36055Y95476D01*
Y95478D01*
X36076Y95508D01*
X36100Y95534D01*
X36123Y95556D01*
X36146Y95573D01*
X36166Y95586D01*
X36183Y95594D01*
X36189Y95598D01*
X36194Y95599D01*
X36196Y95601D01*
X36198D01*
X36214Y95608D01*
X36234Y95613D01*
X36276Y95621D01*
X36319Y95627D01*
X36360Y95631D01*
X36380Y95632D01*
X36398Y95634D01*
X36413D01*
X36428Y95636D01*
X37023D01*
Y94359D01*
D02*
G37*
G36*
X32104Y51412D02*
X32126Y51382D01*
X32149Y51352D01*
X32171Y51327D01*
X32192Y51304D01*
X32209Y51287D01*
X32215Y51281D01*
X32220Y51276D01*
X32224Y51274D01*
X32225Y51272D01*
X32263Y51241D01*
X32302Y51213D01*
X32342Y51186D01*
X32376Y51164D01*
X32408Y51148D01*
X32421Y51139D01*
X32433Y51135D01*
X32441Y51130D01*
X32448Y51126D01*
X32453Y51123D01*
X32454D01*
Y50970D01*
X32426Y50982D01*
X32398Y50995D01*
X32370Y51008D01*
X32345Y51022D01*
X32323Y51033D01*
X32305Y51043D01*
X32298Y51047D01*
X32293Y51050D01*
X32292Y51051D01*
X32290D01*
X32257Y51071D01*
X32229Y51091D01*
X32202Y51110D01*
X32181Y51126D01*
X32164Y51139D01*
X32151Y51151D01*
X32144Y51158D01*
X32141Y51159D01*
Y50162D01*
X31985D01*
Y51443D01*
X32086D01*
X32104Y51412D01*
D02*
G37*
G36*
X33308Y51456D02*
X33366Y51448D01*
X33419Y51435D01*
X33442Y51428D01*
X33465Y51422D01*
X33485Y51413D01*
X33503Y51407D01*
X33518Y51400D01*
X33532Y51393D01*
X33542Y51389D01*
X33550Y51385D01*
X33555Y51384D01*
X33557Y51382D01*
X33582Y51367D01*
X33606Y51350D01*
X33650Y51314D01*
X33688Y51277D01*
X33718Y51241D01*
X33731Y51222D01*
X33742Y51208D01*
X33753Y51193D01*
X33759Y51181D01*
X33766Y51171D01*
X33771Y51163D01*
X33772Y51158D01*
X33774Y51156D01*
X33787Y51128D01*
X33799Y51098D01*
X33817Y51040D01*
X33830Y50982D01*
X33836Y50954D01*
X33839Y50927D01*
X33842Y50902D01*
X33845Y50880D01*
X33847Y50861D01*
Y50842D01*
X33849Y50829D01*
Y50817D01*
Y50811D01*
Y50809D01*
X33845Y50743D01*
X33839Y50678D01*
X33834Y50650D01*
X33827Y50622D01*
X33822Y50595D01*
X33816Y50570D01*
X33809Y50547D01*
X33804Y50527D01*
X33797Y50510D01*
X33792Y50495D01*
X33789Y50484D01*
X33786Y50474D01*
X33782Y50469D01*
Y50467D01*
X33769Y50439D01*
X33754Y50411D01*
X33739Y50386D01*
X33723Y50363D01*
X33706Y50339D01*
X33689Y50319D01*
X33674Y50301D01*
X33658Y50286D01*
X33643Y50271D01*
X33630Y50258D01*
X33616Y50248D01*
X33606Y50240D01*
X33597Y50231D01*
X33590Y50226D01*
X33586Y50225D01*
X33585Y50223D01*
X33560Y50208D01*
X33533Y50197D01*
X33505Y50185D01*
X33477Y50175D01*
X33421Y50160D01*
X33367Y50150D01*
X33342Y50147D01*
X33321Y50145D01*
X33299Y50143D01*
X33283Y50142D01*
X33268Y50140D01*
X33248D01*
X33211Y50142D01*
X33176Y50145D01*
X33143Y50150D01*
X33112Y50157D01*
X33082Y50165D01*
X33054Y50175D01*
X33029Y50183D01*
X33004Y50195D01*
X32984Y50205D01*
X32966Y50213D01*
X32949Y50223D01*
X32936Y50231D01*
X32924Y50238D01*
X32917Y50243D01*
X32912Y50246D01*
X32911Y50248D01*
X32886Y50270D01*
X32863Y50293D01*
X32841Y50318D01*
X32823Y50344D01*
X32805Y50371D01*
X32790Y50396D01*
X32775Y50422D01*
X32763Y50447D01*
X32752Y50472D01*
X32743Y50494D01*
X32735Y50514D01*
X32728Y50530D01*
X32725Y50545D01*
X32722Y50557D01*
X32718Y50564D01*
Y50565D01*
X32888Y50608D01*
X32896Y50578D01*
X32904Y50552D01*
X32914Y50527D01*
X32924Y50502D01*
X32936Y50481D01*
X32946Y50460D01*
X32957Y50442D01*
X32969Y50427D01*
X32979Y50412D01*
X32989Y50401D01*
X32999Y50389D01*
X33005Y50381D01*
X33012Y50374D01*
X33017Y50369D01*
X33020Y50368D01*
X33022Y50366D01*
X33040Y50351D01*
X33060Y50339D01*
X33080Y50328D01*
X33102Y50319D01*
X33142Y50305D01*
X33180Y50295D01*
X33196Y50291D01*
X33213Y50290D01*
X33226Y50288D01*
X33240Y50286D01*
X33250Y50285D01*
X33263D01*
X33306Y50288D01*
X33346Y50295D01*
X33382Y50303D01*
X33415Y50314D01*
X33442Y50326D01*
X33454Y50331D01*
X33462Y50334D01*
X33470Y50339D01*
X33475Y50341D01*
X33479Y50344D01*
X33480D01*
X33515Y50369D01*
X33545Y50397D01*
X33570Y50427D01*
X33591Y50457D01*
X33608Y50484D01*
X33613Y50495D01*
X33618Y50505D01*
X33623Y50514D01*
X33626Y50520D01*
X33628Y50524D01*
Y50525D01*
X33643Y50572D01*
X33655Y50622D01*
X33663Y50668D01*
X33668Y50713D01*
X33671Y50733D01*
Y50751D01*
X33673Y50768D01*
X33674Y50783D01*
Y50794D01*
Y50802D01*
Y50807D01*
Y50809D01*
X33673Y50856D01*
X33668Y50900D01*
X33661Y50942D01*
X33655Y50980D01*
X33651Y50995D01*
X33648Y51010D01*
X33645Y51023D01*
X33641Y51035D01*
X33638Y51043D01*
X33636Y51050D01*
X33635Y51053D01*
Y51055D01*
X33618Y51098D01*
X33597Y51135D01*
X33573Y51168D01*
X33550Y51194D01*
X33530Y51216D01*
X33514Y51231D01*
X33507Y51237D01*
X33502Y51241D01*
X33498Y51244D01*
X33497D01*
X33477Y51257D01*
X33457Y51267D01*
X33415Y51286D01*
X33374Y51299D01*
X33336Y51307D01*
X33318Y51309D01*
X33301Y51312D01*
X33286Y51314D01*
X33274D01*
X33264Y51315D01*
X33250D01*
X33203Y51312D01*
X33162Y51306D01*
X33125Y51296D01*
X33094Y51284D01*
X33069Y51271D01*
X33059Y51266D01*
X33050Y51261D01*
X33044Y51257D01*
X33039Y51254D01*
X33037Y51251D01*
X33035D01*
X33020Y51237D01*
X33005Y51224D01*
X32979Y51193D01*
X32957Y51159D01*
X32939Y51126D01*
X32924Y51096D01*
X32919Y51083D01*
X32914Y51071D01*
X32911Y51061D01*
X32908Y51055D01*
X32906Y51050D01*
Y51048D01*
X32740Y51088D01*
X32750Y51120D01*
X32763Y51151D01*
X32776Y51179D01*
X32791Y51206D01*
X32806Y51229D01*
X32821Y51252D01*
X32836Y51272D01*
X32851Y51291D01*
X32866Y51307D01*
X32879Y51322D01*
X32893Y51334D01*
X32903Y51344D01*
X32911Y51352D01*
X32919Y51357D01*
X32923Y51360D01*
X32924Y51362D01*
X32949Y51379D01*
X32976Y51395D01*
X33002Y51407D01*
X33029Y51418D01*
X33057Y51428D01*
X33084Y51437D01*
X33133Y51448D01*
X33157Y51451D01*
X33178Y51455D01*
X33198Y51456D01*
X33215Y51458D01*
X33228Y51460D01*
X33278D01*
X33308Y51456D01*
D02*
G37*
G36*
X31218Y51440D02*
X31262Y51432D01*
X31302Y51420D01*
X31335Y51407D01*
X31350Y51398D01*
X31362Y51392D01*
X31374Y51385D01*
X31382Y51380D01*
X31389Y51375D01*
X31394Y51372D01*
X31397Y51370D01*
X31399Y51369D01*
X31430Y51339D01*
X31458Y51304D01*
X31482Y51267D01*
X31501Y51234D01*
X31517Y51202D01*
X31523Y51189D01*
X31528Y51178D01*
X31531Y51168D01*
X31535Y51161D01*
X31536Y51156D01*
Y51154D01*
X31545Y51128D01*
X31551Y51100D01*
X31563Y51040D01*
X31571Y50978D01*
X31576Y50920D01*
X31580Y50894D01*
Y50869D01*
X31581Y50847D01*
X31583Y50829D01*
Y50813D01*
Y50801D01*
Y50794D01*
Y50791D01*
X31581Y50726D01*
X31578Y50665D01*
X31571Y50610D01*
X31563Y50559D01*
X31555Y50510D01*
X31543Y50469D01*
X31531Y50431D01*
X31520Y50396D01*
X31508Y50366D01*
X31498Y50341D01*
X31487Y50319D01*
X31478Y50301D01*
X31470Y50288D01*
X31463Y50280D01*
X31460Y50273D01*
X31458Y50271D01*
X31437Y50248D01*
X31415Y50228D01*
X31392Y50210D01*
X31369Y50195D01*
X31344Y50183D01*
X31319Y50172D01*
X31296Y50163D01*
X31273Y50157D01*
X31251Y50152D01*
X31231Y50147D01*
X31214Y50143D01*
X31198Y50142D01*
X31186D01*
X31176Y50140D01*
X31168D01*
X31143Y50142D01*
X31118Y50143D01*
X31073Y50152D01*
X31033Y50163D01*
X31000Y50178D01*
X30985Y50185D01*
X30974Y50192D01*
X30962Y50198D01*
X30954Y50203D01*
X30947Y50208D01*
X30940Y50212D01*
X30939Y50215D01*
X30937D01*
X30904Y50245D01*
X30876Y50280D01*
X30852Y50314D01*
X30833Y50349D01*
X30818Y50379D01*
X30811Y50393D01*
X30806Y50404D01*
X30803Y50414D01*
X30799Y50421D01*
X30798Y50426D01*
Y50427D01*
X30789Y50454D01*
X30783Y50482D01*
X30771Y50542D01*
X30763Y50603D01*
X30756Y50661D01*
X30755Y50688D01*
X30753Y50713D01*
Y50734D01*
X30751Y50753D01*
Y50769D01*
Y50781D01*
Y50788D01*
Y50791D01*
Y50826D01*
X30753Y50859D01*
X30755Y50889D01*
X30756Y50917D01*
X30758Y50945D01*
X30761Y50968D01*
X30763Y50992D01*
X30766Y51012D01*
X30770Y51030D01*
X30771Y51047D01*
X30775Y51060D01*
X30776Y51071D01*
X30778Y51080D01*
X30779Y51086D01*
X30781Y51090D01*
Y51091D01*
X30793Y51131D01*
X30804Y51169D01*
X30818Y51201D01*
X30831Y51229D01*
X30843Y51252D01*
X30851Y51269D01*
X30854Y51274D01*
X30858Y51279D01*
X30859Y51281D01*
Y51282D01*
X30879Y51310D01*
X30901Y51334D01*
X30922Y51354D01*
X30942Y51372D01*
X30960Y51385D01*
X30974Y51393D01*
X30984Y51400D01*
X30985Y51402D01*
X30987D01*
X31017Y51415D01*
X31048Y51425D01*
X31078Y51433D01*
X31106Y51438D01*
X31131Y51442D01*
X31141D01*
X31151Y51443D01*
X31193D01*
X31218Y51440D01*
D02*
G37*
G36*
X39713Y51442D02*
X39743Y51438D01*
X39773Y51432D01*
X39799Y51425D01*
X39824Y51415D01*
X39848Y51405D01*
X39871Y51395D01*
X39889Y51384D01*
X39907Y51372D01*
X39924Y51362D01*
X39937Y51352D01*
X39949Y51342D01*
X39957Y51335D01*
X39964Y51329D01*
X39967Y51325D01*
X39969Y51324D01*
X39989Y51301D01*
X40005Y51277D01*
X40020Y51251D01*
X40034Y51226D01*
X40045Y51199D01*
X40053Y51173D01*
X40067Y51123D01*
X40072Y51101D01*
X40075Y51080D01*
X40078Y51060D01*
X40080Y51043D01*
X40082Y51030D01*
Y51020D01*
Y51013D01*
Y51012D01*
X40080Y50977D01*
X40077Y50945D01*
X40072Y50914D01*
X40065Y50885D01*
X40057Y50859D01*
X40047Y50834D01*
X40037Y50811D01*
X40027Y50791D01*
X40017Y50773D01*
X40007Y50756D01*
X39997Y50741D01*
X39989Y50731D01*
X39982Y50721D01*
X39977Y50714D01*
X39974Y50711D01*
X39972Y50709D01*
X39951Y50690D01*
X39929Y50671D01*
X39907Y50656D01*
X39884Y50643D01*
X39861Y50631D01*
X39839Y50623D01*
X39818Y50615D01*
X39798Y50610D01*
X39778Y50605D01*
X39761Y50602D01*
X39745Y50598D01*
X39731Y50597D01*
X39720Y50595D01*
X39705D01*
X39670Y50597D01*
X39637Y50602D01*
X39607Y50610D01*
X39582Y50618D01*
X39559Y50626D01*
X39544Y50635D01*
X39537Y50637D01*
X39532Y50640D01*
X39531Y50642D01*
X39529D01*
X39501Y50660D01*
X39474Y50680D01*
X39453Y50700D01*
X39434Y50719D01*
X39419Y50736D01*
X39408Y50751D01*
X39401Y50759D01*
X39399Y50763D01*
Y50749D01*
Y50739D01*
Y50733D01*
Y50731D01*
X39401Y50695D01*
X39403Y50660D01*
X39406Y50626D01*
X39411Y50598D01*
X39416Y50573D01*
X39418Y50564D01*
X39419Y50555D01*
X39421Y50548D01*
Y50543D01*
X39423Y50540D01*
Y50538D01*
X39431Y50505D01*
X39441Y50476D01*
X39451Y50451D01*
X39461Y50429D01*
X39469Y50412D01*
X39474Y50399D01*
X39479Y50393D01*
X39481Y50389D01*
X39494Y50369D01*
X39509Y50353D01*
X39524Y50338D01*
X39539Y50324D01*
X39551Y50314D01*
X39560Y50308D01*
X39569Y50303D01*
X39570Y50301D01*
X39592Y50291D01*
X39614Y50283D01*
X39635Y50278D01*
X39653Y50273D01*
X39672Y50271D01*
X39685Y50270D01*
X39697D01*
X39726Y50271D01*
X39755Y50276D01*
X39778Y50285D01*
X39798Y50293D01*
X39814Y50301D01*
X39826Y50309D01*
X39833Y50314D01*
X39836Y50316D01*
X39854Y50336D01*
X39869Y50359D01*
X39882Y50384D01*
X39891Y50411D01*
X39899Y50432D01*
X39904Y50452D01*
X39906Y50459D01*
Y50464D01*
X39907Y50467D01*
Y50469D01*
X40058Y50457D01*
X40053Y50429D01*
X40049Y50404D01*
X40042Y50379D01*
X40034Y50358D01*
X40024Y50336D01*
X40015Y50316D01*
X40005Y50300D01*
X39995Y50283D01*
X39985Y50270D01*
X39977Y50258D01*
X39969Y50246D01*
X39961Y50238D01*
X39954Y50231D01*
X39949Y50226D01*
X39947Y50225D01*
X39946Y50223D01*
X39927Y50208D01*
X39907Y50197D01*
X39887Y50185D01*
X39868Y50175D01*
X39826Y50160D01*
X39788Y50150D01*
X39770Y50147D01*
X39753Y50145D01*
X39740Y50143D01*
X39726Y50142D01*
X39717Y50140D01*
X39702D01*
X39675Y50142D01*
X39650Y50143D01*
X39604Y50152D01*
X39562Y50163D01*
X39526Y50178D01*
X39511Y50185D01*
X39496Y50192D01*
X39484Y50198D01*
X39474Y50203D01*
X39466Y50208D01*
X39461Y50212D01*
X39457Y50215D01*
X39456D01*
X39418Y50246D01*
X39386Y50281D01*
X39358Y50318D01*
X39336Y50354D01*
X39318Y50386D01*
X39312Y50399D01*
X39307Y50412D01*
X39301Y50422D01*
X39298Y50429D01*
X39296Y50434D01*
Y50436D01*
X39287Y50464D01*
X39278Y50494D01*
X39265Y50557D01*
X39257Y50623D01*
X39253Y50655D01*
X39250Y50685D01*
X39248Y50714D01*
X39247Y50741D01*
X39245Y50764D01*
X39243Y50786D01*
Y50802D01*
Y50816D01*
Y50822D01*
Y50826D01*
Y50869D01*
X39245Y50909D01*
X39248Y50945D01*
X39252Y50980D01*
X39257Y51013D01*
X39260Y51042D01*
X39265Y51068D01*
X39270Y51093D01*
X39277Y51115D01*
X39282Y51133D01*
X39285Y51148D01*
X39290Y51161D01*
X39293Y51171D01*
X39296Y51179D01*
X39298Y51183D01*
Y51184D01*
X39320Y51229D01*
X39345Y51267D01*
X39371Y51299D01*
X39396Y51327D01*
X39419Y51347D01*
X39438Y51364D01*
X39444Y51369D01*
X39449Y51372D01*
X39453Y51375D01*
X39454D01*
X39494Y51398D01*
X39534Y51415D01*
X39572Y51427D01*
X39607Y51435D01*
X39637Y51440D01*
X39650Y51442D01*
X39660D01*
X39670Y51443D01*
X39682D01*
X39713Y51442D01*
D02*
G37*
G36*
X40815Y51456D02*
X40874Y51448D01*
X40927Y51435D01*
X40950Y51428D01*
X40973Y51422D01*
X40993Y51413D01*
X41011Y51407D01*
X41026Y51400D01*
X41039Y51393D01*
X41050Y51389D01*
X41058Y51385D01*
X41063Y51384D01*
X41064Y51382D01*
X41089Y51367D01*
X41114Y51350D01*
X41157Y51314D01*
X41196Y51277D01*
X41225Y51241D01*
X41239Y51222D01*
X41250Y51208D01*
X41260Y51193D01*
X41267Y51181D01*
X41274Y51171D01*
X41279Y51163D01*
X41280Y51158D01*
X41282Y51156D01*
X41295Y51128D01*
X41307Y51098D01*
X41325Y51040D01*
X41338Y50982D01*
X41343Y50954D01*
X41347Y50927D01*
X41350Y50902D01*
X41353Y50880D01*
X41355Y50861D01*
Y50842D01*
X41357Y50829D01*
Y50817D01*
Y50811D01*
Y50809D01*
X41353Y50743D01*
X41347Y50678D01*
X41342Y50650D01*
X41335Y50622D01*
X41330Y50595D01*
X41323Y50570D01*
X41317Y50547D01*
X41312Y50527D01*
X41305Y50510D01*
X41300Y50495D01*
X41297Y50484D01*
X41293Y50474D01*
X41290Y50469D01*
Y50467D01*
X41277Y50439D01*
X41262Y50411D01*
X41247Y50386D01*
X41230Y50363D01*
X41214Y50339D01*
X41197Y50319D01*
X41182Y50301D01*
X41166Y50286D01*
X41151Y50271D01*
X41137Y50258D01*
X41124Y50248D01*
X41114Y50240D01*
X41104Y50231D01*
X41098Y50226D01*
X41094Y50225D01*
X41093Y50223D01*
X41068Y50208D01*
X41041Y50197D01*
X41013Y50185D01*
X40985Y50175D01*
X40928Y50160D01*
X40875Y50150D01*
X40850Y50147D01*
X40829Y50145D01*
X40807Y50143D01*
X40791Y50142D01*
X40776Y50140D01*
X40756D01*
X40719Y50142D01*
X40684Y50145D01*
X40651Y50150D01*
X40620Y50157D01*
X40590Y50165D01*
X40562Y50175D01*
X40536Y50183D01*
X40512Y50195D01*
X40492Y50205D01*
X40473Y50213D01*
X40457Y50223D01*
X40444Y50231D01*
X40432Y50238D01*
X40425Y50243D01*
X40420Y50246D01*
X40419Y50248D01*
X40394Y50270D01*
X40371Y50293D01*
X40349Y50318D01*
X40331Y50344D01*
X40312Y50371D01*
X40297Y50396D01*
X40283Y50422D01*
X40271Y50447D01*
X40259Y50472D01*
X40251Y50494D01*
X40243Y50514D01*
X40236Y50530D01*
X40233Y50545D01*
X40229Y50557D01*
X40226Y50564D01*
Y50565D01*
X40395Y50608D01*
X40404Y50578D01*
X40412Y50552D01*
X40422Y50527D01*
X40432Y50502D01*
X40444Y50481D01*
X40454Y50460D01*
X40465Y50442D01*
X40477Y50427D01*
X40487Y50412D01*
X40497Y50401D01*
X40507Y50389D01*
X40513Y50381D01*
X40520Y50374D01*
X40525Y50369D01*
X40528Y50368D01*
X40530Y50366D01*
X40548Y50351D01*
X40568Y50339D01*
X40588Y50328D01*
X40610Y50319D01*
X40649Y50305D01*
X40688Y50295D01*
X40704Y50291D01*
X40721Y50290D01*
X40734Y50288D01*
X40747Y50286D01*
X40757Y50285D01*
X40771D01*
X40814Y50288D01*
X40854Y50295D01*
X40890Y50303D01*
X40923Y50314D01*
X40950Y50326D01*
X40962Y50331D01*
X40970Y50334D01*
X40978Y50339D01*
X40983Y50341D01*
X40986Y50344D01*
X40988D01*
X41023Y50369D01*
X41053Y50397D01*
X41078Y50427D01*
X41099Y50457D01*
X41116Y50484D01*
X41121Y50495D01*
X41126Y50505D01*
X41131Y50514D01*
X41134Y50520D01*
X41136Y50524D01*
Y50525D01*
X41151Y50572D01*
X41162Y50622D01*
X41171Y50668D01*
X41176Y50713D01*
X41179Y50733D01*
Y50751D01*
X41181Y50768D01*
X41182Y50783D01*
Y50794D01*
Y50802D01*
Y50807D01*
Y50809D01*
X41181Y50856D01*
X41176Y50900D01*
X41169Y50942D01*
X41162Y50980D01*
X41159Y50995D01*
X41156Y51010D01*
X41152Y51023D01*
X41149Y51035D01*
X41146Y51043D01*
X41144Y51050D01*
X41142Y51053D01*
Y51055D01*
X41126Y51098D01*
X41104Y51135D01*
X41081Y51168D01*
X41058Y51194D01*
X41038Y51216D01*
X41021Y51231D01*
X41015Y51237D01*
X41010Y51241D01*
X41006Y51244D01*
X41005D01*
X40985Y51257D01*
X40965Y51267D01*
X40923Y51286D01*
X40882Y51299D01*
X40844Y51307D01*
X40825Y51309D01*
X40809Y51312D01*
X40794Y51314D01*
X40782D01*
X40772Y51315D01*
X40757D01*
X40711Y51312D01*
X40669Y51306D01*
X40633Y51296D01*
X40601Y51284D01*
X40576Y51271D01*
X40566Y51266D01*
X40558Y51261D01*
X40551Y51257D01*
X40547Y51254D01*
X40545Y51251D01*
X40543D01*
X40528Y51237D01*
X40513Y51224D01*
X40487Y51193D01*
X40465Y51159D01*
X40447Y51126D01*
X40432Y51096D01*
X40427Y51083D01*
X40422Y51071D01*
X40419Y51061D01*
X40415Y51055D01*
X40414Y51050D01*
Y51048D01*
X40248Y51088D01*
X40258Y51120D01*
X40271Y51151D01*
X40284Y51179D01*
X40299Y51206D01*
X40314Y51229D01*
X40329Y51252D01*
X40344Y51272D01*
X40359Y51291D01*
X40374Y51307D01*
X40387Y51322D01*
X40400Y51334D01*
X40410Y51344D01*
X40419Y51352D01*
X40427Y51357D01*
X40430Y51360D01*
X40432Y51362D01*
X40457Y51379D01*
X40483Y51395D01*
X40510Y51407D01*
X40536Y51418D01*
X40565Y51428D01*
X40591Y51437D01*
X40641Y51448D01*
X40664Y51451D01*
X40686Y51455D01*
X40706Y51456D01*
X40723Y51458D01*
X40736Y51460D01*
X40786D01*
X40815Y51456D01*
D02*
G37*
%LPC*%
G36*
X37860Y113505D02*
X37432D01*
X37407Y113502D01*
X37385Y113500D01*
X37365Y113496D01*
X37345Y113492D01*
X37329Y113487D01*
X37314Y113481D01*
X37301Y113476D01*
X37277Y113464D01*
X37262Y113456D01*
X37252Y113449D01*
X37249Y113446D01*
X37227Y113423D01*
X37211Y113398D01*
X37199Y113373D01*
X37191Y113349D01*
X37186Y113328D01*
X37184Y113311D01*
X37183Y113305D01*
Y113300D01*
Y113298D01*
Y113296D01*
X37184Y113273D01*
X37188Y113253D01*
X37194Y113233D01*
X37199Y113217D01*
X37206Y113202D01*
X37212Y113192D01*
X37216Y113183D01*
X37218Y113182D01*
X37231Y113163D01*
X37247Y113147D01*
X37264Y113134D01*
X37279Y113124D01*
X37294Y113115D01*
X37305Y113110D01*
X37314Y113107D01*
X37317Y113105D01*
X37344Y113097D01*
X37372Y113092D01*
X37403Y113087D01*
X37432Y113085D01*
X37458Y113084D01*
X37470Y113082D01*
X37860D01*
Y113505D01*
D02*
G37*
G36*
X36853Y95495D02*
X36425D01*
X36400Y95491D01*
X36378Y95490D01*
X36359Y95485D01*
X36339Y95481D01*
X36322Y95476D01*
X36307Y95470D01*
X36294Y95465D01*
X36271Y95453D01*
X36256Y95445D01*
X36246Y95438D01*
X36242Y95435D01*
X36221Y95412D01*
X36204Y95387D01*
X36193Y95362D01*
X36184Y95339D01*
X36179Y95317D01*
X36178Y95301D01*
X36176Y95294D01*
Y95289D01*
Y95287D01*
Y95285D01*
X36178Y95262D01*
X36181Y95242D01*
X36188Y95222D01*
X36193Y95206D01*
X36199Y95191D01*
X36206Y95181D01*
X36209Y95173D01*
X36211Y95171D01*
X36224Y95153D01*
X36241Y95136D01*
X36257Y95123D01*
X36272Y95113D01*
X36287Y95105D01*
X36299Y95100D01*
X36307Y95096D01*
X36310Y95095D01*
X36337Y95086D01*
X36365Y95081D01*
X36397Y95076D01*
X36425Y95075D01*
X36452Y95073D01*
X36463Y95071D01*
X36853D01*
Y95495D01*
D02*
G37*
G36*
X31179Y51314D02*
X31170D01*
X31150Y51312D01*
X31130Y51309D01*
X31111Y51304D01*
X31095Y51297D01*
X31063Y51281D01*
X31037Y51262D01*
X31015Y51242D01*
X31000Y51226D01*
X30994Y51219D01*
X30990Y51214D01*
X30987Y51211D01*
Y51209D01*
X30974Y51188D01*
X30962Y51161D01*
X30952Y51133D01*
X30944Y51101D01*
X30937Y51066D01*
X30931Y51032D01*
X30922Y50962D01*
X30919Y50929D01*
X30916Y50895D01*
X30914Y50867D01*
Y50842D01*
X30912Y50821D01*
Y50804D01*
Y50794D01*
Y50792D01*
Y50791D01*
Y50734D01*
X30916Y50683D01*
X30919Y50637D01*
X30924Y50593D01*
X30929Y50555D01*
X30935Y50520D01*
X30942Y50490D01*
X30949Y50464D01*
X30957Y50441D01*
X30964Y50422D01*
X30970Y50406D01*
X30975Y50394D01*
X30980Y50384D01*
X30984Y50378D01*
X30985Y50374D01*
X30987Y50373D01*
X31000Y50354D01*
X31015Y50339D01*
X31030Y50324D01*
X31047Y50313D01*
X31062Y50303D01*
X31077Y50295D01*
X31105Y50283D01*
X31130Y50275D01*
X31141Y50273D01*
X31150Y50271D01*
X31158Y50270D01*
X31168D01*
X31188Y50271D01*
X31206Y50275D01*
X31224Y50280D01*
X31241Y50286D01*
X31273Y50303D01*
X31299Y50321D01*
X31321Y50339D01*
X31335Y50356D01*
X31341Y50363D01*
X31345Y50368D01*
X31347Y50371D01*
X31349Y50373D01*
X31362Y50394D01*
X31372Y50421D01*
X31382Y50449D01*
X31390Y50482D01*
X31399Y50515D01*
X31404Y50550D01*
X31412Y50620D01*
X31415Y50655D01*
X31418Y50686D01*
X31420Y50714D01*
Y50739D01*
X31422Y50761D01*
Y50778D01*
Y50788D01*
Y50789D01*
Y50791D01*
X31420Y50847D01*
X31418Y50899D01*
X31415Y50947D01*
X31409Y50990D01*
X31404Y51030D01*
X31397Y51065D01*
X31389Y51096D01*
X31382Y51123D01*
X31374Y51148D01*
X31367Y51168D01*
X31360Y51184D01*
X31354Y51198D01*
X31349Y51208D01*
X31345Y51216D01*
X31344Y51219D01*
X31342Y51221D01*
X31329Y51237D01*
X31316Y51252D01*
X31302Y51264D01*
X31287Y51274D01*
X31259Y51291D01*
X31231Y51302D01*
X31208Y51309D01*
X31188Y51312D01*
X31179Y51314D01*
D02*
G37*
G36*
X39673D02*
X39663D01*
X39645Y51312D01*
X39627Y51310D01*
X39592Y51302D01*
X39562Y51289D01*
X39537Y51274D01*
X39517Y51259D01*
X39502Y51247D01*
X39492Y51237D01*
X39489Y51236D01*
Y51234D01*
X39476Y51219D01*
X39466Y51202D01*
X39448Y51168D01*
X39434Y51131D01*
X39426Y51098D01*
X39421Y51066D01*
X39419Y51053D01*
Y51042D01*
X39418Y51033D01*
Y51027D01*
Y51022D01*
Y51020D01*
Y50995D01*
X39421Y50972D01*
X39429Y50929D01*
X39441Y50892D01*
X39453Y50862D01*
X39466Y50839D01*
X39472Y50829D01*
X39478Y50822D01*
X39483Y50816D01*
X39486Y50811D01*
X39487Y50809D01*
X39489Y50807D01*
X39502Y50794D01*
X39517Y50783D01*
X39546Y50764D01*
X39575Y50751D01*
X39604Y50743D01*
X39628Y50736D01*
X39640Y50734D01*
X39649D01*
X39657Y50733D01*
X39667D01*
X39687Y50734D01*
X39707Y50736D01*
X39741Y50744D01*
X39773Y50756D01*
X39799Y50771D01*
X39821Y50784D01*
X39836Y50796D01*
X39846Y50804D01*
X39848Y50807D01*
X39849D01*
X39863Y50822D01*
X39873Y50837D01*
X39891Y50871D01*
X39902Y50904D01*
X39912Y50935D01*
X39917Y50963D01*
X39919Y50975D01*
Y50987D01*
X39921Y50995D01*
Y51002D01*
Y51005D01*
Y51007D01*
X39919Y51032D01*
X39917Y51055D01*
X39909Y51098D01*
X39896Y51136D01*
X39882Y51168D01*
X39876Y51181D01*
X39869Y51194D01*
X39863Y51204D01*
X39856Y51213D01*
X39851Y51219D01*
X39848Y51224D01*
X39844Y51226D01*
Y51227D01*
X39829Y51242D01*
X39814Y51256D01*
X39799Y51267D01*
X39785Y51277D01*
X39753Y51292D01*
X39725Y51304D01*
X39700Y51309D01*
X39690Y51310D01*
X39682Y51312D01*
X39673Y51314D01*
D02*
G37*
%LPD*%
D10*
X5600Y506D02*
Y244600D01*
X430797Y506D02*
Y244600D01*
X5600Y506D02*
X430797D01*
X5600Y244600D02*
X430797D01*
D11*
X33663Y54199D02*
G03*
X34263Y54799I0J600D01*
G01*
X30337D02*
G03*
X30937Y54199I600J0D01*
G01*
X34263Y62801D02*
G03*
X33663Y63401I-600J0D01*
G01*
X30937D02*
G03*
X30337Y62801I0J-600D01*
G01*
X42663Y54199D02*
G03*
X43263Y54799I0J600D01*
G01*
X39337D02*
G03*
X39937Y54199I600J0D01*
G01*
X43263Y62801D02*
G03*
X42663Y63401I-600J0D01*
G01*
X39937D02*
G03*
X39337Y62801I0J-600D01*
G01*
X37963Y120891D02*
Y123717D01*
X34037D02*
X37963D01*
X34037Y120891D02*
Y123717D01*
X37963Y116282D02*
Y119109D01*
X34037Y116282D02*
X37963D01*
X34037D02*
Y119109D01*
X30337Y54799D02*
Y57909D01*
X34263Y54799D02*
Y57909D01*
X30937Y54199D02*
X33663D01*
X30337Y59691D02*
Y62801D01*
X34263Y59691D02*
Y62801D01*
X30937Y63401D02*
X33663D01*
X39337Y54799D02*
Y57909D01*
X43263Y54799D02*
Y57909D01*
X39937Y54199D02*
X42663D01*
X39337Y59691D02*
Y62801D01*
X43263Y59691D02*
Y62801D01*
X39937Y63401D02*
X42663D01*
X37963Y103891D02*
Y106718D01*
X34037D02*
X37963D01*
X34037Y103891D02*
Y106718D01*
X37963Y99282D02*
Y102109D01*
X34037Y99282D02*
X37963D01*
X34037D02*
Y102109D01*
M02*
