G04*
G04 #@! TF.GenerationSoftware,Altium Limited,Altium Designer,25.0.2 (28)*
G04*
G04 Layer_Physical_Order=3*
G04 Layer_Color=16440176*
%FSLAX25Y25*%
%MOIN*%
G70*
G04*
G04 #@! TF.SameCoordinates,2A04F1A2-3F02-4B23-887A-497E0413F5F6*
G04*
G04*
G04 #@! TF.FilePolarity,Positive*
G04*
G01*
G75*
%ADD53C,0.00500*%
%ADD61C,0.01200*%
%ADD63O,0.04331X0.07874*%
%ADD64O,0.04724X0.07087*%
%ADD65C,0.07087*%
%ADD66R,0.05906X0.05906*%
%ADD67C,0.05906*%
%ADD68C,0.02400*%
%ADD69C,0.01600*%
D53*
X213498Y216535D02*
G03*
X212598Y217435I-900J0D01*
G01*
X213498Y216535D02*
G03*
X212598Y217435I-900J0D01*
G01*
X213235Y200151D02*
G03*
X213498Y200787I-636J636D01*
G01*
X213234Y200150D02*
G03*
X213498Y200787I-635J638D01*
G01*
X197783Y185100D02*
G03*
X197783Y185100I-950J0D01*
G01*
X191950D02*
G03*
X191950Y185100I-950J0D01*
G01*
X201256Y158511D02*
G03*
X201687Y159280I-468J769D01*
G01*
X201253Y158510D02*
G03*
X201687Y159280I-466J770D01*
G01*
X186117Y185100D02*
G03*
X186117Y185100I-950J0D01*
G01*
X180283D02*
G03*
X179995Y185782I-950J0D01*
G01*
X179725Y186495D02*
G03*
X179995Y185782I897J-68D01*
G01*
X179890Y184330D02*
G03*
X180283Y185100I-557J770D01*
G01*
X179724Y186494D02*
G03*
X179995Y185782I898J-66D01*
G01*
X179890Y184330D02*
G03*
X179515Y183664I522J-733D01*
G01*
X179887Y184328D02*
G03*
X179515Y183662I525J-731D01*
G01*
X177726Y159510D02*
G03*
X178320Y158595I897J-68D01*
G01*
X178950Y157700D02*
G03*
X178320Y158595I-950J0D01*
G01*
X177726Y159508D02*
G03*
X178320Y158595I898J-66D01*
G01*
X201253Y158510D02*
G03*
X201253Y156890I497J-810D01*
G01*
X197950Y157700D02*
G03*
X197950Y157700I-950J0D01*
G01*
X193200D02*
G03*
X193200Y157700I-950J0D01*
G01*
X178185Y156768D02*
G03*
X178950Y157700I-185J932D01*
G01*
X188450D02*
G03*
X188450Y157700I-950J0D01*
G01*
X183700D02*
G03*
X183700Y157700I-950J0D01*
G01*
X201687Y156120D02*
G03*
X201256Y156889I-900J0D01*
G01*
X201687Y156120D02*
G03*
X201253Y156890I-900J0D01*
G01*
X178185Y156768D02*
G03*
X177462Y155952I175J-883D01*
G01*
X178185Y156768D02*
G03*
X177462Y155950I175J-883D01*
G01*
X141344Y144394D02*
G03*
X141344Y144394I-1450J0D01*
G01*
X135834Y145509D02*
G03*
X135900Y145847I-834J338D01*
G01*
X135834Y145509D02*
G03*
X135900Y145847I-834J338D01*
G01*
X90551Y217435D02*
G03*
X89915Y217172I0J-900D01*
G01*
X90551Y217435D02*
G03*
X89915Y217172I0J-900D01*
G01*
X85978Y192277D02*
G03*
X86614Y192013I636J636D01*
G01*
X85978Y192277D02*
G03*
X86614Y192013I636J636D01*
G01*
X135900Y150500D02*
G03*
X135000Y151400I-900J0D01*
G01*
X135900Y150500D02*
G03*
X135000Y151400I-900J0D01*
G01*
X156328Y144264D02*
G03*
X156328Y144264I-1450J0D01*
G01*
X151350Y143900D02*
G03*
X151350Y143900I-1450J0D01*
G01*
X146350Y144100D02*
G03*
X146350Y144100I-1450J0D01*
G01*
X135900Y142953D02*
G03*
X135834Y143291I-900J0D01*
G01*
X136350Y144400D02*
G03*
X135834Y145509I-1450J0D01*
G01*
Y143291D02*
G03*
X136350Y144400I-934J1109D01*
G01*
X135900Y142953D02*
G03*
X135834Y143291I-900J0D01*
G01*
X121400Y130719D02*
G03*
X121400Y127881I300J-1419D01*
G01*
X115636Y119636D02*
G03*
X115000Y119900I-636J-636D01*
G01*
X115636Y119636D02*
G03*
X115000Y119900I-636J-636D01*
G01*
X106400D02*
G03*
X105500Y119000I0J-900D01*
G01*
X106400Y119900D02*
G03*
X105500Y119000I0J-900D01*
G01*
X117400Y117500D02*
G03*
X117136Y118136I-900J0D01*
G01*
X117400Y117500D02*
G03*
X117136Y118136I-900J0D01*
G01*
X209850Y52600D02*
G03*
X209850Y52600I-1850J0D01*
G01*
Y57000D02*
G03*
X209850Y57000I-1850J0D01*
G01*
Y61400D02*
G03*
X209850Y61400I-1850J0D01*
G01*
X116336Y106664D02*
G03*
X116594Y107195I-636J636D01*
G01*
X116336Y106664D02*
G03*
X116594Y107193I-636J636D01*
G01*
X202500Y90100D02*
G03*
X201687Y90996I-900J0D01*
G01*
X202236Y89464D02*
G03*
X202500Y90100I-636J636D01*
G01*
D02*
G03*
X201687Y90996I-900J0D01*
G01*
X141450Y92300D02*
G03*
X141450Y92300I-950J0D01*
G01*
X202236Y89464D02*
G03*
X202500Y90100I-636J636D01*
G01*
X200787Y85714D02*
G03*
X201687Y86614I0J900D01*
G01*
X200787Y85714D02*
G03*
X201687Y86614I0J900D01*
G01*
X172385Y86300D02*
G03*
X173228Y85714I843J314D01*
G01*
X172385Y86300D02*
G03*
X173228Y85714I843J314D01*
G01*
X132436Y66364D02*
G03*
X132700Y67000I-636J636D01*
G01*
X132436Y66364D02*
G03*
X132700Y67000I-636J636D01*
G01*
X116200Y101600D02*
G03*
X115564Y101336I0J-900D01*
G01*
X116200Y101600D02*
G03*
X115564Y101336I0J-900D01*
G01*
X126900Y61200D02*
G03*
X127536Y61464I0J900D01*
G01*
X114600Y61534D02*
G03*
X115300Y61200I700J566D01*
G01*
X126900D02*
G03*
X127536Y61464I0J900D01*
G01*
X117600Y55000D02*
G03*
X117336Y55636I-900J0D01*
G01*
X117600Y55000D02*
G03*
X117336Y55636I-900J0D01*
G01*
Y54364D02*
G03*
X117600Y55000I-636J636D01*
G01*
X117336Y54364D02*
G03*
X117600Y55000I-636J636D01*
G01*
X112450Y85650D02*
G03*
X112450Y85650I-950J0D01*
G01*
Y75150D02*
G03*
X112450Y75150I-950J0D01*
G01*
Y80400D02*
G03*
X112450Y80400I-950J0D01*
G01*
X86700Y63800D02*
G03*
X85800Y64700I-900J0D01*
G01*
X86700Y63800D02*
G03*
X85800Y64700I-900J0D01*
G01*
X114600Y61534D02*
G03*
X115300Y61200I700J566D01*
G01*
X181600Y19100D02*
G03*
X180700Y20000I-900J0D01*
G01*
X181600Y19100D02*
G03*
X180700Y20000I-900J0D01*
G01*
X181800Y11400D02*
G03*
X181600Y11966I-900J0D01*
G01*
X181298Y10287D02*
G03*
X181681Y10819I-489J755D01*
G01*
X152888Y9336D02*
G03*
X149057Y9336I-1915J0D01*
G01*
X116100Y20500D02*
G03*
X117000Y21400I0J900D01*
G01*
X116100Y20500D02*
G03*
X117000Y21400I0J900D01*
G01*
X107064Y20664D02*
G03*
X108112Y20500I636J636D01*
G01*
X105500Y22600D02*
G03*
X105764Y21964I900J0D01*
G01*
X105500Y22600D02*
G03*
X105764Y21964I900J0D01*
G01*
X93096Y9336D02*
G03*
X89266Y9336I-1915J0D01*
G01*
X179918Y6960D02*
G03*
X180182Y7597I-636J636D01*
G01*
X151218Y3893D02*
G03*
X152888Y5793I-245J1900D01*
G01*
X150972Y2173D02*
G03*
X151328Y2100I355J827D01*
G01*
X150972Y2173D02*
G03*
X151328Y2100I355J827D01*
G01*
X174685D02*
G03*
X175322Y2364I0J900D01*
G01*
X174685Y2100D02*
G03*
X175322Y2364I0J900D01*
G01*
X150617Y2100D02*
G03*
X150972Y2173I0J900D01*
G01*
X150617Y2100D02*
G03*
X150972Y2173I0J900D01*
G01*
X89266Y5793D02*
G03*
X90936Y3893I1915J0D01*
G01*
X149057Y5793D02*
G03*
X150727Y3893I1915J0D01*
G01*
X91426D02*
G03*
X93096Y5793I-245J1900D01*
G01*
X90826Y2100D02*
G03*
X91181Y2173I0J900D01*
G01*
D02*
G03*
X91536Y2100I355J827D01*
G01*
X90826D02*
G03*
X91181Y2173I0J900D01*
G01*
D02*
G03*
X91536Y2100I355J827D01*
G01*
X85015Y44126D02*
G03*
X86700Y44566I785J441D01*
G01*
X85017Y44123D02*
G03*
X86700Y44566I783J443D01*
G01*
X85015Y44126D02*
G03*
X85015Y43185I-825J-471D01*
G01*
X86700Y42744D02*
G03*
X85017Y43187I-900J0D01*
G01*
X86700Y42744D02*
G03*
X85015Y43185I-900J0D01*
G01*
X83164Y2364D02*
G03*
X83800Y2100I636J636D01*
G01*
X83164Y2364D02*
G03*
X83800Y2100I636J636D01*
G01*
X57700Y210000D02*
G03*
X56800Y209100I0J-900D01*
G01*
X57700Y210000D02*
G03*
X56800Y209100I0J-900D01*
G01*
X54482Y205361D02*
G03*
X54218Y204724I636J-636D01*
G01*
X54482Y205361D02*
G03*
X54218Y204724I636J-636D01*
G01*
X72750Y157300D02*
G03*
X72750Y157300I-950J0D01*
G01*
X68183D02*
G03*
X68183Y157300I-950J0D01*
G01*
X63617D02*
G03*
X63617Y157300I-950J0D01*
G01*
X59050D02*
G03*
X59050Y157300I-950J0D01*
G01*
X78740Y132958D02*
G03*
X79640Y133858I0J900D01*
G01*
X78740Y132958D02*
G03*
X79640Y133858I0J900D01*
G01*
X54218Y158254D02*
G03*
X54349Y157788I900J0D01*
G01*
X54483Y157300D02*
G03*
X54349Y157788I-950J0D01*
G01*
X54218Y158254D02*
G03*
X54347Y157790I900J0D01*
G01*
X54349Y156813D02*
G03*
X54483Y157300I-815J488D01*
G01*
X54349Y156813D02*
G03*
X54218Y156346I769J-467D01*
G01*
X54347Y156810D02*
G03*
X54218Y156346I771J-464D01*
G01*
X19793Y164600D02*
G03*
X19793Y164600I-4193J0D01*
G01*
Y184600D02*
G03*
X19793Y184600I-4193J0D01*
G01*
Y174600D02*
G03*
X19793Y174600I-4193J0D01*
G01*
X31850Y152800D02*
G03*
X31850Y152800I-1450J0D01*
G01*
X29150Y144900D02*
G03*
X29150Y144900I-1450J0D01*
G01*
X19793Y154600D02*
G03*
X19793Y154600I-4193J0D01*
G01*
Y144600D02*
G03*
X19793Y144600I-4193J0D01*
G01*
X44100Y134800D02*
G03*
X44364Y134164I900J0D01*
G01*
Y138936D02*
G03*
X44100Y138300I636J-636D01*
G01*
X44364Y138936D02*
G03*
X44100Y138300I636J-636D01*
G01*
X19793Y134600D02*
G03*
X14059Y130700I-4193J0D01*
G01*
X44100Y134800D02*
G03*
X44364Y134164I900J0D01*
G01*
X21864Y116236D02*
G03*
X21600Y115600I636J-636D01*
G01*
X21864Y116236D02*
G03*
X21600Y115600I636J-636D01*
G01*
X17141Y130700D02*
G03*
X19793Y134600I-1541J3900D01*
G01*
X9800Y130700D02*
G03*
X9164Y130436I0J-900D01*
G01*
X9800Y130700D02*
G03*
X9164Y130436I0J-900D01*
G01*
X8064Y129336D02*
G03*
X7800Y128700I636J-636D01*
G01*
X8064Y129336D02*
G03*
X7800Y128700I636J-636D01*
G01*
X19793Y114600D02*
G03*
X18187Y117900I-4193J0D01*
G01*
X7800Y128300D02*
G03*
X7900Y127888I900J0D01*
G01*
Y118800D02*
G03*
X8800Y117900I900J0D01*
G01*
X7900Y118800D02*
G03*
X8800Y117900I900J0D01*
G01*
X73476Y110269D02*
G03*
X74350Y111600I-576J1331D01*
G01*
X72424Y110231D02*
G03*
X74450Y108900I576J-1331D01*
G01*
D02*
G03*
X73476Y110269I-1450J0D01*
G01*
X74350Y111600D02*
G03*
X72424Y110231I-1450J0D01*
G01*
X74100Y64700D02*
G03*
X73464Y64436I0J-900D01*
G01*
X74100Y64700D02*
G03*
X73464Y64436I0J-900D01*
G01*
X72164Y63136D02*
G03*
X72164Y61864I636J-636D01*
G01*
Y63136D02*
G03*
X72164Y61864I636J-636D01*
G01*
X54236Y71064D02*
G03*
X54500Y71700I-636J636D01*
G01*
X54236Y71064D02*
G03*
X54500Y71700I-636J636D01*
G01*
X48013Y66500D02*
G03*
X48013Y66500I-550J0D01*
G01*
X53536Y48264D02*
G03*
X53800Y48900I-636J636D01*
G01*
X53536Y48264D02*
G03*
X53800Y48900I-636J636D01*
G01*
X61000Y20100D02*
G03*
X60364Y19836I0J-900D01*
G01*
X61000Y20100D02*
G03*
X60364Y19836I0J-900D01*
G01*
X58864Y18336D02*
G03*
X58800Y17134I636J-636D01*
G01*
X59041Y9336D02*
G03*
X58879Y10109I-1915J0D01*
G01*
X58800Y10477D02*
G03*
X58879Y10109I900J0D01*
G01*
X59041Y7500D02*
G03*
X59941Y6600I900J0D01*
G01*
X59041Y7500D02*
G03*
X59941Y6600I900J0D01*
G01*
X58800Y10477D02*
G03*
X58877Y10112I900J0D01*
G01*
X21600Y96381D02*
G03*
X21719Y95934I900J0D01*
G01*
Y95934D02*
G03*
X21719Y93266I1281J-1334D01*
G01*
X21600Y96381D02*
G03*
X21719Y95934I900J0D01*
G01*
X13013Y117900D02*
G03*
X19793Y114600I2587J-3300D01*
G01*
Y104600D02*
G03*
X19793Y104600I-4193J0D01*
G01*
X21719Y93265D02*
G03*
X21600Y92819I781J-447D01*
G01*
X21719Y93265D02*
G03*
X21600Y92819I781J-447D01*
G01*
X19793Y94600D02*
G03*
X19793Y94600I-4193J0D01*
G01*
Y84600D02*
G03*
X19793Y84600I-4193J0D01*
G01*
Y74600D02*
G03*
X19793Y74600I-4193J0D01*
G01*
X25700Y66500D02*
G03*
X24752Y66879I-550J0D01*
G01*
X23200Y67500D02*
G03*
X24752Y66879I900J0D01*
G01*
X23200Y67500D02*
G03*
X24752Y66879I900J0D01*
G01*
X21600Y70400D02*
G03*
X22500Y69500I900J0D01*
G01*
X21600Y70400D02*
G03*
X22500Y69500I900J0D01*
G01*
X35263Y66500D02*
G03*
X35263Y66500I-550J0D01*
G01*
X38450D02*
G03*
X38450Y66500I-550J0D01*
G01*
X32075D02*
G03*
X32075Y66500I-550J0D01*
G01*
X44825D02*
G03*
X44825Y66500I-550J0D01*
G01*
X41638D02*
G03*
X41638Y66500I-550J0D01*
G01*
X28888D02*
G03*
X28888Y66500I-550J0D01*
G01*
X24752Y66121D02*
G03*
X25700Y66500I398J379D01*
G01*
X24752Y66121D02*
G03*
X23200Y65500I-652J-621D01*
G01*
X24752Y66121D02*
G03*
X23200Y65500I-652J-621D01*
G01*
X46200Y41300D02*
G03*
X46836Y41564I0J900D01*
G01*
X46200Y41300D02*
G03*
X46836Y41564I0J900D01*
G01*
X10000Y60200D02*
G03*
X9364Y59936I0J-900D01*
G01*
X10000Y60200D02*
G03*
X9364Y59936I0J-900D01*
G01*
X8264Y58836D02*
G03*
X8264Y57564I636J-636D01*
G01*
Y58836D02*
G03*
X8264Y57564I636J-636D01*
G01*
X8600Y42200D02*
G03*
X9500Y41300I900J0D01*
G01*
X8600Y42200D02*
G03*
X9500Y41300I900J0D01*
G01*
X153788Y9336D02*
G03*
X148157Y9336I-2815J0D01*
G01*
X85800Y44566D02*
G03*
X85800Y42744I-1610J-911D01*
G01*
X93996Y9336D02*
G03*
X88366Y9336I-2815J0D01*
G01*
X151328Y3000D02*
G03*
X153788Y5793I-355J2793D01*
G01*
X148157D02*
G03*
X150617Y3000I2815J0D01*
G01*
X91536D02*
G03*
X93996Y5793I-355J2793D01*
G01*
X88366D02*
G03*
X90826Y3000I2815J0D01*
G01*
X59941Y9336D02*
G03*
X59700Y10477I-2815J0D01*
G01*
X73650Y157300D02*
G03*
X73650Y157300I-1850J0D01*
G01*
X69083D02*
G03*
X69083Y157300I-1850J0D01*
G01*
X64517D02*
G03*
X64517Y157300I-1850J0D01*
G01*
X59950D02*
G03*
X59950Y157300I-1850J0D01*
G01*
X55383D02*
G03*
X55118Y158254I-1850J0D01*
G01*
Y156346D02*
G03*
X55383Y157300I-1585J954D01*
G01*
X198683Y185100D02*
G03*
X198683Y185100I-1850J0D01*
G01*
X192850D02*
G03*
X192850Y185100I-1850J0D01*
G01*
X187017D02*
G03*
X187017Y185100I-1850J0D01*
G01*
X181183D02*
G03*
X180622Y186427I-1850J0D01*
G01*
X180412Y183597D02*
G03*
X181183Y185100I-1079J1503D01*
G01*
X200787Y159280D02*
G03*
X200787Y156120I963J-1580D01*
G01*
X198850Y157700D02*
G03*
X198850Y157700I-1850J0D01*
G01*
X194100D02*
G03*
X194100Y157700I-1850J0D01*
G01*
X189350D02*
G03*
X189350Y157700I-1850J0D01*
G01*
X184600D02*
G03*
X184600Y157700I-1850J0D01*
G01*
X179850D02*
G03*
X178623Y159442I-1850J0D01*
G01*
X197950Y111600D02*
G03*
X197950Y111600I-1450J0D01*
G01*
X178359Y155885D02*
G03*
X179850Y157700I-359J1815D01*
G01*
X183050Y108700D02*
G03*
X183050Y108700I-1450J0D01*
G01*
X142350Y92300D02*
G03*
X142350Y92300I-1850J0D01*
G01*
X28950Y114300D02*
G03*
X28950Y114300I-1450J0D01*
G01*
X32150Y101200D02*
G03*
X32150Y101200I-1450J0D01*
G01*
X46800Y94950D02*
G03*
X46800Y94950I-1850J0D01*
G01*
X22500Y92819D02*
G03*
X24850Y94600I500J1781D01*
G01*
D02*
G03*
X22500Y96381I-1850J0D01*
G01*
X48913Y66500D02*
G03*
X48913Y66500I-1450J0D01*
G01*
X45725D02*
G03*
X45725Y66500I-1450J0D01*
G01*
X36162D02*
G03*
X36162Y66500I-1450J0D01*
G01*
X42538D02*
G03*
X42538Y66500I-1450J0D01*
G01*
X39350D02*
G03*
X39350Y66500I-1450J0D01*
G01*
X32975D02*
G03*
X32975Y66500I-1450J0D01*
G01*
X29787D02*
G03*
X29787Y66500I-1450J0D01*
G01*
X26600D02*
G03*
X24100Y67500I-1450J0D01*
G01*
Y65500D02*
G03*
X26600Y66500I1050J1000D01*
G01*
X135000Y145847D02*
G03*
X135000Y142953I-100J-1447D01*
G01*
X128350Y131000D02*
G03*
X128350Y131000I-1450J0D01*
G01*
X122300Y127980D02*
G03*
X123150Y129300I-600J1320D01*
G01*
D02*
G03*
X122300Y130620I-1450J0D01*
G01*
X106550Y145200D02*
G03*
X106550Y145200I-1450J0D01*
G01*
X101350Y145300D02*
G03*
X101350Y145300I-1450J0D01*
G01*
X113350Y85650D02*
G03*
X113350Y85650I-1850J0D01*
G01*
Y80400D02*
G03*
X113350Y80400I-1850J0D01*
G01*
Y75150D02*
G03*
X113350Y75150I-1850J0D01*
G01*
X213498Y207600D02*
X236221D01*
X213498Y207200D02*
X236221D01*
X213498Y208000D02*
X236221D01*
X213498Y206400D02*
X236221D01*
X213498Y206000D02*
X236221D01*
X213498Y206800D02*
X236221D01*
X213498Y209600D02*
X236221D01*
X213498Y209200D02*
X236221D01*
X213498Y210000D02*
X236221D01*
X213498Y208400D02*
X236221D01*
X213498Y208800D02*
X236221D01*
X213498Y203200D02*
X236221D01*
X213498Y202800D02*
X236221D01*
X213498Y203600D02*
X236221D01*
X213498Y202000D02*
X236221D01*
X213498Y202400D02*
X236221D01*
X213498Y205200D02*
X236221D01*
X213498Y204800D02*
X236221D01*
X213498Y205600D02*
X236221D01*
X213498Y204000D02*
X236221D01*
X213498Y204400D02*
X236221D01*
X213498Y215600D02*
X236221D01*
X213498Y215200D02*
X236221D01*
X213498Y216000D02*
X236221D01*
X213498Y214400D02*
X236221D01*
X213498Y214800D02*
X236221D01*
X213205Y217200D02*
X236221D01*
X213459Y216800D02*
X236221D01*
X213498Y216400D02*
X236221D01*
X213498Y211600D02*
X236221D01*
X213498Y211200D02*
X236221D01*
X213498Y212000D02*
X236221D01*
X213498Y210400D02*
X236221D01*
X213498Y210800D02*
X236221D01*
X213498Y213600D02*
X236221D01*
X213498Y213200D02*
X236221D01*
X213498Y214000D02*
X236221D01*
X213498Y212400D02*
X236221D01*
X213498Y212800D02*
X236221D01*
X207884Y194800D02*
X236221D01*
X207484Y194400D02*
X236221D01*
X213498Y201600D02*
X236221D01*
X206684Y193600D02*
X236221D01*
X206284Y193200D02*
X236221D01*
X207084Y194000D02*
X236221D01*
X205484Y192400D02*
X236221D01*
X205084Y192000D02*
X236221D01*
X205884Y192800D02*
X236221D01*
X204284Y191200D02*
X236221D01*
X204684Y191600D02*
X236221D01*
X203484Y190400D02*
X236221D01*
X203084Y190000D02*
X236221D01*
X203884Y190800D02*
X236221D01*
X202284Y189200D02*
X236221D01*
X202684Y189600D02*
X236221D01*
X201687Y188400D02*
X236221D01*
X201687Y188000D02*
X236221D01*
X201884Y188800D02*
X236221D01*
X201687Y174400D02*
X236221D01*
X201687Y182400D02*
X236221D01*
X213498Y201200D02*
X236221D01*
X213498Y200800D02*
X236221D01*
X213498Y200787D02*
Y216535D01*
X213411Y200400D02*
X236221D01*
X213084Y200000D02*
X236221D01*
X212684Y199600D02*
X236221D01*
X212284Y199200D02*
X236221D01*
X201687Y188604D02*
X213234Y200150D01*
X211484Y198400D02*
X236221D01*
X211084Y198000D02*
X236221D01*
X211884Y198800D02*
X236221D01*
X210284Y197200D02*
X236221D01*
X210684Y197600D02*
X236221D01*
X209484Y196400D02*
X236221D01*
X209084Y196000D02*
X236221D01*
X209884Y196800D02*
X236221D01*
X208284Y195200D02*
X236221D01*
X208684Y195600D02*
X236221D01*
X163663Y226000D02*
X236221D01*
X163663Y225600D02*
X236221D01*
X163663Y226400D02*
X236221D01*
X163663Y224800D02*
X236221D01*
X163663Y224400D02*
X236221D01*
X163663Y225200D02*
X236221D01*
X163663Y228000D02*
X236221D01*
X163663Y227600D02*
X236221D01*
X163663Y228400D02*
X236221D01*
X163663Y226800D02*
X236221D01*
X163663Y227200D02*
X236221D01*
X163663Y221600D02*
X236221D01*
X163663Y221200D02*
X236221D01*
X163663Y222000D02*
X236221D01*
X163663Y220400D02*
X236221D01*
X163663Y220800D02*
X236221D01*
X163663Y223600D02*
X236221D01*
X163663Y223200D02*
X236221D01*
X163663Y224000D02*
X236221D01*
X163663Y222400D02*
X236221D01*
X163663Y222800D02*
X236221D01*
X163663Y234000D02*
X236221D01*
X163663Y233600D02*
X236221D01*
X163663Y234400D02*
X236221D01*
X163663Y232800D02*
X236221D01*
X163663Y233200D02*
X236221D01*
X163663Y236000D02*
X236221D01*
X163663Y235600D02*
X236221D01*
X163619Y236221D02*
X236221D01*
X163663Y234800D02*
X236221D01*
X163663Y235200D02*
X236221D01*
X163663Y230000D02*
X236221D01*
X163663Y229600D02*
X236221D01*
X163663Y230400D02*
X236221D01*
X163663Y228800D02*
X236221D01*
X163663Y229200D02*
X236221D01*
X163663Y232000D02*
X236221D01*
X163663Y231600D02*
X236221D01*
X163663Y232400D02*
X236221D01*
X163663Y230800D02*
X236221D01*
X163663Y231200D02*
X236221D01*
X201687Y180000D02*
X236221D01*
X201687Y179600D02*
X236221D01*
X201687Y180400D02*
X236221D01*
X201687Y178800D02*
X236221D01*
X201687Y179200D02*
X236221D01*
X201687Y182000D02*
X236221D01*
X201687Y181600D02*
X236221D01*
X201687Y182800D02*
X236221D01*
X201687Y180800D02*
X236221D01*
X201687Y181200D02*
X236221D01*
X201687Y176000D02*
X236221D01*
X201687Y175600D02*
X236221D01*
X201687Y176400D02*
X236221D01*
X201687Y174800D02*
X236221D01*
X201687Y175200D02*
X236221D01*
X201687Y178000D02*
X236221D01*
X201687Y177600D02*
X236221D01*
X201687Y178400D02*
X236221D01*
X201687Y176800D02*
X236221D01*
X201687Y177200D02*
X236221D01*
X163663Y218000D02*
X236221D01*
X163663Y217600D02*
X236221D01*
X163663Y217435D02*
X212598D01*
X201687Y187200D02*
X236221D01*
X201687Y187600D02*
X236221D01*
X163663Y219600D02*
X236221D01*
X163663Y219200D02*
X236221D01*
X163663Y220000D02*
X236221D01*
X163663Y218400D02*
X236221D01*
X163663Y218800D02*
X236221D01*
X201687Y184400D02*
X236221D01*
X201687Y184000D02*
X236221D01*
X201687Y184800D02*
X236221D01*
X201687Y183200D02*
X236221D01*
X201687Y183600D02*
X236221D01*
X201687Y186400D02*
X236221D01*
X201687Y186000D02*
X236221D01*
X201687Y186800D02*
X236221D01*
X201687Y185200D02*
X236221D01*
X201687Y185600D02*
X236221D01*
X201687Y131200D02*
X236221D01*
X201687Y130800D02*
X236221D01*
X201687Y131600D02*
X236221D01*
X201687Y130000D02*
X236221D01*
X201687Y129600D02*
X236221D01*
X201687Y130400D02*
X236221D01*
X201687Y133200D02*
X236221D01*
X201687Y132800D02*
X236221D01*
X201687Y133600D02*
X236221D01*
X201687Y132000D02*
X236221D01*
X201687Y132400D02*
X236221D01*
X201687Y126800D02*
X236221D01*
X201687Y126400D02*
X236221D01*
X201687Y127200D02*
X236221D01*
X201687Y125600D02*
X236221D01*
X201687Y126000D02*
X236221D01*
X201687Y128800D02*
X236221D01*
X201687Y128400D02*
X236221D01*
X201687Y129200D02*
X236221D01*
X201687Y127600D02*
X236221D01*
X201687Y128000D02*
X236221D01*
X201687Y139200D02*
X236221D01*
X201687Y138800D02*
X236221D01*
X201687Y139600D02*
X236221D01*
X201687Y138000D02*
X236221D01*
X201687Y138400D02*
X236221D01*
X201687Y141200D02*
X236221D01*
X201687Y140800D02*
X236221D01*
X201687Y141600D02*
X236221D01*
X201687Y140000D02*
X236221D01*
X201687Y140400D02*
X236221D01*
X201687Y135200D02*
X236221D01*
X201687Y134800D02*
X236221D01*
X201687Y135600D02*
X236221D01*
X201687Y134000D02*
X236221D01*
X201687Y134400D02*
X236221D01*
X201687Y137200D02*
X236221D01*
X201687Y136800D02*
X236221D01*
X201687Y137600D02*
X236221D01*
X201687Y136000D02*
X236221D01*
X201687Y136400D02*
X236221D01*
X201687Y114800D02*
X236221D01*
X201687Y114400D02*
X236221D01*
X201687Y115200D02*
X236221D01*
X201687Y113600D02*
X236221D01*
X201687Y114000D02*
X236221D01*
X201687Y116800D02*
X236221D01*
X201687Y116400D02*
X236221D01*
X201687Y117200D02*
X236221D01*
X201687Y115600D02*
X236221D01*
X201687Y116000D02*
X236221D01*
X201687Y110800D02*
X236221D01*
X201687Y110400D02*
X236221D01*
X201687Y111200D02*
X236221D01*
X201687Y109600D02*
X236221D01*
X201687Y110000D02*
X236221D01*
X201687Y112800D02*
X236221D01*
X201687Y112400D02*
X236221D01*
X201687Y113200D02*
X236221D01*
X201687Y111600D02*
X236221D01*
X201687Y112000D02*
X236221D01*
X201687Y122800D02*
X236221D01*
X201687Y122400D02*
X236221D01*
X201687Y123200D02*
X236221D01*
X201687Y121600D02*
X236221D01*
X201687Y122000D02*
X236221D01*
X201687Y124800D02*
X236221D01*
X201687Y124400D02*
X236221D01*
X201687Y125200D02*
X236221D01*
X201687Y123600D02*
X236221D01*
X201687Y124000D02*
X236221D01*
X201687Y118800D02*
X236221D01*
X201687Y118400D02*
X236221D01*
X201687Y119200D02*
X236221D01*
X201687Y117600D02*
X236221D01*
X201687Y118000D02*
X236221D01*
X201687Y120800D02*
X236221D01*
X201687Y120400D02*
X236221D01*
X201687Y121200D02*
X236221D01*
X201687Y119600D02*
X236221D01*
X201687Y120000D02*
X236221D01*
X201687Y163600D02*
X236221D01*
X201687Y163200D02*
X236221D01*
X201687Y164000D02*
X236221D01*
X201687Y162400D02*
X236221D01*
X201687Y162000D02*
X236221D01*
X201687Y162800D02*
X236221D01*
X201687Y165600D02*
X236221D01*
X201687Y165200D02*
X236221D01*
X201687Y166000D02*
X236221D01*
X201687Y164400D02*
X236221D01*
X201687Y164800D02*
X236221D01*
X201687Y160800D02*
X236221D01*
X201687Y160400D02*
X236221D01*
X201687Y161200D02*
X236221D01*
X201687Y159600D02*
X236221D01*
X201687Y160000D02*
X236221D01*
X201684Y159200D02*
X236221D01*
X201549Y158800D02*
X236221D01*
X201687Y161600D02*
X236221D01*
X200849Y158000D02*
X236221D01*
X201108Y158400D02*
X236221D01*
X201687Y171600D02*
X236221D01*
X201687Y171200D02*
X236221D01*
X201687Y172000D02*
X236221D01*
X201687Y170400D02*
X236221D01*
X201687Y170800D02*
X236221D01*
X201687Y173600D02*
X236221D01*
X201687Y173200D02*
X236221D01*
X201687Y174000D02*
X236221D01*
X201687Y172400D02*
X236221D01*
X201687Y172800D02*
X236221D01*
X201687Y167600D02*
X236221D01*
X201687Y167200D02*
X236221D01*
X201687Y168000D02*
X236221D01*
X201687Y166400D02*
X236221D01*
X201687Y166800D02*
X236221D01*
X201687Y169600D02*
X236221D01*
X201687Y169200D02*
X236221D01*
X201687Y170000D02*
X236221D01*
X201687Y168400D02*
X236221D01*
X201687Y168800D02*
X236221D01*
X201687Y147200D02*
X236221D01*
X201687Y146800D02*
X236221D01*
X201687Y147600D02*
X236221D01*
X201687Y146000D02*
X236221D01*
X201687Y146400D02*
X236221D01*
X201687Y149200D02*
X236221D01*
X201687Y148800D02*
X236221D01*
X201687Y149600D02*
X236221D01*
X201687Y148000D02*
X236221D01*
X201687Y148400D02*
X236221D01*
X201687Y143200D02*
X236221D01*
X201687Y142800D02*
X236221D01*
X201687Y143600D02*
X236221D01*
X201687Y142000D02*
X236221D01*
X201687Y142400D02*
X236221D01*
X201687Y145200D02*
X236221D01*
X201687Y144800D02*
X236221D01*
X201687Y145600D02*
X236221D01*
X201687Y144000D02*
X236221D01*
X201687Y144400D02*
X236221D01*
X201687Y155200D02*
X236221D01*
X201687Y154800D02*
X236221D01*
X201687Y155600D02*
X236221D01*
X201687Y154000D02*
X236221D01*
X201687Y154400D02*
X236221D01*
X200942Y157200D02*
X236221D01*
X201377Y156800D02*
X236221D01*
X200805Y157600D02*
X236221D01*
X201687Y156000D02*
X236221D01*
X201643Y156400D02*
X236221D01*
X201687Y151200D02*
X236221D01*
X201687Y150800D02*
X236221D01*
X201687Y151600D02*
X236221D01*
X201687Y150000D02*
X236221D01*
X201687Y150400D02*
X236221D01*
X201687Y153200D02*
X236221D01*
X201687Y152800D02*
X236221D01*
X201687Y153600D02*
X236221D01*
X201687Y152000D02*
X236221D01*
X201687Y152400D02*
X236221D01*
X196026Y185600D02*
X197641D01*
X195889Y185200D02*
X197778D01*
X196529Y186000D02*
X197137D01*
X201687Y159280D02*
Y188604D01*
X195932Y184800D02*
X197735D01*
X190192Y185600D02*
X191808D01*
X190055Y185200D02*
X191945D01*
X190696Y186000D02*
X191304D01*
X190099Y184800D02*
X191901D01*
X196191Y184400D02*
X197476D01*
X196099Y158000D02*
X197901D01*
X196358Y158400D02*
X197642D01*
X190358Y184400D02*
X191642D01*
X191608Y158400D02*
X192892D01*
X186858D02*
X188142D01*
X191349Y158000D02*
X193151D01*
X186599D02*
X188401D01*
X184359Y185600D02*
X185974D01*
X184222Y185200D02*
X186111D01*
X184862Y186000D02*
X185471D01*
X179725Y186495D02*
X180133Y192013D01*
X163663Y217435D02*
Y236000D01*
X184265Y184800D02*
X186068D01*
X184524Y184400D02*
X185809D01*
X181849Y158000D02*
X183651D01*
X182108Y158400D02*
X183392D01*
X177726Y159510D02*
X179515Y183662D01*
X196055Y157600D02*
X197945D01*
X191305D02*
X193195D01*
X181805D02*
X183695D01*
X186555D02*
X188445D01*
X196192Y157200D02*
X197808D01*
X196696Y156800D02*
X197304D01*
X191946D02*
X192554D01*
X186692Y157200D02*
X188308D01*
X191442D02*
X193058D01*
X181942D02*
X183558D01*
X187196Y156800D02*
X187804D01*
X182446D02*
X183054D01*
X135900Y149600D02*
X176991D01*
X135900Y149200D02*
X176962D01*
X135900Y148800D02*
X176932D01*
X135566Y151200D02*
X177110D01*
X135848Y150800D02*
X177080D01*
X135900Y150400D02*
X177051D01*
X135900Y150000D02*
X177021D01*
X135900Y145847D02*
Y150500D01*
Y147200D02*
X176814D01*
X135900Y146800D02*
X176784D01*
X135900Y146400D02*
X176754D01*
X135900Y146000D02*
X176725D01*
X135900Y148400D02*
X176903D01*
X135900Y148000D02*
X176873D01*
X135900Y147600D02*
X176843D01*
X86614Y192013D02*
X180133D01*
X79640Y190000D02*
X179984D01*
X79640Y189600D02*
X179955D01*
X79640Y189200D02*
X179925D01*
X79640Y188800D02*
X179895D01*
X79640Y188400D02*
X179866D01*
X79640Y192000D02*
X180132D01*
X79640Y191600D02*
X180103D01*
X79640Y191200D02*
X180073D01*
X79640Y190800D02*
X180043D01*
X79640Y190400D02*
X180014D01*
X79640Y185600D02*
X180141D01*
X79640Y185200D02*
X180278D01*
X79640Y186000D02*
X179830D01*
X79640Y184800D02*
X180235D01*
X79640Y184400D02*
X179976D01*
X79640Y188000D02*
X179836D01*
X79640Y187600D02*
X179806D01*
X79640Y187200D02*
X179777D01*
X79640Y186800D02*
X179747D01*
X79640Y186400D02*
X179722D01*
X91337Y217435D02*
Y236000D01*
X90551Y217435D02*
X91337D01*
X82743Y210000D02*
X89915Y217172D01*
X81900Y194800D02*
X83455D01*
X81500Y194400D02*
X83855D01*
X82300Y195200D02*
X83055D01*
X82677Y195578D02*
X85978Y192277D01*
X79640Y192541D02*
X82677Y195578D01*
X80700Y193600D02*
X84655D01*
X80300Y193200D02*
X85055D01*
X81100Y194000D02*
X84255D01*
X79640Y192400D02*
X85855D01*
X79640Y184000D02*
X179607D01*
X79900Y192800D02*
X85455D01*
X79640Y183600D02*
X179510D01*
X79640Y183200D02*
X179480D01*
X79640Y180800D02*
X179303D01*
X79640Y180400D02*
X179273D01*
X79640Y180000D02*
X179243D01*
X79640Y179600D02*
X179214D01*
X79640Y179200D02*
X179184D01*
X79640Y182800D02*
X179451D01*
X79640Y182400D02*
X179421D01*
X79640Y182000D02*
X179392D01*
X79640Y181600D02*
X179362D01*
X79640Y181200D02*
X179332D01*
X79640Y173200D02*
X178740D01*
X79640Y172400D02*
X178680D01*
X79640Y172000D02*
X178651D01*
X79640Y158000D02*
X178901D01*
X79640Y158400D02*
X178642D01*
X79640Y176800D02*
X179006D01*
X79640Y176400D02*
X178977D01*
X79640Y174400D02*
X178829D01*
X79640Y174000D02*
X178799D01*
X79640Y173600D02*
X178769D01*
X79640Y163600D02*
X178029D01*
X79640Y163200D02*
X177999D01*
X79640Y162800D02*
X177969D01*
X79640Y158800D02*
X177992D01*
X79640Y162400D02*
X177940D01*
X79640Y171600D02*
X178621D01*
X79640Y171200D02*
X178592D01*
X79640Y168800D02*
X178414D01*
X79640Y168400D02*
X178384D01*
X79640Y168000D02*
X178355D01*
X79640Y152000D02*
X177169D01*
X79640Y151600D02*
X177140D01*
X79640Y151400D02*
X135000D01*
X79640Y156800D02*
X178304D01*
X79640Y154400D02*
X177347D01*
X79640Y153600D02*
X177288D01*
X79640Y153200D02*
X177258D01*
X79640Y152800D02*
X177228D01*
X155442Y145600D02*
X176695D01*
X155986Y145200D02*
X176666D01*
X156226Y144800D02*
X176636D01*
X156322Y144400D02*
X176606D01*
X156304Y144000D02*
X176577D01*
X140699Y145600D02*
X154315D01*
X150542Y145200D02*
X153771D01*
X151037Y144800D02*
X153531D01*
X151347Y144000D02*
X153453D01*
X151261Y144400D02*
X153435D01*
X156167Y143600D02*
X176547D01*
X151170Y143200D02*
X153893D01*
X151319Y143600D02*
X153589D01*
X155863Y143200D02*
X176517D01*
X150845Y142800D02*
X176488D01*
X135900Y128400D02*
X175421D01*
X135900Y128000D02*
X175391D01*
X135900Y127600D02*
X175362D01*
X135900Y127200D02*
X175332D01*
X135900Y126800D02*
X175303D01*
X145845Y145200D02*
X149258D01*
X146170Y144800D02*
X148763D01*
X141344Y144400D02*
X143481D01*
X136109Y145200D02*
X138689D01*
X141099D02*
X143955D01*
X136294Y144800D02*
X138502D01*
X141286D02*
X143630D01*
X136350Y144400D02*
X138444D01*
X146319D02*
X148539D01*
X146261Y143600D02*
X148481D01*
X146347Y144000D02*
X148453D01*
X145542Y142800D02*
X148955D01*
X146037Y143200D02*
X148630D01*
X141289Y144000D02*
X143453D01*
X136109Y143600D02*
X138681D01*
X136294Y144000D02*
X138499D01*
X140717Y143200D02*
X143763D01*
X141107Y143600D02*
X143539D01*
X135900Y124400D02*
X175125D01*
X135900Y124000D02*
X175095D01*
X135900Y123600D02*
X175066D01*
X135900Y123200D02*
X175036D01*
X135900Y122800D02*
X175006D01*
X135900Y126400D02*
X175273D01*
X135900Y126000D02*
X175243D01*
X135900Y125600D02*
X175214D01*
X135900Y125200D02*
X175184D01*
X135900Y124800D02*
X175154D01*
X135900Y120400D02*
X174829D01*
X135900Y120000D02*
X174799D01*
X135900Y119600D02*
X174769D01*
X135900Y119200D02*
X174740D01*
X135900Y118800D02*
X174710D01*
X135900Y122400D02*
X174977D01*
X135900Y122000D02*
X174947D01*
X135900Y121600D02*
X174917D01*
X135900Y121200D02*
X174888D01*
X135900Y120800D02*
X174858D01*
X135900Y116000D02*
X174503D01*
X135900Y115600D02*
X174473D01*
X135900Y115200D02*
X174443D01*
X135900Y114800D02*
X174414D01*
X135900Y114400D02*
X174384D01*
X135900Y118400D02*
X174680D01*
X135900Y118000D02*
X174651D01*
X135900Y117200D02*
X174592D01*
X135900Y116800D02*
X174562D01*
X135900Y116400D02*
X174532D01*
X135900Y112000D02*
X174206D01*
X135900Y111600D02*
X174177D01*
X135900Y111200D02*
X174147D01*
X135900Y110800D02*
X174117D01*
X135900Y110400D02*
X174088D01*
X135900Y114000D02*
X174355D01*
X135900Y113600D02*
X174325D01*
X135900Y113200D02*
X174295D01*
X135900Y112800D02*
X174266D01*
X135900Y112400D02*
X174236D01*
X135900Y140400D02*
X176310D01*
X135900Y140000D02*
X176280D01*
X135900Y139600D02*
X176251D01*
X135900Y139200D02*
X176221D01*
X135900Y138800D02*
X176191D01*
X135900Y138400D02*
X176162D01*
X135900Y142400D02*
X176458D01*
X135900Y142000D02*
X176428D01*
X135900Y141600D02*
X176399D01*
X135900Y141200D02*
X176369D01*
X135900Y140800D02*
X176340D01*
X135900Y136000D02*
X175984D01*
X135900Y135600D02*
X175954D01*
X135900Y135200D02*
X175925D01*
X135900Y134800D02*
X175895D01*
X135900Y134400D02*
X175866D01*
X135900Y138000D02*
X176132D01*
X135900Y137600D02*
X176103D01*
X135900Y137200D02*
X176073D01*
X135900Y136800D02*
X176043D01*
X135900Y136400D02*
X176014D01*
X135866Y145600D02*
X139089D01*
X135866Y143200D02*
X139071D01*
X135900Y134000D02*
X175836D01*
X135900Y142800D02*
X144258D01*
X121400Y130719D02*
Y134000D01*
X79640D02*
X121400D01*
X135900Y131600D02*
X175658D01*
X135900Y131200D02*
X175628D01*
X135900Y130800D02*
X175599D01*
X135900Y130400D02*
X175569D01*
X135900Y130000D02*
X175540D01*
X135900Y133600D02*
X175806D01*
X135900Y133200D02*
X175777D01*
X135900Y132800D02*
X175747D01*
X135900Y132400D02*
X175717D01*
X135900Y132000D02*
X175688D01*
X135900Y129600D02*
X175510D01*
X135900Y129200D02*
X175480D01*
X135900Y128800D02*
X175451D01*
X135900Y117600D02*
X174621D01*
X117400Y114400D02*
X121400D01*
X117400Y116000D02*
X121400D01*
X117400Y115600D02*
X121400D01*
X117400Y116400D02*
X121400D01*
X117400Y114800D02*
X121400D01*
X117400Y115200D02*
X121400D01*
X117359Y113600D02*
X121400D01*
X117311Y113200D02*
X121400D01*
X117400Y114000D02*
X121400D01*
X135900Y110000D02*
X174058D01*
X117263Y112800D02*
X121400D01*
X117168Y112000D02*
X121400D01*
X117120Y111600D02*
X121400D01*
X117215Y112400D02*
X121400D01*
X116929Y110000D02*
X121400D01*
X117072Y111200D02*
X121400D01*
X115673Y119600D02*
X121400D01*
X116073Y119200D02*
X121400D01*
X116473Y118800D02*
X121400D01*
X115636Y119636D02*
X117136Y118136D01*
X106400Y119900D02*
X115000D01*
X117394Y117600D02*
X121400D01*
X117400Y117200D02*
X121400D01*
X117248Y118000D02*
X121400D01*
X117400Y116800D02*
X121400D01*
X117400Y114000D02*
Y117500D01*
X116873Y118400D02*
X121400D01*
X116976Y110400D02*
X121400D01*
X117024Y110800D02*
X121400D01*
X201687Y98800D02*
X236221D01*
X201687Y98400D02*
X236221D01*
X201687Y99200D02*
X236221D01*
X201687Y97600D02*
X236221D01*
X201687Y97200D02*
X236221D01*
X201687Y98000D02*
X236221D01*
X201687Y100800D02*
X236221D01*
X201687Y100400D02*
X236221D01*
X201687Y101200D02*
X236221D01*
X201687Y99600D02*
X236221D01*
X201687Y100000D02*
X236221D01*
X201687Y94400D02*
X236221D01*
X201687Y94000D02*
X236221D01*
X201687Y94800D02*
X236221D01*
X201687Y93200D02*
X236221D01*
X201687Y93600D02*
X236221D01*
X201687Y96400D02*
X236221D01*
X201687Y96000D02*
X236221D01*
X201687Y96800D02*
X236221D01*
X201687Y95200D02*
X236221D01*
X201687Y95600D02*
X236221D01*
X201687Y106800D02*
X236221D01*
X201687Y106400D02*
X236221D01*
X201687Y107200D02*
X236221D01*
X201687Y105600D02*
X236221D01*
X201687Y106000D02*
X236221D01*
X201687Y108800D02*
X236221D01*
X201687Y108400D02*
X236221D01*
X201687Y109200D02*
X236221D01*
X201687Y107600D02*
X236221D01*
X201687Y108000D02*
X236221D01*
X201687Y102800D02*
X236221D01*
X201687Y102400D02*
X236221D01*
X201687Y103200D02*
X236221D01*
X201687Y101600D02*
X236221D01*
X201687Y102000D02*
X236221D01*
X201687Y104800D02*
X236221D01*
X201687Y104400D02*
X236221D01*
X201687Y105200D02*
X236221D01*
X201687Y103600D02*
X236221D01*
X201687Y104000D02*
X236221D01*
X209839Y61200D02*
X236221D01*
X209750Y60800D02*
X236221D01*
X209839Y61600D02*
X236221D01*
Y0D02*
Y236221D01*
X209556Y60400D02*
X236221D01*
X201687Y92400D02*
X236221D01*
X201687Y92000D02*
X236221D01*
X201687Y92800D02*
X236221D01*
X208427Y59600D02*
X236221D01*
X209209Y60000D02*
X236221D01*
X209839Y57200D02*
X236221D01*
X209839Y56800D02*
X236221D01*
X209750Y57600D02*
X236221D01*
X209556Y56000D02*
X236221D01*
X209750Y56400D02*
X236221D01*
X209209Y58400D02*
X236221D01*
X209556Y58000D02*
X236221D01*
X208427Y58800D02*
X236221D01*
X208427Y55200D02*
X236221D01*
X209209Y55600D02*
X236221D01*
X202449Y90400D02*
X236221D01*
X202494Y90000D02*
X236221D01*
X202166Y90800D02*
X236221D01*
X201973Y89200D02*
X236221D01*
X202348Y89600D02*
X236221D01*
X201687Y91200D02*
X236221D01*
X201687Y88800D02*
X236221D01*
X201687Y91600D02*
X236221D01*
X201687Y88000D02*
X236221D01*
X201687Y88400D02*
X236221D01*
X209209Y62800D02*
X236221D01*
X209556Y62400D02*
X236221D01*
X208427Y63200D02*
X236221D01*
X209750Y62000D02*
X236221D01*
X201687Y87200D02*
X236221D01*
X201687Y86800D02*
X236221D01*
X201687Y87600D02*
X236221D01*
X132700Y76000D02*
X236221D01*
X132700Y75600D02*
X236221D01*
X132700Y76400D02*
X236221D01*
X132700Y74800D02*
X236221D01*
X132700Y74400D02*
X236221D01*
X132700Y75200D02*
X236221D01*
X132700Y78000D02*
X236221D01*
X132700Y77600D02*
X236221D01*
X132700Y78400D02*
X236221D01*
X132700Y76800D02*
X236221D01*
X132700Y77200D02*
X236221D01*
X132700Y71600D02*
X236221D01*
X132700Y71200D02*
X236221D01*
X132700Y72000D02*
X236221D01*
X132700Y70400D02*
X236221D01*
X132700Y70800D02*
X236221D01*
X132700Y73600D02*
X236221D01*
X132700Y73200D02*
X236221D01*
X132700Y74000D02*
X236221D01*
X132700Y72400D02*
X236221D01*
X132700Y72800D02*
X236221D01*
X201445Y86000D02*
X236221D01*
X132700Y83600D02*
X236221D01*
X201662Y86400D02*
X236221D01*
X132700Y82800D02*
X236221D01*
X132700Y83200D02*
X236221D01*
X132700Y85200D02*
X236221D01*
X132700Y84800D02*
X236221D01*
X132700Y85600D02*
X236221D01*
X132700Y84000D02*
X236221D01*
X132700Y84400D02*
X236221D01*
X132700Y80000D02*
X236221D01*
X132700Y79600D02*
X236221D01*
X132700Y80400D02*
X236221D01*
X132700Y78800D02*
X236221D01*
X132700Y79200D02*
X236221D01*
X132700Y82000D02*
X236221D01*
X132700Y81600D02*
X236221D01*
X132700Y82400D02*
X236221D01*
X132700Y80800D02*
X236221D01*
X132700Y81200D02*
X236221D01*
X132700Y68400D02*
X236221D01*
X132700Y68000D02*
X236221D01*
X132700Y68800D02*
X236221D01*
X132700Y67200D02*
X236221D01*
X132700Y67600D02*
X236221D01*
X132700Y69600D02*
X236221D01*
X132700Y69200D02*
X236221D01*
X132700Y70000D02*
X236221D01*
X132471Y66400D02*
X236221D01*
X132677Y66800D02*
X236221D01*
X131673Y65600D02*
X236221D01*
X131273Y65200D02*
X236221D01*
X132073Y66000D02*
X236221D01*
X130473Y64400D02*
X236221D01*
X130873Y64800D02*
X236221D01*
X129673Y63600D02*
X236221D01*
X114600Y59200D02*
X236221D01*
X130073Y64000D02*
X236221D01*
X117578Y54800D02*
X236221D01*
X117371Y54400D02*
X207573D01*
X129273Y63200D02*
X207573D01*
X128873Y62800D02*
X206791D01*
X128473Y62400D02*
X206444D01*
X128073Y62000D02*
X206250D01*
X127673Y61600D02*
X206161D01*
X114600Y60800D02*
X206250D01*
X114600Y60400D02*
X206444D01*
X126900Y61200D02*
X206161D01*
X114600Y59600D02*
X207573D01*
X114600Y60000D02*
X206791D01*
X116573Y56400D02*
X206250D01*
X116973Y56000D02*
X206444D01*
X116173Y56800D02*
X206161D01*
X117578Y55200D02*
X207573D01*
X117371Y55600D02*
X206791D01*
X114600Y58800D02*
X207573D01*
X114600Y58400D02*
X206791D01*
X114973Y58000D02*
X206444D01*
X115373Y57600D02*
X206250D01*
X115773Y57200D02*
X206161D01*
X209839Y52400D02*
X236221D01*
X209750Y52000D02*
X236221D01*
X209839Y52800D02*
X236221D01*
X223704Y22000D02*
X236221D01*
X223704Y21600D02*
X236221D01*
X223704Y22400D02*
X236221D01*
X209209Y54000D02*
X236221D01*
X209556Y53600D02*
X236221D01*
X208427Y54400D02*
X236221D01*
X209556Y51600D02*
X236221D01*
X209750Y53200D02*
X236221D01*
X223704Y18800D02*
X236221D01*
X223704Y18400D02*
X236221D01*
X223704Y19200D02*
X236221D01*
X223704Y17600D02*
X236221D01*
X223704Y18000D02*
X236221D01*
X223704Y20800D02*
X236221D01*
X223704Y20400D02*
X236221D01*
X223704Y21200D02*
X236221D01*
X223704Y19600D02*
X236221D01*
X223704Y20000D02*
X236221D01*
X209209Y51200D02*
X236221D01*
X223704Y24400D02*
X236221D01*
X216499Y24535D02*
X223704D01*
Y23600D02*
X236221D01*
X223704Y24000D02*
X236221D01*
X117000Y25600D02*
X236221D01*
X117000Y25200D02*
X236221D01*
X208427Y50800D02*
X236221D01*
X117000Y24800D02*
X236221D01*
X117000Y24400D02*
X216499D01*
X223704Y23200D02*
X236221D01*
X223704Y22800D02*
X236221D01*
X181600Y18000D02*
X216499D01*
Y17330D02*
X223704D01*
X181600Y17600D02*
X216499D01*
X181448Y19600D02*
X216499D01*
X181594Y19200D02*
X216499D01*
X180700Y20000D02*
X216499D01*
X181600Y18400D02*
X216499D01*
X181600Y18800D02*
X216499D01*
X181418Y9600D02*
X236221D01*
X181385Y9200D02*
X236221D01*
X181390Y10000D02*
X236221D01*
X181020Y8400D02*
X236221D01*
X181239Y8800D02*
X236221D01*
X180182Y7600D02*
X236221D01*
X180090Y7200D02*
X236221D01*
X180622Y8000D02*
X236221D01*
X179358Y6400D02*
X236221D01*
X179758Y6800D02*
X236221D01*
X178558Y5600D02*
X236221D01*
X178158Y5200D02*
X236221D01*
X178958Y6000D02*
X236221D01*
X177358Y4400D02*
X236221D01*
X177758Y4800D02*
X236221D01*
X176558Y3600D02*
X236221D01*
X176158Y3200D02*
X236221D01*
X176958Y4000D02*
X236221D01*
X175358Y2400D02*
X236221D01*
X175758Y2800D02*
X236221D01*
X223704Y17330D02*
Y24535D01*
X181600Y15200D02*
X236221D01*
X216499Y17330D02*
Y24535D01*
X181600Y14400D02*
X236221D01*
X181600Y14800D02*
X236221D01*
X181600Y16800D02*
X236221D01*
X181600Y16400D02*
X236221D01*
X181600Y17200D02*
X236221D01*
X181600Y15600D02*
X236221D01*
X181600Y16000D02*
X236221D01*
X181600Y12000D02*
X236221D01*
X181778Y11600D02*
X236221D01*
X181600Y12400D02*
X236221D01*
X181675Y10800D02*
X236221D01*
X181778Y11200D02*
X236221D01*
X181600Y13600D02*
X236221D01*
X181600Y13200D02*
X236221D01*
X181600Y14000D02*
X236221D01*
X181439Y10400D02*
X236221D01*
X181600Y12800D02*
X236221D01*
X117000Y43600D02*
X236221D01*
X117000Y43200D02*
X236221D01*
X117000Y44000D02*
X236221D01*
X117000Y42400D02*
X236221D01*
X117000Y42000D02*
X236221D01*
X117000Y42800D02*
X236221D01*
X117000Y45600D02*
X236221D01*
X117000Y45200D02*
X236221D01*
X117000Y46000D02*
X236221D01*
X117000Y44400D02*
X236221D01*
X117000Y44800D02*
X236221D01*
X117000Y39200D02*
X236221D01*
X117000Y38800D02*
X236221D01*
X117000Y39600D02*
X236221D01*
X117000Y38000D02*
X236221D01*
X117000Y38400D02*
X236221D01*
X117000Y41200D02*
X236221D01*
X117000Y40800D02*
X236221D01*
X117000Y41600D02*
X236221D01*
X117000Y40000D02*
X236221D01*
X117000Y40400D02*
X236221D01*
X117000Y51600D02*
X206444D01*
X117000Y51200D02*
X206791D01*
X117000Y52000D02*
X206250D01*
X117000Y50400D02*
X236221D01*
X117000Y50800D02*
X207573D01*
X117000Y54000D02*
X206791D01*
X117000Y53600D02*
X206444D01*
X117000Y53200D02*
X206250D01*
X117000Y52400D02*
X206161D01*
X117000Y52800D02*
X206161D01*
X117000Y47600D02*
X236221D01*
X117000Y47200D02*
X236221D01*
X117000Y48000D02*
X236221D01*
X117000Y46400D02*
X236221D01*
X117000Y46800D02*
X236221D01*
X117000Y49600D02*
X236221D01*
X117000Y49200D02*
X236221D01*
X117000Y50000D02*
X236221D01*
X117000Y48400D02*
X236221D01*
X117000Y48800D02*
X236221D01*
X117000Y35200D02*
X236221D01*
X117000Y34800D02*
X236221D01*
X117000Y35600D02*
X236221D01*
X117000Y34000D02*
X236221D01*
X117000Y34400D02*
X236221D01*
X117000Y37200D02*
X236221D01*
X117000Y36800D02*
X236221D01*
X117000Y37600D02*
X236221D01*
X117000Y36000D02*
X236221D01*
X117000Y36400D02*
X236221D01*
X117000Y27200D02*
X236221D01*
X117000Y26800D02*
X236221D01*
X117000Y27600D02*
X236221D01*
X117000Y26000D02*
X236221D01*
X117000Y26400D02*
X236221D01*
X117000Y29200D02*
X236221D01*
X117000Y28800D02*
X236221D01*
X117000Y29600D02*
X236221D01*
X117000Y28000D02*
X236221D01*
X117000Y28400D02*
X236221D01*
X117000Y31200D02*
X236221D01*
X117000Y30800D02*
X236221D01*
X117000Y31600D02*
X236221D01*
X117000Y30000D02*
X236221D01*
X117000Y30400D02*
X236221D01*
X117000Y33200D02*
X236221D01*
X117000Y32800D02*
X236221D01*
X117000Y33600D02*
X236221D01*
X117000Y32000D02*
X236221D01*
X117000Y32400D02*
X236221D01*
X117000Y22800D02*
X216499D01*
X117000Y22400D02*
X216499D01*
X117000Y23200D02*
X216499D01*
X117000Y21600D02*
X216499D01*
X117000Y22000D02*
X216499D01*
X117000Y23600D02*
X216499D01*
X116978Y21200D02*
X216499D01*
X117000Y24000D02*
X216499D01*
X107700Y20400D02*
X216499D01*
X116771Y20800D02*
X216499D01*
X135900Y107600D02*
X173880D01*
X135900Y107200D02*
X173851D01*
X135900Y106800D02*
X173821D01*
X135900Y106400D02*
X173792D01*
X135900Y106000D02*
X173762D01*
X135900Y105600D02*
X173732D01*
X135900Y109600D02*
X174029D01*
X135900Y109200D02*
X173999D01*
X135900Y108800D02*
X173969D01*
X135900Y108400D02*
X173940D01*
X135900Y108000D02*
X173910D01*
X135900Y103200D02*
X173555D01*
X135900Y102800D02*
X173525D01*
X135900Y102400D02*
X173495D01*
X135900Y102000D02*
X173466D01*
X135900Y101600D02*
X173436D01*
X135900Y105200D02*
X173703D01*
X135900Y104800D02*
X173673D01*
X135900Y104400D02*
X173643D01*
X135900Y104000D02*
X173614D01*
X135900Y103600D02*
X173584D01*
X116833Y109200D02*
X121400D01*
X116786Y108800D02*
X121400D01*
X116881Y109600D02*
X121400D01*
X135900Y101600D02*
Y142953D01*
X121400Y101600D02*
Y127881D01*
X116690Y108000D02*
X121400D01*
X116642Y107600D02*
X121400D01*
X116738Y108400D02*
X121400D01*
X116595Y107200D02*
X121400D01*
X116594Y107195D02*
X117393Y113891D01*
X116448Y106800D02*
X121400D01*
X135900Y101600D02*
X173436D01*
X116200D02*
X121400D01*
X115673Y106000D02*
X121400D01*
X115273Y105600D02*
X121400D01*
X116073Y106400D02*
X121400D01*
X116200Y101600D02*
X121400D01*
X114873Y105200D02*
X121400D01*
X201687Y90996D02*
Y156120D01*
X173436Y101600D02*
X177462Y155950D01*
X139555Y92400D02*
X141445D01*
X139599Y92000D02*
X141401D01*
X139692Y92800D02*
X141308D01*
X139858Y91600D02*
X141142D01*
X201687Y88915D02*
X202236Y89464D01*
X201687Y86614D02*
Y88915D01*
X132700Y86000D02*
X172571D01*
X132773Y86300D02*
X172385D01*
X173228Y85714D02*
X200787D01*
X140196Y93200D02*
X140804D01*
X132700Y67000D02*
Y86227D01*
X127536Y61464D02*
X132436Y66364D01*
X114664Y100436D02*
X115564Y101336D01*
X115300Y61200D02*
X126900D01*
X115300D02*
X126900D01*
X114600D02*
X115300D01*
X117000Y54027D02*
X117336Y54364D01*
X117000Y21400D02*
Y54027D01*
X114600Y103200D02*
X121400D01*
X114600Y102800D02*
X121400D01*
X114600Y103600D02*
X121400D01*
X114600Y102400D02*
X121400D01*
X114600Y102000D02*
X121400D01*
X114600Y101600D02*
X116200D01*
X114600Y104800D02*
X121400D01*
X114600Y104400D02*
X121400D01*
X114600Y104927D02*
X116336Y106664D01*
X114600Y104000D02*
X121400D01*
X114600Y100366D02*
Y104927D01*
Y101200D02*
X115427D01*
X114600Y100800D02*
X115027D01*
X110617Y86000D02*
X112383D01*
X110551Y75200D02*
X112449D01*
X110617Y74800D02*
X112383D01*
X110550Y80400D02*
X112450D01*
X110551Y85600D02*
X112449D01*
X110988Y81200D02*
X112012D01*
X110988Y79600D02*
X112012D01*
X111076Y84800D02*
X111924D01*
X110917Y74400D02*
X112083D01*
X111076Y76000D02*
X111924D01*
X110663Y85200D02*
X112337D01*
X110638Y80800D02*
X112362D01*
X110917Y86400D02*
X112083D01*
X110638Y80000D02*
X112362D01*
X110663Y75600D02*
X112337D01*
X86700Y62800D02*
X105500D01*
X86700Y62400D02*
X105500D01*
X86700Y63200D02*
X105500D01*
X86700Y61600D02*
X105500D01*
X86700Y62000D02*
X105500D01*
X86471Y64400D02*
X105500D01*
X86677Y64000D02*
X105500D01*
X86700Y63600D02*
X105500D01*
X114600Y58373D02*
X117336Y55636D01*
X114600Y58373D02*
Y61534D01*
X86700Y52000D02*
X105500D01*
X86700Y52400D02*
X105500D01*
X86700Y54000D02*
X105500D01*
X86700Y53600D02*
X105500D01*
X86700Y54400D02*
X105500D01*
X86700Y52800D02*
X105500D01*
X86700Y53200D02*
X105500D01*
X86700Y49200D02*
X105500D01*
X86700Y48800D02*
X105500D01*
X86700Y49600D02*
X105500D01*
X86700Y48000D02*
X105500D01*
X86700Y48400D02*
X105500D01*
X86700Y51200D02*
X105500D01*
X86700Y50800D02*
X105500D01*
X86700Y51600D02*
X105500D01*
X86700Y50000D02*
X105500D01*
X86700Y50400D02*
X105500D01*
X86700Y59200D02*
X105500D01*
X86700Y58800D02*
X105500D01*
X86700Y59600D02*
X105500D01*
Y22600D02*
Y119000D01*
X86700Y58400D02*
X105500D01*
X86700Y60800D02*
X105500D01*
X86700Y60400D02*
X105500D01*
X86700Y61200D02*
X105500D01*
X86700Y60000D02*
X105500D01*
X86700Y44566D02*
Y63800D01*
Y55600D02*
X105500D01*
X86700Y55200D02*
X105500D01*
X86700Y56000D02*
X105500D01*
X86700Y47600D02*
X105500D01*
X86700Y54800D02*
X105500D01*
X86700Y57600D02*
X105500D01*
X86700Y57200D02*
X105500D01*
X86700Y58000D02*
X105500D01*
X86700Y56400D02*
X105500D01*
X86700Y56800D02*
X105500D01*
X181600Y11966D02*
Y19100D01*
X181681Y10819D02*
X181772Y11177D01*
X88573Y20000D02*
X180700D01*
X88573D02*
X180700D01*
X150531Y11200D02*
X151414D01*
X149737Y10800D02*
X152208D01*
X149176Y10000D02*
X152769D01*
X149075Y9600D02*
X152870D01*
X149380Y10400D02*
X152565D01*
X181145Y8582D02*
X181359Y9080D01*
X180614Y7992D02*
X181000Y8371D01*
X149057Y8800D02*
X152888D01*
X149057Y8400D02*
X152888D01*
X149057Y9200D02*
X152888D01*
X149057Y7600D02*
X152888D01*
X149057Y8000D02*
X152888D01*
X108112Y20500D02*
X116100D01*
X105764Y21964D02*
X107064Y20664D01*
X87773Y20800D02*
X106927D01*
X88173Y20400D02*
X107700D01*
X89946Y10800D02*
X92416D01*
X89588Y10400D02*
X92774D01*
X90740Y11200D02*
X91622D01*
X89284Y9600D02*
X93078D01*
X89384Y10000D02*
X92978D01*
X89266Y8800D02*
X93096D01*
X89266Y8400D02*
X93096D01*
X89266Y9200D02*
X93096D01*
X89266Y7600D02*
X93096D01*
X89266Y8000D02*
X93096D01*
X152888Y5793D02*
Y9336D01*
X149151Y5200D02*
X152794D01*
X175322Y2364D02*
X179918Y6960D01*
X149057Y6800D02*
X152888D01*
X149057Y6400D02*
X152888D01*
X149057Y7200D02*
X152888D01*
X149057Y6000D02*
X152888D01*
X149067Y5600D02*
X152878D01*
X151328Y2100D02*
X174685D01*
X149335Y4800D02*
X152610D01*
X149658Y4400D02*
X152287D01*
X150299Y4000D02*
X151646D01*
X93096Y5793D02*
Y9336D01*
X149057Y5793D02*
Y9336D01*
X89266Y6800D02*
X93096D01*
X89266Y6400D02*
X93096D01*
X89266Y7200D02*
X93096D01*
X89266Y6000D02*
X93096D01*
X89266Y5793D02*
Y9336D01*
X91536Y2100D02*
X150617D01*
X89275Y5600D02*
X93087D01*
X89360Y5200D02*
X93002D01*
X89543Y4800D02*
X92819D01*
X89866Y4400D02*
X92496D01*
X90507Y4000D02*
X91855D01*
X86700Y40800D02*
X105500D01*
X86700Y40400D02*
X105500D01*
X86700Y41200D02*
X105500D01*
X86700Y39600D02*
X105500D01*
X86700Y39200D02*
X105500D01*
X86700Y40000D02*
X105500D01*
X86700Y46800D02*
X105500D01*
X86700Y42400D02*
X105500D01*
X86700Y47200D02*
X105500D01*
X86700Y41600D02*
X105500D01*
X86700Y42000D02*
X105500D01*
X86700Y36400D02*
X105500D01*
X86700Y36000D02*
X105500D01*
X86700Y36800D02*
X105500D01*
X86700Y35200D02*
X105500D01*
X86700Y35600D02*
X105500D01*
X86700Y38400D02*
X105500D01*
X86700Y38000D02*
X105500D01*
X86700Y38800D02*
X105500D01*
X86700Y37200D02*
X105500D01*
X86700Y37600D02*
X105500D01*
X86700Y46000D02*
X105500D01*
X86700Y45600D02*
X105500D01*
X86700Y46400D02*
X105500D01*
X86700Y44800D02*
X105500D01*
X86700Y45200D02*
X105500D01*
X86685Y44400D02*
X105500D01*
X83600D02*
X84780D01*
X86078Y43600D02*
X105500D01*
X86576Y43200D02*
X105500D01*
X86500Y44000D02*
X105500D01*
X86698Y42800D02*
X105500D01*
X83305Y44000D02*
X85101D01*
X83242Y43600D02*
X85522D01*
X83356Y43200D02*
X85024D01*
X83776Y42800D02*
X84604D01*
X86700Y26400D02*
X105500D01*
X86700Y26000D02*
X105500D01*
X86700Y26800D02*
X105500D01*
X86700Y25200D02*
X105500D01*
X86700Y25600D02*
X105500D01*
X86700Y34400D02*
X105500D01*
X86700Y34000D02*
X105500D01*
X86700Y34800D02*
X105500D01*
X86700Y33200D02*
X105500D01*
X86700Y33600D02*
X105500D01*
X86700Y22400D02*
X105523D01*
X86700Y22000D02*
X105729D01*
X86700Y22800D02*
X105500D01*
X87373Y21200D02*
X106527D01*
X86973Y21600D02*
X106127D01*
X86700Y24400D02*
X105500D01*
X86700Y24000D02*
X105500D01*
X86700Y24800D02*
X105500D01*
X86700Y23200D02*
X105500D01*
X86700Y23600D02*
X105500D01*
X86700Y30800D02*
X105500D01*
X86700Y30400D02*
X105500D01*
X86700Y31200D02*
X105500D01*
X86700Y29600D02*
X105500D01*
X86700Y30000D02*
X105500D01*
X86700Y32400D02*
X105500D01*
X86700Y32000D02*
X105500D01*
X86700Y32800D02*
X105500D01*
X86700Y31600D02*
X105500D01*
X86700Y21873D02*
Y42744D01*
Y28000D02*
X105500D01*
X86700Y27600D02*
X105500D01*
X86700Y28400D02*
X105500D01*
X86700Y27200D02*
X105500D01*
X86700Y21873D02*
X88573Y20000D01*
X86700Y29200D02*
X105500D01*
X86700Y28800D02*
X105500D01*
X83800Y2100D02*
X90826D01*
X57700Y210000D02*
X82743D01*
X57700D02*
X82743D01*
X54482Y205361D02*
X56800Y207679D01*
Y209100D01*
X0Y206400D02*
X55521D01*
X0Y206000D02*
X55121D01*
X0Y205600D02*
X54721D01*
X19750Y184000D02*
X54218D01*
X79640Y178800D02*
X179155D01*
X19789Y184400D02*
X54218D01*
X79640Y178400D02*
X179125D01*
X79640Y178000D02*
X179095D01*
X0Y205200D02*
X54354D01*
X0Y204800D02*
X54221D01*
X19672Y183600D02*
X54218D01*
X18530Y177600D02*
X54218D01*
X19553Y183200D02*
X54218D01*
X19672Y185600D02*
X54218D01*
X19750Y185200D02*
X54218D01*
X19553Y186000D02*
X54218D01*
X19387Y182800D02*
X54218D01*
X19789Y184800D02*
X54218D01*
X18890Y187200D02*
X54218D01*
X19170Y186800D02*
X54218D01*
X18530Y187600D02*
X54218D01*
X19170Y182400D02*
X54218D01*
X19387Y186400D02*
X54218D01*
X18530Y181600D02*
X54218D01*
X18054Y181200D02*
X54218D01*
X18890Y182000D02*
X54218D01*
X18054Y178000D02*
X54218D01*
X17373Y178400D02*
X54218D01*
X0Y180400D02*
X54218D01*
X0Y180000D02*
X54218D01*
X17373Y180800D02*
X54218D01*
X0Y179200D02*
X54218D01*
X0Y179600D02*
X54218D01*
X79640Y175600D02*
X178917D01*
X79640Y175200D02*
X178888D01*
X79640Y174800D02*
X178858D01*
X79640Y172800D02*
X178710D01*
X79640Y170800D02*
X178562D01*
X79640Y170400D02*
X178532D01*
X79640Y177600D02*
X179066D01*
X79640Y177200D02*
X179036D01*
X79640Y176000D02*
X178947D01*
X79640Y151400D02*
Y192541D01*
X54218Y158254D02*
Y196850D01*
X79640Y169200D02*
X178443D01*
X79640Y167600D02*
X178325D01*
X79640Y167200D02*
X178295D01*
X79640Y166800D02*
X178266D01*
X79640Y166400D02*
X178236D01*
X79640Y170000D02*
X178503D01*
X79640Y169600D02*
X178473D01*
X18890Y167200D02*
X54218D01*
X19387Y166400D02*
X54218D01*
X19170Y166800D02*
X54218D01*
X19789Y174800D02*
X54218D01*
X19789Y174400D02*
X54218D01*
X19750Y175200D02*
X54218D01*
X19672Y173600D02*
X54218D01*
X19750Y174000D02*
X54218D01*
X19170Y176800D02*
X54218D01*
X19387Y176400D02*
X54218D01*
X18890Y177200D02*
X54218D01*
X19672Y175600D02*
X54218D01*
X19553Y176000D02*
X54218D01*
X19387Y172800D02*
X54218D01*
X19170Y172400D02*
X54218D01*
X19553Y173200D02*
X54218D01*
X18530Y167600D02*
X54218D01*
X18890Y172000D02*
X54218D01*
X18054Y171200D02*
X54218D01*
X17373Y170800D02*
X54218D01*
X18530Y171600D02*
X54218D01*
X18054Y168000D02*
X54218D01*
X17373Y168400D02*
X54218D01*
X0Y226000D02*
X91337D01*
X0Y225600D02*
X91337D01*
X0Y226400D02*
X91337D01*
X0Y224800D02*
X91337D01*
X0Y224400D02*
X91337D01*
X0Y225200D02*
X91337D01*
X0Y236221D02*
X91381D01*
X0Y227600D02*
X91337D01*
X0Y228000D02*
X91337D01*
X0Y226800D02*
X91337D01*
X0Y227200D02*
X91337D01*
X0Y221600D02*
X91337D01*
X0Y221200D02*
X91337D01*
X0Y222000D02*
X91337D01*
X0Y220400D02*
X91337D01*
X0Y220800D02*
X91337D01*
X0Y223600D02*
X91337D01*
X0Y223200D02*
X91337D01*
X0Y224000D02*
X91337D01*
X0Y222400D02*
X91337D01*
X0Y222800D02*
X91337D01*
X0Y233600D02*
X91337D01*
X0Y233200D02*
X91337D01*
X0Y234000D02*
X91337D01*
X0Y232400D02*
X91337D01*
X0Y232800D02*
X91337D01*
X0Y235600D02*
X91337D01*
X0Y235200D02*
X91337D01*
X0Y236000D02*
X91337D01*
X0Y234400D02*
X91337D01*
X0Y234800D02*
X91337D01*
X0Y229600D02*
X91337D01*
X0Y229200D02*
X91337D01*
X0Y230000D02*
X91337D01*
X0Y228400D02*
X91337D01*
X0Y228800D02*
X91337D01*
X0Y231600D02*
X91337D01*
X0Y231200D02*
X91337D01*
X0Y232000D02*
X91337D01*
X0Y230400D02*
X91337D01*
X0Y230800D02*
X91337D01*
X0Y218000D02*
X91337D01*
X0Y217600D02*
X91337D01*
X0Y217200D02*
X89944D01*
X0Y216800D02*
X89543D01*
X0Y216400D02*
X89143D01*
X0Y219600D02*
X91337D01*
X0Y219200D02*
X91337D01*
X0Y220000D02*
X91337D01*
X0Y218400D02*
X91337D01*
X0Y218800D02*
X91337D01*
X0Y214000D02*
X86743D01*
X0Y213600D02*
X86343D01*
X0Y213200D02*
X85943D01*
X0Y212800D02*
X85543D01*
X0Y212400D02*
X85143D01*
X0Y216000D02*
X88743D01*
X0Y215600D02*
X88343D01*
X0Y215200D02*
X87943D01*
X0Y214800D02*
X87543D01*
X0Y214400D02*
X87143D01*
X0Y210000D02*
X57700D01*
X0Y209600D02*
X56952D01*
X0Y209200D02*
X56806D01*
X0Y208400D02*
X56800D01*
X0Y208800D02*
X56800D01*
X0Y212000D02*
X84743D01*
X0Y211600D02*
X84343D01*
X0Y211200D02*
X83943D01*
X0Y210800D02*
X83543D01*
X0Y210400D02*
X83143D01*
X0Y170000D02*
X54218D01*
X0Y169600D02*
X54218D01*
X0Y170400D02*
X54218D01*
X0Y168800D02*
X54218D01*
X0Y169200D02*
X54218D01*
X0Y208000D02*
X56800D01*
X0Y207600D02*
X56721D01*
X0Y207200D02*
X56321D01*
X0Y206800D02*
X55921D01*
X0Y178800D02*
X54218D01*
X79640Y164000D02*
X178058D01*
X79640Y162000D02*
X177910D01*
X79640Y161600D02*
X177880D01*
X79640Y161200D02*
X177851D01*
X79640Y160800D02*
X177821D01*
X79640Y160400D02*
X177792D01*
X79640Y166000D02*
X178206D01*
X79640Y165600D02*
X178177D01*
X79640Y165200D02*
X178147D01*
X79640Y164800D02*
X178117D01*
X79640Y164400D02*
X178088D01*
X79640Y159200D02*
X177756D01*
X79640Y157600D02*
X178945D01*
X79640Y159600D02*
X177732D01*
X79640Y157200D02*
X178808D01*
X79640Y156400D02*
X177621D01*
X79640Y160000D02*
X177762D01*
X70855Y157200D02*
X72745D01*
X70899Y157600D02*
X72701D01*
X70992Y156800D02*
X72608D01*
X66591Y158000D02*
X67876D01*
X71158D02*
X72442D01*
X62024D02*
X63309D01*
X66332Y157600D02*
X68135D01*
X57199D02*
X59001D01*
X61765D02*
X63568D01*
X57458Y158000D02*
X58742D01*
X66289Y157200D02*
X68178D01*
X66426Y156800D02*
X68041D01*
X62362Y156400D02*
X62971D01*
X71496D02*
X72104D01*
X66929D02*
X67537D01*
X57155Y157200D02*
X59045D01*
X61722D02*
X63611D01*
X57292Y156800D02*
X58908D01*
X61859D02*
X63474D01*
X57796Y156400D02*
X58404D01*
X79640Y155600D02*
X177436D01*
X79640Y155200D02*
X177406D01*
X79640Y154800D02*
X177377D01*
X79640Y154000D02*
X177317D01*
X79640Y152400D02*
X177199D01*
X79640Y156000D02*
X177467D01*
X61473Y132400D02*
X121400D01*
X61873Y132800D02*
X121400D01*
X60673Y131600D02*
X121400D01*
X61073Y132000D02*
X121400D01*
X59873Y130800D02*
X121400D01*
X56673Y127600D02*
X121400D01*
X60273Y131200D02*
X121400D01*
X55873Y126800D02*
X121400D01*
X56273Y127200D02*
X121400D01*
X55073Y126000D02*
X121400D01*
X54673Y125600D02*
X121400D01*
X55473Y126400D02*
X121400D01*
X54500Y124800D02*
X121400D01*
X54500Y125200D02*
X121400D01*
X79602Y133600D02*
X121400D01*
X79354Y133200D02*
X121400D01*
X79640Y134000D02*
X121400D01*
X59473Y130400D02*
X120755D01*
X59073Y130000D02*
X120430D01*
X62031Y132958D02*
X78740D01*
X58673Y129600D02*
X120281D01*
X54500Y125427D02*
X62031Y132958D01*
X58273Y129200D02*
X120253D01*
X74109Y112400D02*
X105500D01*
X73714Y112800D02*
X105500D01*
X74350Y111600D02*
X105500D01*
X74294Y112000D02*
X105500D01*
X57473Y128400D02*
X120563D01*
X57073Y128000D02*
X121058D01*
X57873Y128800D02*
X120339D01*
X54500Y118000D02*
X105500D01*
X54500Y111600D02*
X71450D01*
X18530Y157600D02*
X54435D01*
X18890Y157200D02*
X54478D01*
X18054Y158000D02*
X54255D01*
X19170Y156800D02*
X54341D01*
X19387Y156400D02*
X54220D01*
X31794Y153200D02*
X54218D01*
X31850Y152800D02*
X54218D01*
X31214Y154000D02*
X54218D01*
X31609Y152000D02*
X54218D01*
X31794Y152400D02*
X54218D01*
X19672Y155600D02*
X54218D01*
X19750Y155200D02*
X54218D01*
X19553Y156000D02*
X54218D01*
X19789Y154400D02*
X54218D01*
X19789Y154800D02*
X54218D01*
X19789Y164800D02*
X54218D01*
X19789Y164400D02*
X54218D01*
X19750Y165200D02*
X54218D01*
X19672Y163600D02*
X54218D01*
X19750Y164000D02*
X54218D01*
X19672Y165600D02*
X54218D01*
X19553Y163200D02*
X54218D01*
X19553Y166000D02*
X54218D01*
X19170Y162400D02*
X54218D01*
X19387Y162800D02*
X54218D01*
X18530Y161600D02*
X54218D01*
X18054Y161200D02*
X54218D01*
X18890Y162000D02*
X54218D01*
X17373Y158400D02*
X54218D01*
X17373Y160800D02*
X54218D01*
X0Y160000D02*
X54218D01*
X0Y159600D02*
X54218D01*
X0Y160400D02*
X54218D01*
X0Y158800D02*
X54218D01*
X0Y159200D02*
X54218D01*
X54500Y122000D02*
X121400D01*
X54500Y121600D02*
X121400D01*
X54500Y122400D02*
X121400D01*
X54500Y120800D02*
X121400D01*
X54500Y121200D02*
X121400D01*
X54500Y124000D02*
X121400D01*
X54500Y123600D02*
X121400D01*
X54500Y124400D02*
X121400D01*
X54500Y122800D02*
X121400D01*
X54500Y123200D02*
X121400D01*
X54500Y114400D02*
X105500D01*
X54500Y114000D02*
X105500D01*
X54500Y114800D02*
X105500D01*
X54500Y113200D02*
X105500D01*
X54500Y113600D02*
X105500D01*
X54500Y120400D02*
X121400D01*
X54500Y120000D02*
X121400D01*
X54500Y119600D02*
X105729D01*
X54500Y119200D02*
X105523D01*
X54500Y115200D02*
X105500D01*
X18054Y151200D02*
X54218D01*
X17373Y150800D02*
X54218D01*
X31214Y151600D02*
X54218D01*
X54500Y118800D02*
X105500D01*
X54218Y148791D02*
Y156346D01*
X0Y150000D02*
X54218D01*
X0Y149600D02*
X54218D01*
X0Y150400D02*
X54218D01*
X0Y148800D02*
X54218D01*
X0Y149200D02*
X54218D01*
X54500Y116000D02*
X105500D01*
X54500Y115600D02*
X105500D01*
X54500Y112800D02*
X72086D01*
X54500Y112400D02*
X71691D01*
X54500Y112000D02*
X71506D01*
X54500Y117600D02*
X105500D01*
X54500Y117200D02*
X105500D01*
X54500Y118400D02*
X105500D01*
X54500Y116400D02*
X105500D01*
X54500Y116800D02*
X105500D01*
X54218Y196850D02*
Y200787D01*
Y196850D02*
Y200787D01*
Y204724D01*
X17373Y188400D02*
X54218D01*
X18054Y188000D02*
X54218D01*
X0Y171200D02*
X13146D01*
X0Y171600D02*
X12670D01*
X0Y170800D02*
X13827D01*
X0Y160800D02*
X13827D01*
X0Y158400D02*
X13827D01*
X0Y158000D02*
X13146D01*
X0Y157600D02*
X12670D01*
X0Y157200D02*
X12310D01*
X0Y168400D02*
X13827D01*
X0Y168000D02*
X13146D01*
X0Y167600D02*
X12670D01*
X0Y161200D02*
X13146D01*
X0Y161600D02*
X12670D01*
X0Y166400D02*
X11813D01*
X0Y166000D02*
X11647D01*
X0Y165600D02*
X11528D01*
X0Y165200D02*
X11450D01*
X0Y164800D02*
X11411D01*
X0Y172400D02*
X12030D01*
X0Y172000D02*
X12310D01*
X0Y172800D02*
X11813D01*
X0Y167200D02*
X12310D01*
X0Y166800D02*
X12030D01*
X0Y162000D02*
X12310D01*
X0Y156800D02*
X12030D01*
X0Y162400D02*
X12030D01*
X0Y156400D02*
X11813D01*
X0Y156000D02*
X11647D01*
X0Y164000D02*
X11450D01*
X0Y163600D02*
X11528D01*
X0Y164400D02*
X11411D01*
X0Y162800D02*
X11813D01*
X0Y163200D02*
X11647D01*
X19750Y154000D02*
X29586D01*
X31609Y153600D02*
X54218D01*
X19672D02*
X29191D01*
X44364Y138936D02*
X54218Y148791D01*
X19553Y153200D02*
X29006D01*
X19170Y152400D02*
X29006D01*
X19387Y152800D02*
X28950D01*
X18530Y151600D02*
X29586D01*
X18890Y152000D02*
X29191D01*
X19387Y146400D02*
X51827D01*
X28645Y146000D02*
X51427D01*
X28970Y145600D02*
X51027D01*
X29119Y145200D02*
X50627D01*
X17373Y148400D02*
X53827D01*
X18054Y148000D02*
X53427D01*
X18530Y147600D02*
X53027D01*
X18890Y147200D02*
X52627D01*
X19170Y146800D02*
X52227D01*
X0Y153200D02*
X11647D01*
X0Y152800D02*
X11813D01*
X0Y153600D02*
X11528D01*
X0Y152400D02*
X12030D01*
X0Y155600D02*
X11528D01*
X0Y155200D02*
X11450D01*
X0Y154800D02*
X11411D01*
X0Y154000D02*
X11450D01*
X0Y154400D02*
X11411D01*
X19553Y146000D02*
X26755D01*
X19672Y145600D02*
X26430D01*
X0Y148000D02*
X13146D01*
X19750Y145200D02*
X26281D01*
X0Y151600D02*
X12670D01*
X0Y151200D02*
X13146D01*
X0Y152000D02*
X12310D01*
X0Y148400D02*
X13827D01*
X0Y150800D02*
X13827D01*
X0Y194400D02*
X54218D01*
X0Y194000D02*
X54218D01*
X0Y194800D02*
X54218D01*
X0Y193200D02*
X54218D01*
X0Y192800D02*
X54218D01*
X0Y193600D02*
X54218D01*
X0Y196400D02*
X54218D01*
X0Y196000D02*
X54218D01*
X0Y204400D02*
X54218D01*
X0Y195200D02*
X54218D01*
X0Y195600D02*
X54218D01*
X0Y190000D02*
X54218D01*
X0Y189600D02*
X54218D01*
X0Y190400D02*
X54218D01*
X0Y188800D02*
X54218D01*
X0Y189200D02*
X54218D01*
X0Y192000D02*
X54218D01*
X0Y191600D02*
X54218D01*
X0Y192400D02*
X54218D01*
X0Y190800D02*
X54218D01*
X0Y191200D02*
X54218D01*
X0Y201600D02*
X54218D01*
X0Y201200D02*
X54218D01*
X0Y202000D02*
X54218D01*
X0Y200400D02*
X54218D01*
X0Y200800D02*
X54218D01*
X0Y203600D02*
X54218D01*
X0Y203200D02*
X54218D01*
X0Y204000D02*
X54218D01*
X0Y202400D02*
X54218D01*
X0Y202800D02*
X54218D01*
X0Y197600D02*
X54218D01*
X0Y197200D02*
X54218D01*
X0Y198000D02*
X54218D01*
X0Y196800D02*
X54218D01*
X0Y188400D02*
X13827D01*
X0Y199600D02*
X54218D01*
X0Y199200D02*
X54218D01*
X0Y200000D02*
X54218D01*
X0Y198400D02*
X54218D01*
X0Y198800D02*
X54218D01*
X0Y182000D02*
X12310D01*
X0Y181600D02*
X12670D01*
X0Y182400D02*
X12030D01*
X0Y180800D02*
X13827D01*
X0Y181200D02*
X13146D01*
X0Y188000D02*
X13146D01*
X0Y187600D02*
X12670D01*
X0Y187200D02*
X12310D01*
X0Y186800D02*
X12030D01*
X0Y182800D02*
X11813D01*
X0Y147600D02*
X12670D01*
X0Y147200D02*
X12310D01*
X0Y176400D02*
X11813D01*
X0Y146800D02*
X12030D01*
X0Y146400D02*
X11813D01*
X0Y178400D02*
X13827D01*
X0Y178000D02*
X13146D01*
X0Y177600D02*
X12670D01*
X0Y177200D02*
X12310D01*
X0Y176800D02*
X12030D01*
X0Y184000D02*
X11450D01*
X0Y183600D02*
X11528D01*
X0Y184400D02*
X11411D01*
X0Y176000D02*
X11647D01*
X0Y183200D02*
X11647D01*
X0Y186400D02*
X11813D01*
X0Y186000D02*
X11647D01*
X0Y185600D02*
X11528D01*
X0Y185200D02*
X11450D01*
X0Y184800D02*
X11411D01*
X0Y173200D02*
X11647D01*
X0Y146000D02*
X11647D01*
X0Y173600D02*
X11528D01*
X0Y145600D02*
X11528D01*
X0Y145200D02*
X11450D01*
X0Y175600D02*
X11528D01*
X0Y175200D02*
X11450D01*
X0Y174800D02*
X11411D01*
X0Y174000D02*
X11450D01*
X0Y174400D02*
X11411D01*
X29147Y144800D02*
X50227D01*
X29061Y144400D02*
X49827D01*
X28837Y144000D02*
X49427D01*
X28342Y143600D02*
X49027D01*
X19553Y143200D02*
X48627D01*
X19387Y142800D02*
X48227D01*
X19170Y142400D02*
X47827D01*
X18890Y142000D02*
X47427D01*
X18530Y141600D02*
X47027D01*
X18054Y141200D02*
X46627D01*
X17373Y140800D02*
X46227D01*
X19750Y134000D02*
X44527D01*
X19672Y133600D02*
X44927D01*
X19387Y132800D02*
X45727D01*
X19553Y133200D02*
X45327D01*
X18890Y132000D02*
X46527D01*
X18530Y131600D02*
X46927D01*
X19170Y132400D02*
X46127D01*
X17373Y130800D02*
X47727D01*
X18054Y131200D02*
X47327D01*
X19789Y144400D02*
X26339D01*
X19789Y144800D02*
X26253D01*
X44100Y134800D02*
Y138300D01*
X19672Y143600D02*
X27058D01*
X17373Y138400D02*
X44106D01*
X19750Y144000D02*
X26563D01*
X18054Y138000D02*
X44100D01*
X19750Y135200D02*
X44100D01*
X19789Y134800D02*
X44100D01*
X19672Y135600D02*
X44100D01*
X19789Y134400D02*
X44194D01*
X18890Y137200D02*
X44100D01*
X19170Y136800D02*
X44100D01*
X18530Y137600D02*
X44100D01*
X19553Y136000D02*
X44100D01*
X19387Y136400D02*
X44100D01*
X44364Y134164D02*
X47827Y130700D01*
X21864Y116236D02*
X22527Y116900D01*
X21527Y117900D02*
X22527Y116900D01*
X17141Y130700D02*
X47827D01*
X18890Y117200D02*
X22227D01*
X18530Y117600D02*
X21827D01*
X19170Y116800D02*
X22427D01*
X19387Y116400D02*
X22027D01*
X19789Y114400D02*
X21600D01*
X19750Y114000D02*
X21600D01*
X19789Y114800D02*
X21600D01*
X19553Y113200D02*
X21600D01*
X19672Y113600D02*
X21600D01*
X19553Y116000D02*
X21694D01*
X19170Y112400D02*
X21600D01*
X19387Y112800D02*
X21600D01*
X18530Y111600D02*
X21600D01*
X18890Y112000D02*
X21600D01*
X9800Y130700D02*
X14059D01*
X8064Y129336D02*
X9164Y130436D01*
X0Y130400D02*
X9127D01*
X0Y130000D02*
X8727D01*
X7800Y128300D02*
Y128700D01*
X18187Y117900D02*
X21527D01*
X19672Y115600D02*
X21600D01*
X8800Y117900D02*
X13013D01*
X19750Y115200D02*
X21600D01*
X7900Y118800D02*
Y127888D01*
X0Y125600D02*
X7900D01*
X0Y140400D02*
X45827D01*
X0Y140000D02*
X45427D01*
X0Y139600D02*
X45027D01*
X0Y139200D02*
X44627D01*
X0Y138800D02*
X44252D01*
X0Y138400D02*
X13827D01*
X0Y142000D02*
X12310D01*
X0Y141600D02*
X12670D01*
X0Y142400D02*
X12030D01*
X0Y140800D02*
X13827D01*
X0Y141200D02*
X13146D01*
X0Y132000D02*
X12310D01*
X0Y131600D02*
X12670D01*
X0Y132400D02*
X12030D01*
X0Y130800D02*
X13827D01*
X0Y131200D02*
X13146D01*
X0Y138000D02*
X13146D01*
X0Y137600D02*
X12670D01*
X0Y137200D02*
X12310D01*
X0Y136800D02*
X12030D01*
X0Y132800D02*
X11813D01*
X0Y142800D02*
X11813D01*
X0Y136400D02*
X11813D01*
X0Y136000D02*
X11647D01*
X0Y135600D02*
X11528D01*
X0Y135200D02*
X11450D01*
X0Y144400D02*
X11411D01*
X0Y144000D02*
X11450D01*
X0Y144800D02*
X11411D01*
X0Y143200D02*
X11647D01*
X0Y143600D02*
X11528D01*
X0Y129600D02*
X8327D01*
X0Y129200D02*
X7952D01*
X0Y128800D02*
X7806D01*
X0Y128000D02*
X7852D01*
X0Y128400D02*
X7800D01*
X0Y134400D02*
X11411D01*
X0Y134000D02*
X11450D01*
X0Y134800D02*
X11411D01*
X0Y133200D02*
X11647D01*
X0Y133600D02*
X11528D01*
X0Y117200D02*
X12310D01*
X0Y116800D02*
X12030D01*
X0Y116400D02*
X11813D01*
X0Y116000D02*
X11647D01*
X0Y115600D02*
X11528D01*
X0Y118800D02*
X7900D01*
X0Y118400D02*
X7994D01*
X0Y119200D02*
X7900D01*
X0Y117600D02*
X12670D01*
X0Y118000D02*
X8388D01*
X0Y112800D02*
X11813D01*
X0Y112400D02*
X12030D01*
X0Y113200D02*
X11647D01*
X0Y111600D02*
X12670D01*
X0Y112000D02*
X12310D01*
X0Y115200D02*
X11450D01*
X0Y114400D02*
X11411D01*
X0Y114800D02*
X11411D01*
X0Y113600D02*
X11528D01*
X0Y114000D02*
X11450D01*
X0Y124800D02*
X7900D01*
X0Y124400D02*
X7900D01*
X0Y125200D02*
X7900D01*
X0Y123600D02*
X7900D01*
X0Y124000D02*
X7900D01*
X0Y127200D02*
X7900D01*
X0Y126800D02*
X7900D01*
X0Y127600D02*
X7900D01*
X0Y126000D02*
X7900D01*
X0Y126400D02*
X7900D01*
X0Y120800D02*
X7900D01*
X0Y120400D02*
X7900D01*
X0Y121200D02*
X7900D01*
X0Y119600D02*
X7900D01*
X0Y120000D02*
X7900D01*
X0Y122800D02*
X7900D01*
X0Y122400D02*
X7900D01*
X0Y123200D02*
X7900D01*
X0Y121600D02*
X7900D01*
X0Y122000D02*
X7900D01*
X74109Y110800D02*
X105500D01*
X74137Y108000D02*
X105500D01*
X74294Y111200D02*
X105500D01*
X54500Y105200D02*
X105500D01*
X54500Y104800D02*
X105500D01*
X73642Y107600D02*
X105500D01*
X54500Y106800D02*
X105500D01*
X54500Y106400D02*
X105500D01*
X54500Y107200D02*
X105500D01*
X54500Y105600D02*
X105500D01*
X54500Y106000D02*
X105500D01*
X54500Y102000D02*
X105500D01*
X54500Y101600D02*
X105500D01*
X54500Y102400D02*
X105500D01*
X54500Y84400D02*
X105500D01*
X54500Y84800D02*
X105500D01*
X54500Y104000D02*
X105500D01*
X54500Y103600D02*
X105500D01*
X54500Y104400D02*
X105500D01*
X54500Y102800D02*
X105500D01*
X54500Y103200D02*
X105500D01*
X73714Y110400D02*
X105500D01*
X73945Y110000D02*
X105500D01*
X54500Y110800D02*
X71691D01*
X54500Y110400D02*
X72086D01*
X54500Y111200D02*
X71506D01*
X54500Y110000D02*
X72055D01*
X74419Y109200D02*
X105500D01*
X74447Y108800D02*
X105500D01*
X74270Y109600D02*
X105500D01*
X74361Y108400D02*
X105500D01*
X54500Y107600D02*
X72358D01*
X54500Y109600D02*
X71730D01*
X54500Y109200D02*
X71581D01*
X54500Y108800D02*
X71553D01*
X54500Y108000D02*
X71863D01*
X54500Y108400D02*
X71639D01*
X54500Y81600D02*
X105500D01*
X54500Y81200D02*
X105500D01*
X54500Y82000D02*
X105500D01*
X54500Y76000D02*
X105500D01*
X54500Y80800D02*
X105500D01*
X54500Y83600D02*
X105500D01*
X54500Y83200D02*
X105500D01*
X54500Y84000D02*
X105500D01*
X54500Y82400D02*
X105500D01*
X54500Y82800D02*
X105500D01*
X54500Y73200D02*
X105500D01*
X54500Y72800D02*
X105500D01*
X54500Y73600D02*
X105500D01*
X54500Y72000D02*
X105500D01*
X54500Y72400D02*
X105500D01*
X54500Y75200D02*
X105500D01*
X54500Y74800D02*
X105500D01*
X54500Y75600D02*
X105500D01*
X54500Y74000D02*
X105500D01*
X54500Y74400D02*
X105500D01*
X54500Y78400D02*
X105500D01*
X54500Y78000D02*
X105500D01*
X54500Y78800D02*
X105500D01*
X54500Y77200D02*
X105500D01*
X54500Y77600D02*
X105500D01*
X54500Y80000D02*
X105500D01*
X54500Y79600D02*
X105500D01*
X54500Y80400D02*
X105500D01*
X54500Y79200D02*
X105500D01*
X54500Y71700D02*
Y125427D01*
X74100Y64700D02*
X85800D01*
X73200Y20100D02*
Y60827D01*
X72164Y61864D02*
X73200Y60827D01*
X54500Y76800D02*
X105500D01*
X54500Y76400D02*
X105500D01*
X72164Y63136D02*
X73464Y64436D01*
X54500Y90800D02*
X105500D01*
X54500Y90400D02*
X105500D01*
X54500Y91200D02*
X105500D01*
X54500Y89600D02*
X105500D01*
X54500Y89200D02*
X105500D01*
X54500Y90000D02*
X105500D01*
X54500Y92800D02*
X105500D01*
X54500Y92400D02*
X105500D01*
X54500Y93200D02*
X105500D01*
X54500Y91600D02*
X105500D01*
X54500Y92000D02*
X105500D01*
X54500Y86400D02*
X105500D01*
X54500Y86000D02*
X105500D01*
X54500Y86800D02*
X105500D01*
X54500Y85200D02*
X105500D01*
X54500Y85600D02*
X105500D01*
X54500Y88400D02*
X105500D01*
X54500Y88000D02*
X105500D01*
X54500Y88800D02*
X105500D01*
X54500Y87200D02*
X105500D01*
X54500Y87600D02*
X105500D01*
X54500Y98800D02*
X105500D01*
X54500Y98400D02*
X105500D01*
X54500Y99200D02*
X105500D01*
X54500Y97600D02*
X105500D01*
X54500Y98000D02*
X105500D01*
X54500Y100800D02*
X105500D01*
X54500Y100400D02*
X105500D01*
X54500Y101200D02*
X105500D01*
X54500Y99600D02*
X105500D01*
X54500Y100000D02*
X105500D01*
X54500Y94800D02*
X105500D01*
X54500Y94400D02*
X105500D01*
X54500Y95200D02*
X105500D01*
X54500Y93600D02*
X105500D01*
X54500Y94000D02*
X105500D01*
X54500Y96800D02*
X105500D01*
X54500Y96400D02*
X105500D01*
X54500Y97200D02*
X105500D01*
X54500Y95600D02*
X105500D01*
X54500Y96000D02*
X105500D01*
X54348Y71200D02*
X105500D01*
X53973Y70800D02*
X105500D01*
X54494Y71600D02*
X105500D01*
X53800Y68000D02*
X105500D01*
X53800Y68400D02*
X105500D01*
X53800Y70000D02*
X105500D01*
X53800Y69600D02*
X105500D01*
X53800Y70400D02*
X105500D01*
X53800Y68800D02*
X105500D01*
X53800Y69200D02*
X105500D01*
X53800Y65200D02*
X105500D01*
X53800Y64800D02*
X105500D01*
X53800Y65600D02*
X105500D01*
X53800Y64400D02*
X73427D01*
X53800Y58000D02*
X73200D01*
X53800Y67200D02*
X105500D01*
X53800Y66800D02*
X105500D01*
X53800Y67600D02*
X105500D01*
X53800Y66000D02*
X105500D01*
X53800Y66400D02*
X105500D01*
X53800Y63200D02*
X72227D01*
X53800Y62800D02*
X71952D01*
X53800Y62400D02*
X71906D01*
X53800Y70627D02*
X54236Y71064D01*
X53800Y64000D02*
X73027D01*
X53800Y63600D02*
X72627D01*
X53800Y48900D02*
Y70627D01*
Y59600D02*
X73200D01*
X53800Y59200D02*
X73200D01*
X53800Y60000D02*
X73200D01*
X53800Y58400D02*
X73200D01*
X53800Y58800D02*
X73200D01*
X53800Y61600D02*
X72427D01*
X53800Y61200D02*
X72827D01*
X53800Y62000D02*
X72052D01*
X53800Y60400D02*
X73200D01*
X53800Y60800D02*
X73200D01*
X53800Y57200D02*
X73200D01*
X53800Y49600D02*
X73200D01*
X53800Y57600D02*
X73200D01*
X53794Y48800D02*
X73200D01*
X53648Y48400D02*
X73200D01*
X53800Y49200D02*
X73200D01*
X52873Y47600D02*
X73200D01*
X52473Y47200D02*
X73200D01*
X53273Y48000D02*
X73200D01*
X51673Y46400D02*
X73200D01*
X52073Y46800D02*
X73200D01*
X50873Y45600D02*
X73200D01*
X50473Y45200D02*
X73200D01*
X51273Y46000D02*
X73200D01*
X49673Y44400D02*
X73200D01*
X50073Y44800D02*
X73200D01*
X48873Y43600D02*
X73200D01*
X48473Y43200D02*
X73200D01*
X49273Y44000D02*
X73200D01*
X47673Y42400D02*
X73200D01*
X48073Y42800D02*
X73200D01*
X53800Y54400D02*
X73200D01*
X53800Y54000D02*
X73200D01*
X53800Y54800D02*
X73200D01*
X53800Y53200D02*
X73200D01*
X53800Y53600D02*
X73200D01*
X53800Y56400D02*
X73200D01*
X53800Y56000D02*
X73200D01*
X53800Y56800D02*
X73200D01*
X53800Y55200D02*
X73200D01*
X53800Y55600D02*
X73200D01*
X53800Y51200D02*
X73200D01*
X53800Y50800D02*
X73200D01*
X53800Y51600D02*
X73200D01*
X53800Y50000D02*
X73200D01*
X53800Y50400D02*
X73200D01*
X53800Y52400D02*
X73200D01*
X53800Y52000D02*
X73200D01*
X53800Y52800D02*
X73200D01*
X46873Y41600D02*
X73200D01*
X0Y24000D02*
X73200D01*
X47273Y42000D02*
X73200D01*
X0Y23200D02*
X73200D01*
X0Y23600D02*
X73200D01*
X0Y25600D02*
X73200D01*
X0Y25200D02*
X73200D01*
X0Y26000D02*
X73200D01*
X0Y24400D02*
X73200D01*
X0Y24800D02*
X73200D01*
X0Y20400D02*
X73200D01*
X61000Y20100D02*
X73200D01*
X0Y20800D02*
X73200D01*
X78927Y6600D02*
X83164Y2364D01*
X59941Y6600D02*
X78927D01*
X0Y22400D02*
X73200D01*
X0Y22000D02*
X73200D01*
X0Y22800D02*
X73200D01*
X0Y21200D02*
X73200D01*
X0Y21600D02*
X73200D01*
X46836Y41564D02*
X53536Y48264D01*
X58864Y18336D02*
X60364Y19836D01*
X0Y20000D02*
X60588D01*
X0Y19600D02*
X60127D01*
X0Y19200D02*
X59727D01*
X0Y18800D02*
X59327D01*
X0Y18400D02*
X58927D01*
X59041Y7500D02*
Y9336D01*
X0Y18000D02*
X58652D01*
X58800Y10477D02*
Y17134D01*
X0Y17600D02*
X58606D01*
X0Y7200D02*
X59093D01*
X0Y32000D02*
X73200D01*
X0Y31600D02*
X73200D01*
X0Y32400D02*
X73200D01*
X0Y30800D02*
X73200D01*
X0Y30400D02*
X73200D01*
X0Y31200D02*
X73200D01*
X0Y40800D02*
X73200D01*
X0Y40400D02*
X73200D01*
X0Y41200D02*
X73200D01*
X0Y32800D02*
X73200D01*
X0Y33200D02*
X73200D01*
X0Y27600D02*
X73200D01*
X0Y27200D02*
X73200D01*
X0Y28000D02*
X73200D01*
X0Y26400D02*
X73200D01*
X0Y26800D02*
X73200D01*
X0Y29600D02*
X73200D01*
X0Y29200D02*
X73200D01*
X0Y30000D02*
X73200D01*
X0Y28400D02*
X73200D01*
X0Y28800D02*
X73200D01*
X0Y37600D02*
X73200D01*
X0Y37200D02*
X73200D01*
X0Y38000D02*
X73200D01*
X0Y36400D02*
X73200D01*
X0Y36800D02*
X73200D01*
X0Y39600D02*
X73200D01*
X0Y39200D02*
X73200D01*
X0Y40000D02*
X73200D01*
X0Y38400D02*
X73200D01*
X0Y38800D02*
X73200D01*
X0Y34000D02*
X73200D01*
X0Y33600D02*
X73200D01*
X0Y17200D02*
X58752D01*
X0Y16400D02*
X58800D01*
X0Y16800D02*
X58800D01*
X0Y35600D02*
X73200D01*
X0Y35200D02*
X73200D01*
X0Y36000D02*
X73200D01*
X0Y34400D02*
X73200D01*
X0Y34800D02*
X73200D01*
X0Y5200D02*
X80327D01*
X0Y4800D02*
X80727D01*
X0Y5600D02*
X79927D01*
X0Y4000D02*
X81527D01*
X0Y4400D02*
X81127D01*
X0Y7600D02*
X59041D01*
X0Y6800D02*
X59376D01*
X0Y8000D02*
X59041D01*
X0Y6000D02*
X79527D01*
X0Y6400D02*
X79127D01*
X0Y1200D02*
X236221D01*
X0Y800D02*
X236221D01*
X0Y1600D02*
X236221D01*
X0Y0D02*
X236221D01*
X0Y400D02*
X236221D01*
X0Y3200D02*
X82327D01*
X0Y2800D02*
X82727D01*
X0Y3600D02*
X81927D01*
X0Y2000D02*
X236221D01*
X0Y2400D02*
X83127D01*
X0Y13600D02*
X58800D01*
X0Y13200D02*
X58800D01*
X0Y14000D02*
X58800D01*
X0Y12400D02*
X58800D01*
X0Y12800D02*
X58800D01*
X0Y15600D02*
X58800D01*
X0Y15200D02*
X58800D01*
X0Y16000D02*
X58800D01*
X0Y14400D02*
X58800D01*
X0Y14800D02*
X58800D01*
X0Y9600D02*
X59023D01*
X0Y9200D02*
X59041D01*
X0Y10000D02*
X58923D01*
X0Y8400D02*
X59041D01*
X0Y8800D02*
X59041D01*
X0Y11600D02*
X58800D01*
X0Y11200D02*
X58800D01*
X0Y12000D02*
X58800D01*
X0Y10400D02*
X58803D01*
X0Y10800D02*
X58800D01*
X18890Y107200D02*
X21600D01*
X19170Y106800D02*
X21600D01*
X18530Y107600D02*
X21600D01*
Y96381D02*
Y115600D01*
X18054Y101200D02*
X21600D01*
X18530Y101600D02*
X21600D01*
X17373Y110800D02*
X21600D01*
X17373Y108400D02*
X21600D01*
X18054Y111200D02*
X21600D01*
X17373Y100800D02*
X21600D01*
X18054Y108000D02*
X21600D01*
X19553Y96000D02*
X21685D01*
X19387Y96400D02*
X21600D01*
X18054Y98000D02*
X21600D01*
X18530Y97600D02*
X21600D01*
X17373Y98400D02*
X21600D01*
X19170Y96800D02*
X21600D01*
X18890Y97200D02*
X21600D01*
X19789Y104800D02*
X21600D01*
X19789Y104400D02*
X21600D01*
X19750Y105200D02*
X21600D01*
X19672Y103600D02*
X21600D01*
X19750Y104000D02*
X21600D01*
X19387Y106400D02*
X21600D01*
X19553Y106000D02*
X21600D01*
X19672Y105600D02*
X21600D01*
X19750Y95200D02*
X21250D01*
X19789Y94400D02*
X21161D01*
X19789Y94800D02*
X21161D01*
X19672Y93600D02*
X21444D01*
X19750Y94000D02*
X21250D01*
X19387Y102800D02*
X21600D01*
X19170Y102400D02*
X21600D01*
X19553Y103200D02*
X21600D01*
X18890Y102000D02*
X21600D01*
X19672Y95600D02*
X21444D01*
X19789Y84400D02*
X21600D01*
Y70400D02*
Y92819D01*
X19750Y84000D02*
X21600D01*
X19553Y93200D02*
X21685D01*
X19170Y92400D02*
X21600D01*
X19387Y92800D02*
X21600D01*
X19672Y83600D02*
X21600D01*
X18890Y92000D02*
X21600D01*
X19387Y82800D02*
X21600D01*
X19170Y82400D02*
X21600D01*
X19553Y83200D02*
X21600D01*
X18530Y81600D02*
X21600D01*
X18890Y82000D02*
X21600D01*
X17373Y80800D02*
X21600D01*
X0Y80400D02*
X21600D01*
X18054Y81200D02*
X21600D01*
X18054Y78000D02*
X21600D01*
X17373Y78400D02*
X21600D01*
X18054Y88000D02*
X21600D01*
X18530Y87600D02*
X21600D01*
X18530Y91600D02*
X21600D01*
X19170Y86800D02*
X21600D01*
X18890Y87200D02*
X21600D01*
X18054Y91200D02*
X21600D01*
X17373Y90800D02*
X21600D01*
X17373Y88400D02*
X21600D01*
X19553Y86000D02*
X21600D01*
X19672Y85600D02*
X21600D01*
X19387Y86400D02*
X21600D01*
X19789Y84800D02*
X21600D01*
X19750Y85200D02*
X21600D01*
X0Y81600D02*
X12670D01*
X0Y81200D02*
X13146D01*
X0Y82000D02*
X12310D01*
X0Y80800D02*
X13827D01*
X0Y109200D02*
X21600D01*
X0Y108800D02*
X21600D01*
X0Y108400D02*
X13827D01*
X0Y108000D02*
X13146D01*
X0Y101600D02*
X12670D01*
X0Y107600D02*
X12670D01*
X0Y110800D02*
X13827D01*
X0Y110400D02*
X21600D01*
X0Y111200D02*
X13146D01*
X0Y109600D02*
X21600D01*
X0Y110000D02*
X21600D01*
X0Y99200D02*
X21600D01*
X0Y98800D02*
X21600D01*
X0Y98400D02*
X13827D01*
X0Y98000D02*
X13146D01*
X0Y97600D02*
X12670D01*
X0Y100800D02*
X13827D01*
X0Y100400D02*
X21600D01*
X0Y101200D02*
X13146D01*
X0Y99600D02*
X21600D01*
X0Y100000D02*
X21600D01*
X0Y105200D02*
X11450D01*
X0Y104400D02*
X11411D01*
X0Y104800D02*
X11411D01*
X0Y103600D02*
X11528D01*
X0Y104000D02*
X11450D01*
X0Y107200D02*
X12310D01*
X0Y106800D02*
X12030D01*
X0Y106400D02*
X11813D01*
X0Y106000D02*
X11647D01*
X0Y105600D02*
X11528D01*
X0Y96800D02*
X12030D01*
X0Y96400D02*
X11813D01*
X0Y96000D02*
X11647D01*
X0Y95600D02*
X11528D01*
X0Y95200D02*
X11450D01*
X0Y102800D02*
X11813D01*
X0Y102400D02*
X12030D01*
X0Y103200D02*
X11647D01*
X0Y97200D02*
X12310D01*
X0Y102000D02*
X12310D01*
X0Y89600D02*
X21600D01*
X0Y89200D02*
X21600D01*
X0Y90000D02*
X21600D01*
X0Y88800D02*
X21600D01*
X0Y88400D02*
X13827D01*
X0Y91600D02*
X12670D01*
X0Y91200D02*
X13146D01*
X0Y92000D02*
X12310D01*
X0Y90400D02*
X21600D01*
X0Y90800D02*
X13827D01*
X0Y79200D02*
X21600D01*
X0Y78800D02*
X21600D01*
X0Y78400D02*
X13827D01*
X0Y78000D02*
X13146D01*
X0Y77600D02*
X12670D01*
X0Y88000D02*
X13146D01*
X0Y87600D02*
X12670D01*
X0Y87200D02*
X12310D01*
X0Y79600D02*
X21600D01*
X0Y80000D02*
X21600D01*
X0Y92800D02*
X11813D01*
X0Y92400D02*
X12030D01*
X0Y93200D02*
X11647D01*
X0Y86800D02*
X12030D01*
X0Y86400D02*
X11813D01*
X0Y94400D02*
X11411D01*
X0Y94000D02*
X11450D01*
X0Y94800D02*
X11411D01*
X0Y93600D02*
X11528D01*
X0Y0D02*
Y236221D01*
Y83600D02*
X11528D01*
X0Y83200D02*
X11647D01*
X0Y84000D02*
X11450D01*
X0Y82400D02*
X12030D01*
X0Y82800D02*
X11813D01*
X0Y86000D02*
X11647D01*
X0Y85600D02*
X11528D01*
X0Y85200D02*
X11450D01*
X0Y84400D02*
X11411D01*
X0Y84800D02*
X11411D01*
X31064Y66800D02*
X31986D01*
X34251D02*
X35173D01*
X27876D02*
X28798D01*
X37439D02*
X38361D01*
X40626D02*
X41548D01*
X23200Y67500D02*
Y69500D01*
X24666Y66800D02*
X25611D01*
X22500Y69500D02*
X23200D01*
X43814Y66800D02*
X44736D01*
X47001D02*
X47923D01*
X40547Y66400D02*
X41628D01*
X46922D02*
X48003D01*
X43734D02*
X44816D01*
X27797D02*
X28878D01*
X30984D02*
X32066D01*
X24100D02*
X25691D01*
X37359D02*
X38441D01*
X34172D02*
X35253D01*
X19750Y75200D02*
X21600D01*
X19789Y74800D02*
X21600D01*
X19672Y75600D02*
X21600D01*
X19750Y74000D02*
X21600D01*
X19789Y74400D02*
X21600D01*
X18890Y77200D02*
X21600D01*
X19170Y76800D02*
X21600D01*
X18530Y77600D02*
X21600D01*
X19553Y76000D02*
X21600D01*
X19387Y76400D02*
X21600D01*
X19553Y73200D02*
X21600D01*
X19387Y72800D02*
X21600D01*
X19672Y73600D02*
X21600D01*
X18890Y72000D02*
X21600D01*
X18530Y71600D02*
X21600D01*
X19170Y72400D02*
X21600D01*
X17373Y70800D02*
X21600D01*
X18054Y71200D02*
X21600D01*
X24921Y66000D02*
X25379D01*
X44046D02*
X44504D01*
X47233D02*
X47692D01*
X40858D02*
X41317D01*
X31296D02*
X31754D01*
X34483D02*
X34942D01*
X28108D02*
X28567D01*
X9500Y41300D02*
X46200D01*
X37671Y66000D02*
X38129D01*
X23200Y60200D02*
Y65500D01*
X10000Y60200D02*
X23200D01*
X8600Y42200D02*
Y57227D01*
X8264Y58836D02*
X9364Y59936D01*
X0Y51200D02*
X8600D01*
X8264Y57564D02*
X8600Y57227D01*
X0Y48400D02*
X8600D01*
X0Y48000D02*
X8600D01*
X0Y48800D02*
X8600D01*
X0Y50400D02*
X8600D01*
X0Y50000D02*
X8600D01*
X0Y50800D02*
X8600D01*
X0Y49200D02*
X8600D01*
X0Y49600D02*
X8600D01*
X0Y66800D02*
X23534D01*
X0Y66400D02*
X24100D01*
X0Y67200D02*
X23252D01*
X0Y66000D02*
X23352D01*
X0Y65600D02*
X23206D01*
X0Y65200D02*
X23200D01*
X0Y68800D02*
X23200D01*
X0Y68400D02*
X23200D01*
X0Y69200D02*
X23200D01*
X0Y67600D02*
X23200D01*
X0Y68000D02*
X23200D01*
X0Y62400D02*
X23200D01*
X0Y62000D02*
X23200D01*
X0Y62800D02*
X23200D01*
X0Y61200D02*
X23200D01*
X0Y61600D02*
X23200D01*
X0Y64400D02*
X23200D01*
X0Y64000D02*
X23200D01*
X0Y64800D02*
X23200D01*
X0Y63200D02*
X23200D01*
X0Y63600D02*
X23200D01*
X0Y75200D02*
X11450D01*
X0Y74400D02*
X11411D01*
X0Y74800D02*
X11411D01*
X0Y73600D02*
X11528D01*
X0Y74000D02*
X11450D01*
X0Y77200D02*
X12310D01*
X0Y76800D02*
X12030D01*
X0Y76400D02*
X11813D01*
X0Y76000D02*
X11647D01*
X0Y75600D02*
X11528D01*
X0Y70800D02*
X13827D01*
X0Y70400D02*
X21600D01*
X0Y71200D02*
X13146D01*
X0Y69600D02*
X22088D01*
X0Y70000D02*
X21694D01*
X0Y72800D02*
X11813D01*
X0Y72400D02*
X12030D01*
X0Y73200D02*
X11647D01*
X0Y71600D02*
X12670D01*
X0Y72000D02*
X12310D01*
X0Y47200D02*
X8600D01*
X0Y46800D02*
X8600D01*
X0Y47600D02*
X8600D01*
X0Y46000D02*
X8600D01*
X0Y46400D02*
X8600D01*
X0Y60800D02*
X23200D01*
X0Y60400D02*
X23200D01*
X0Y60000D02*
X9434D01*
X0Y59600D02*
X9027D01*
X0Y59200D02*
X8627D01*
X0Y43200D02*
X8600D01*
X0Y42800D02*
X8600D01*
X0Y43600D02*
X8600D01*
X0Y41600D02*
X8829D01*
X0Y42000D02*
X8623D01*
X0Y45200D02*
X8600D01*
X0Y44800D02*
X8600D01*
X0Y45600D02*
X8600D01*
X0Y44000D02*
X8600D01*
X0Y44400D02*
X8600D01*
X0Y56400D02*
X8600D01*
X0Y56000D02*
X8600D01*
X0Y56800D02*
X8600D01*
X0Y55200D02*
X8600D01*
X0Y55600D02*
X8600D01*
X0Y58800D02*
X8229D01*
X0Y58000D02*
X8022D01*
X0Y58400D02*
X8022D01*
X0Y57200D02*
X8600D01*
X0Y57600D02*
X8229D01*
X0Y52400D02*
X8600D01*
X0Y52000D02*
X8600D01*
X0Y52800D02*
X8600D01*
X0Y42400D02*
X8600D01*
X0Y51600D02*
X8600D01*
X0Y54400D02*
X8600D01*
X0Y54000D02*
X8600D01*
X0Y54800D02*
X8600D01*
X0Y53200D02*
X8600D01*
X0Y53600D02*
X8600D01*
X180700Y11600D02*
Y19100D01*
X179106Y11628D02*
X179648Y11628D01*
X179791Y11600D02*
X180700D01*
X157035D02*
X178964D01*
X178354Y11374D02*
X178856Y11579D01*
X180808Y11042D02*
X180900Y11400D01*
X179899Y11579D02*
X180401Y11374D01*
X177754Y10854D02*
X178141Y11233D01*
X157143Y11579D02*
X157644Y11374D01*
X157858Y11233D02*
X158245Y10854D01*
X151884Y12000D02*
X180700D01*
X88200Y19100D02*
X180700D01*
X156351Y11628D02*
X156892Y11628D01*
X92092Y12000D02*
X150061D01*
X92855Y11600D02*
X149299D01*
X155598Y11374D02*
X156100Y11579D01*
X152646Y11600D02*
X156208D01*
X154998Y10854D02*
X155385Y11233D01*
X93291Y11200D02*
X148863D01*
X158281Y10800D02*
X177717D01*
X157892Y11200D02*
X178107D01*
X177396Y10145D02*
X177610Y10643D01*
X154640Y10145D02*
X154854Y10643D01*
X158493Y10400D02*
X177505D01*
X158634Y10000D02*
X177365D01*
X158629Y9200D02*
X177370D01*
X158483Y8800D02*
X177516D01*
X158389Y10643D02*
X158603Y10145D01*
X158662Y9600D02*
X177337D01*
X153377Y10800D02*
X154962D01*
X153083Y11200D02*
X155351D01*
X153579Y10400D02*
X154749D01*
X93586Y10800D02*
X148568D01*
X93788Y10400D02*
X148366D01*
X153776Y9600D02*
X154581D01*
X153709Y10000D02*
X154609D01*
X153788Y9200D02*
X154614D01*
X93917Y10000D02*
X148237D01*
X93984Y9600D02*
X148170D01*
X74100Y51200D02*
X85800D01*
X74100Y56400D02*
X85800D01*
X74100Y50400D02*
X85800D01*
X74100Y57200D02*
X85800D01*
X74100Y56800D02*
X85800D01*
Y44566D02*
Y63800D01*
X85208Y45200D02*
X85800D01*
X74100Y50000D02*
X85800D01*
X74100Y49600D02*
X85800D01*
X74100Y60000D02*
X85800D01*
X74100Y60800D02*
X85800D01*
X74100Y59600D02*
X85800D01*
X74100Y63800D02*
X85800D01*
X74100Y61200D02*
X85800D01*
X74100Y58000D02*
X85800D01*
X74100Y58400D02*
X85800D01*
X74100Y57600D02*
X85800D01*
X74100Y59200D02*
X85800D01*
X74100Y58800D02*
X85800D01*
X87191Y10800D02*
X88776D01*
X86801Y11200D02*
X89071D01*
X87403Y10400D02*
X88574D01*
X86768Y11233D02*
X87154Y10854D01*
X87299Y10643D02*
X87512Y10145D01*
X87543Y10000D02*
X88445D01*
X93996Y9200D02*
X148157D01*
X87571Y9600D02*
X88378D01*
X87538Y9200D02*
X88366D01*
X85800Y21500D02*
X88200Y19100D01*
X85800Y21500D02*
Y42744D01*
X85260Y11628D02*
X85802Y11628D01*
X74100Y43200D02*
X82397D01*
X85017Y42000D02*
X85800D01*
X85944Y11600D02*
X89507D01*
X84508Y11374D02*
X85009Y11579D01*
X86053Y11579D02*
X86554Y11374D01*
X83908Y10854D02*
X84294Y11233D01*
X83549Y10145D02*
X83763Y10643D01*
X177754Y8371D02*
X178141Y7992D01*
X158264Y8400D02*
X177734D01*
X157867Y8000D02*
X178132D01*
X177396Y9080D02*
X177610Y8582D01*
X158389Y8582D02*
X158603Y9080D01*
X178354Y7851D02*
X178856Y7646D01*
X156909Y7600D02*
X179089D01*
X174685Y3000D02*
X179282Y7597D01*
X157858Y7992D02*
X158244Y8371D01*
X157143Y7646D02*
X157644Y7851D01*
X154998Y8371D02*
X155385Y7992D01*
X153788Y8400D02*
X154979D01*
X153788Y8000D02*
X155376D01*
X154640Y9080D02*
X154854Y8582D01*
X153788Y8800D02*
X154760D01*
X156333Y7600D02*
X156909D01*
X153788D02*
X156333D01*
X156350Y7597D02*
X156892Y7597D01*
X153788Y5793D02*
Y9336D01*
X155598Y7851D02*
X156099Y7646D01*
X153788Y6800D02*
X178485D01*
X153788Y7200D02*
X178885D01*
X153788Y6400D02*
X178085D01*
X153788Y6000D02*
X177685D01*
X153781Y5600D02*
X177285D01*
X153725Y5200D02*
X176885D01*
X153607Y4800D02*
X176485D01*
X153419Y4400D02*
X176085D01*
X153143Y4000D02*
X175685D01*
X152738Y3600D02*
X175285D01*
X93352Y4000D02*
X148802D01*
X92947Y3600D02*
X149207D01*
X92278Y3200D02*
X149875D01*
X93815Y4800D02*
X148338D01*
X93628Y4400D02*
X148526D01*
X152069Y3200D02*
X174885D01*
X151328Y3000D02*
X174685D01*
X91536D02*
X150617D01*
X93996Y8800D02*
X148157D01*
X87174Y8400D02*
X88366D01*
X93996D02*
X148157D01*
X87298Y8582D02*
X87512Y9080D01*
X87392Y8800D02*
X88366D01*
X148157Y5793D02*
Y9336D01*
X93996Y8000D02*
X148157D01*
X93996Y7600D02*
X148157D01*
X88366Y5793D02*
Y9336D01*
X93996Y5793D02*
Y9336D01*
X86776Y8000D02*
X88366D01*
X86767Y7992D02*
X87154Y8371D01*
X84508Y7851D02*
X85009Y7646D01*
X83549Y9080D02*
X83763Y8582D01*
X83908Y8371D02*
X84294Y7992D01*
X86053Y7646D02*
X86554Y7851D01*
X85243Y7600D02*
X85819D01*
X88366D01*
X85260Y7597D02*
X85802Y7597D01*
X79300Y7500D02*
X83800Y3000D01*
X93996Y6000D02*
X148157D01*
X93996Y6400D02*
X148157D01*
X93990Y5600D02*
X148164D01*
X93996Y7200D02*
X148157D01*
X93996Y6800D02*
X148157D01*
X93933Y5200D02*
X148220D01*
X83600Y3200D02*
X90084D01*
X83800Y3000D02*
X90826D01*
X80800Y6000D02*
X88366D01*
X80400Y6400D02*
X88366D01*
X81200Y5600D02*
X88372D01*
X79600Y7200D02*
X88366D01*
X80000Y6800D02*
X88366D01*
X82800Y4000D02*
X89010D01*
X82400Y4400D02*
X88734D01*
X83200Y3600D02*
X89415D01*
X81600Y5200D02*
X88429D01*
X82000Y4800D02*
X88547D01*
X74100Y36400D02*
X85800D01*
X74100Y36800D02*
X85800D01*
X74100Y36000D02*
X85800D01*
X74100Y37600D02*
X85800D01*
X74100Y37200D02*
X85800D01*
X74100Y34400D02*
X85800D01*
X74100Y34800D02*
X85800D01*
X74100Y34000D02*
X85800D01*
X74100Y35600D02*
X85800D01*
X74100Y35200D02*
X85800D01*
X74100Y40400D02*
X85800D01*
X74100Y40800D02*
X85800D01*
X74100Y40000D02*
X85800D01*
X74100Y41600D02*
X85800D01*
X74100Y41200D02*
X85800D01*
X74100Y38400D02*
X85800D01*
X74100Y38800D02*
X85800D01*
X74100Y38000D02*
X85800D01*
X74100Y39600D02*
X85800D01*
X74100Y39200D02*
X85800D01*
X74100Y28400D02*
X85800D01*
X74100Y28800D02*
X85800D01*
X74100Y28000D02*
X85800D01*
X74100Y29600D02*
X85800D01*
X74100Y29200D02*
X85800D01*
X74100Y26400D02*
X85800D01*
X74100Y26800D02*
X85800D01*
X74100Y26000D02*
X85800D01*
X74100Y27600D02*
X85800D01*
X74100Y27200D02*
X85800D01*
X74100Y32400D02*
X85800D01*
X74100Y32800D02*
X85800D01*
X74100Y32000D02*
X85800D01*
X74100Y33600D02*
X85800D01*
X74100Y33200D02*
X85800D01*
X74100Y30400D02*
X85800D01*
X74100Y30800D02*
X85800D01*
X74100Y30000D02*
X85800D01*
X74100Y31600D02*
X85800D01*
X74100Y31200D02*
X85800D01*
X74100Y54400D02*
X85800D01*
X74100Y54800D02*
X85800D01*
X74100Y54000D02*
X85800D01*
X74100Y55600D02*
X85800D01*
X74100Y55200D02*
X85800D01*
X74100Y52400D02*
X85800D01*
X74100Y52800D02*
X85800D01*
X74100Y52000D02*
X85800D01*
X74100Y53600D02*
X85800D01*
X74100Y53200D02*
X85800D01*
X73500Y63200D02*
X85800D01*
X73100Y62800D02*
X85800D01*
X72900Y62400D02*
X85800D01*
X72800Y62500D02*
X74100Y63800D01*
X73900Y63600D02*
X85800D01*
X74100Y60400D02*
X85800D01*
X73700Y61600D02*
X85800D01*
X74100Y56000D02*
X85800D01*
X72800Y62500D02*
X74100Y61200D01*
X73300Y62000D02*
X85800D01*
X74100Y45600D02*
X85800D01*
X74100Y46000D02*
X85800D01*
X74100Y45200D02*
X83172D01*
X74100Y44800D02*
X82737D01*
X74100Y44400D02*
X82497D01*
X74100Y42400D02*
X82831D01*
X74100Y42800D02*
X82549D01*
X74100Y42000D02*
X83363D01*
X74100Y44000D02*
X82372D01*
X74100Y43600D02*
X82341D01*
X74100Y48800D02*
X85800D01*
X74100Y49200D02*
X85800D01*
X74100Y48400D02*
X85800D01*
X74100Y51600D02*
X85800D01*
X74100Y50800D02*
X85800D01*
X74100Y46800D02*
X85800D01*
X74100Y47200D02*
X85800D01*
X74100Y46400D02*
X85800D01*
X74100Y48000D02*
X85800D01*
X74100Y47600D02*
X85800D01*
X74100Y21600D02*
X85800D01*
X74100Y22000D02*
X85800D01*
X74100Y21200D02*
X86100D01*
X74100Y22800D02*
X85800D01*
X74100Y22400D02*
X85800D01*
X74100Y19600D02*
X87700D01*
X74100Y20000D02*
X87300D01*
X74100Y19200D02*
X88100D01*
X74100Y20800D02*
X86500D01*
X74100Y20400D02*
X86900D01*
X74100Y24400D02*
X85800D01*
X74100Y24800D02*
X85800D01*
X74100Y24000D02*
X85800D01*
X74100Y25600D02*
X85800D01*
X74100Y25200D02*
X85800D01*
X60600Y18800D02*
X180700D01*
X60200Y18400D02*
X180700D01*
X59800Y18000D02*
X180700D01*
X74100Y23600D02*
X85800D01*
X74100Y23200D02*
X85800D01*
X59700Y12800D02*
X180700D01*
X59700Y13200D02*
X180700D01*
X59700Y12400D02*
X180700D01*
X59700Y13600D02*
X180700D01*
X59700Y12000D02*
X90270D01*
X64020Y8000D02*
X84286D01*
X63188Y11600D02*
X85117D01*
X63063Y7600D02*
X85243D01*
X64045Y11200D02*
X84260D01*
X64418Y8400D02*
X83888D01*
X59700Y16400D02*
X180700D01*
X59700Y16800D02*
X180700D01*
X59700Y16000D02*
X180700D01*
X59600Y17600D02*
X180700D01*
X59700Y17200D02*
X180700D01*
X59700Y14400D02*
X180700D01*
X59700Y14800D02*
X180700D01*
X59700Y14000D02*
X180700D01*
X59700Y15600D02*
X180700D01*
X59700Y15200D02*
X180700D01*
X74100Y19200D02*
Y61200D01*
X61000Y19200D02*
X74100D01*
X63297Y11579D02*
X63798Y11374D01*
X62504Y11628D02*
X63046Y11628D01*
X61752Y11374D02*
X62253Y11579D01*
X64542Y10643D02*
X64757Y10145D01*
X64435Y10800D02*
X83871D01*
X64647Y10400D02*
X83659D01*
X61152Y10854D02*
X61538Y11233D01*
X64012Y11233D02*
X64398Y10854D01*
X61000Y19200D02*
X74100D01*
X59700Y11600D02*
X62361D01*
X59700Y11200D02*
X61504D01*
X59500Y17700D02*
X61000Y19200D01*
X59700Y10800D02*
X61115D01*
X60793Y10145D02*
X61007Y10643D01*
X59733Y10400D02*
X60903D01*
X59862Y10000D02*
X60762D01*
X59700Y10477D02*
Y17500D01*
X64788Y10000D02*
X83518D01*
X64782Y9200D02*
X83523D01*
X64636Y8800D02*
X83670D01*
X64815Y9600D02*
X83490D01*
X64542Y8582D02*
X64757Y9080D01*
X64011Y7992D02*
X64398Y8371D01*
X63297Y7646D02*
X63798Y7851D01*
X62487Y7600D02*
X63063D01*
X61752Y7851D02*
X62253Y7646D01*
X62504Y7597D02*
X63046Y7597D01*
X60793Y9080D02*
X61007Y8582D01*
X59941Y8800D02*
X60913D01*
X59941Y8400D02*
X61132D01*
X59929Y9600D02*
X60734D01*
X59941Y9200D02*
X60768D01*
X61152Y8371D02*
X61538Y7992D01*
X59941Y7600D02*
X62487D01*
X59941Y7500D02*
X79300D01*
X59941D02*
Y9336D01*
Y8000D02*
X61530D01*
X87631Y204400D02*
X90227D01*
X84031Y204000D02*
X89827D01*
X80431Y203600D02*
X89427D01*
X76832Y203200D02*
X89027D01*
X78740Y192913D02*
X90551Y204724D01*
X73232Y202800D02*
X88627D01*
X69631Y202400D02*
X88227D01*
X66031Y202000D02*
X87827D01*
X55118Y200787D02*
X90551Y204724D01*
X62432Y201600D02*
X87427D01*
X58832Y201200D02*
X87027D01*
X55231Y200800D02*
X86627D01*
X55118Y180800D02*
X78740D01*
X55118Y180400D02*
X78740D01*
X55118Y181200D02*
X78740D01*
X55118Y165600D02*
X78740D01*
X55118Y165200D02*
X78740D01*
X55118Y166400D02*
X78740D01*
X55118Y166000D02*
X78740D01*
X55118Y164400D02*
X78740D01*
X55118Y162400D02*
X78740D01*
X55118Y164800D02*
X78740D01*
X55118Y168400D02*
X78740D01*
X55118Y168000D02*
X78740D01*
X55118Y179600D02*
X78740D01*
X55118Y179200D02*
X78740D01*
X55118Y167200D02*
X78740D01*
X55118Y166800D02*
X78740D01*
X55118Y167600D02*
X78740D01*
X55118Y186000D02*
X78740D01*
X55118Y185600D02*
X78740D01*
X55118Y186800D02*
X78740D01*
X55118Y186400D02*
X78740D01*
X55118Y184800D02*
X78740D01*
X55118Y184400D02*
X78740D01*
X55118Y185200D02*
X78740D01*
X55118Y188800D02*
X78740D01*
X55118Y188400D02*
X78740D01*
X55118Y189600D02*
X78740D01*
X55118Y189200D02*
X78740D01*
X55118Y187600D02*
X78740D01*
X55118Y187200D02*
X78740D01*
X55118Y188000D02*
X78740D01*
X55118Y161200D02*
X78740D01*
X55118Y160800D02*
X78740D01*
X55118Y162000D02*
X78740D01*
X55118Y161600D02*
X78740D01*
X55118Y160000D02*
X78740D01*
X55118Y159600D02*
X78740D01*
X55118Y160400D02*
X78740D01*
X55118Y181600D02*
X78740D01*
X55118Y164000D02*
X78740D01*
X55118Y183600D02*
X78740D01*
X55118Y183200D02*
X78740D01*
X55118Y163200D02*
X78740D01*
X55118Y162800D02*
X78740D01*
X55118Y163600D02*
X78740D01*
X73287Y158400D02*
X78740D01*
X73512Y158000D02*
X78740D01*
X72883Y158800D02*
X78740D01*
X69059Y157600D02*
X69974D01*
X78740Y133858D02*
Y192913D01*
X73625Y157600D02*
X78740D01*
X69081Y157200D02*
X69953D01*
X55118Y159200D02*
X78740D01*
X68316Y158800D02*
X70717D01*
X63749D02*
X66150D01*
X64154Y158400D02*
X65746D01*
X68721D02*
X70312D01*
X68946Y158000D02*
X70087D01*
X73647Y157200D02*
X78740D01*
X73581Y156800D02*
X78740D01*
X69014D02*
X70019D01*
X68850Y156400D02*
X70184D01*
X73116Y156000D02*
X78740D01*
X72530Y155600D02*
X78740D01*
X73416Y156400D02*
X78740D01*
X68550Y156000D02*
X70484D01*
X67963Y155600D02*
X71070D01*
X63983Y156000D02*
X65917D01*
X63396Y155600D02*
X66504D01*
X55118Y154800D02*
X78740D01*
X55118Y150800D02*
X78740D01*
X55118Y155200D02*
X78740D01*
X59183Y158800D02*
X61584D01*
X64379Y158000D02*
X65521D01*
X59587Y158400D02*
X61179D01*
X59812Y158000D02*
X60954D01*
X64492Y157600D02*
X65408D01*
X59926D02*
X60841D01*
X55118Y158800D02*
X57017D01*
X55118Y158400D02*
X56612D01*
X55118Y158254D02*
Y200787D01*
X55246Y158000D02*
X56388D01*
X55359Y157600D02*
X56274D01*
X64514Y157200D02*
X65386D01*
X64448Y156800D02*
X65452D01*
X59947Y157200D02*
X60819D01*
X59881Y156800D02*
X60886D01*
X64283Y156400D02*
X65617D01*
X59416Y156000D02*
X61350D01*
X59716Y156400D02*
X61050D01*
X55314Y156800D02*
X56319D01*
X55150Y156400D02*
X56484D01*
X55381Y157200D02*
X56253D01*
X55118Y155600D02*
X57370D01*
X58830D02*
X61937D01*
X55118Y156000D02*
X56784D01*
X55118Y197600D02*
X83427D01*
X55118Y197200D02*
X83027D01*
X55118Y196800D02*
X82627D01*
X55118Y196400D02*
X82227D01*
X55118Y196000D02*
X81827D01*
X55118Y195600D02*
X81427D01*
X55118Y195200D02*
X81027D01*
X55118Y194800D02*
X80627D01*
X55118Y200400D02*
X86227D01*
X55118Y200000D02*
X85827D01*
X55118Y199600D02*
X85427D01*
X55118Y199200D02*
X85027D01*
X55118Y198800D02*
X84627D01*
X55118Y198400D02*
X84227D01*
X55118Y198000D02*
X83827D01*
X55118Y178000D02*
X78740D01*
X55118Y177600D02*
X78740D01*
X55118Y178800D02*
X78740D01*
X55118Y178400D02*
X78740D01*
X55118Y176800D02*
X78740D01*
X55118Y172000D02*
X78740D01*
X55118Y177200D02*
X78740D01*
X55118Y194400D02*
X80227D01*
X55118Y194000D02*
X79827D01*
X55118Y193600D02*
X79427D01*
X55118Y193200D02*
X79027D01*
X55118Y182000D02*
X78740D01*
X55118Y180000D02*
X78740D01*
X55118Y182400D02*
X78740D01*
X55118Y182800D02*
X78740D01*
X55118Y176400D02*
X78740D01*
X55118Y190000D02*
X78740D01*
X55118Y184000D02*
X78740D01*
X55118Y175600D02*
X78740D01*
X55118Y175200D02*
X78740D01*
X55118Y176000D02*
X78740D01*
X55118Y192000D02*
X78740D01*
X55118Y191600D02*
X78740D01*
X55118Y192800D02*
X78740D01*
X55118Y192400D02*
X78740D01*
X55118Y190800D02*
X78740D01*
X55118Y190400D02*
X78740D01*
X55118Y191200D02*
X78740D01*
X55118Y170800D02*
X78740D01*
X55118Y170400D02*
X78740D01*
X55118Y171600D02*
X78740D01*
X55118Y171200D02*
X78740D01*
X55118Y169600D02*
X78740D01*
X55118Y169200D02*
X78740D01*
X55118Y170000D02*
X78740D01*
X55118Y174000D02*
X78740D01*
X55118Y173600D02*
X78740D01*
X55118Y174800D02*
X78740D01*
X55118Y174400D02*
X78740D01*
X55118Y172800D02*
X78740D01*
X55118Y172400D02*
X78740D01*
X55118Y173200D02*
X78740D01*
X55118Y154000D02*
X78740D01*
X55118Y143200D02*
X78740D01*
X55118Y168800D02*
X78740D01*
X55118Y154400D02*
X78740D01*
X55118Y142400D02*
X78740D01*
X55118Y142000D02*
X78740D01*
X55118Y142800D02*
X78740D01*
X54186Y140800D02*
X78740D01*
X53786Y140400D02*
X78740D01*
X54986Y141600D02*
X78740D01*
X54586Y141200D02*
X78740D01*
X52986Y139600D02*
X78740D01*
X52586Y139200D02*
X78740D01*
X53386Y140000D02*
X78740D01*
X53776Y135200D02*
X78740D01*
X54176Y134800D02*
X78740D01*
X52976Y136000D02*
X78740D01*
X53376Y135600D02*
X78740D01*
X54976Y134000D02*
X78740D01*
X55118Y133858D02*
X78740D01*
X54576Y134400D02*
X78740D01*
X51386Y138000D02*
X78740D01*
X51376Y137600D02*
X78740D01*
X52186Y138800D02*
X78740D01*
X51786Y138400D02*
X78740D01*
X52176Y136800D02*
X78740D01*
X52576Y136400D02*
X78740D01*
X51776Y137200D02*
X78740D01*
X55118Y150000D02*
X78740D01*
X55118Y149600D02*
X78740D01*
X55118Y151200D02*
X78740D01*
X55118Y150400D02*
X78740D01*
X55118Y148800D02*
X78740D01*
X55118Y148400D02*
X78740D01*
X55118Y149200D02*
X78740D01*
X55118Y152800D02*
X78740D01*
X55118Y152400D02*
X78740D01*
X55118Y153600D02*
X78740D01*
X55118Y153200D02*
X78740D01*
X55118Y152000D02*
X78740D01*
X55118Y151600D02*
X78740D01*
X55118Y141732D02*
Y156346D01*
Y145200D02*
X78740D01*
X55118Y144800D02*
X78740D01*
X55118Y146000D02*
X78740D01*
X55118Y145600D02*
X78740D01*
X55118Y144000D02*
X78740D01*
X55118Y143600D02*
X78740D01*
X55118Y144400D02*
X78740D01*
X55118Y147200D02*
X78740D01*
X55118Y146800D02*
X78740D01*
X55118Y148000D02*
X78740D01*
X55118Y147600D02*
X78740D01*
X55118Y146400D02*
X78740D01*
X51181Y137795D02*
X55118Y133858D01*
X51181Y137795D02*
X55118Y141732D01*
X212598Y200787D02*
Y216535D01*
X181094Y192800D02*
X204611D01*
X181064Y192400D02*
X204211D01*
X181035Y192000D02*
X203811D01*
X181005Y191600D02*
X203411D01*
X180975Y191200D02*
X203011D01*
X180946Y190800D02*
X202611D01*
X200787Y188976D02*
X212598Y200787D01*
X180916Y190400D02*
X202211D01*
X180887Y190000D02*
X201811D01*
X180857Y189600D02*
X201411D01*
X198450Y186000D02*
X200787D01*
X180827Y189200D02*
X201011D01*
X180383Y183200D02*
X200787D01*
X180264Y181600D02*
X200787D01*
X180235Y181200D02*
X200787D01*
X180205Y180800D02*
X200787D01*
X180175Y180400D02*
X200787D01*
X180353Y182800D02*
X200787D01*
X180324Y182400D02*
X200787D01*
X180294Y182000D02*
X200787D01*
X180057Y178800D02*
X200787D01*
X180027Y178400D02*
X200787D01*
X179998Y178000D02*
X200787D01*
X180146Y180000D02*
X200787D01*
X180116Y179600D02*
X200787D01*
X180087Y179200D02*
X200787D01*
X179879Y176400D02*
X200787D01*
X179850Y176000D02*
X200787D01*
X179820Y175600D02*
X200787D01*
X179790Y175200D02*
X200787D01*
X179968Y177600D02*
X200787D01*
X179938Y177200D02*
X200787D01*
X179909Y176800D02*
X200787D01*
X179672Y173600D02*
X200787D01*
X179642Y173200D02*
X200787D01*
X179613Y172800D02*
X200787D01*
X179583Y172400D02*
X200787D01*
X179761Y174800D02*
X200787D01*
X179731Y174400D02*
X200787D01*
X179701Y174000D02*
X200787D01*
X179464Y170800D02*
X200787D01*
X179435Y170400D02*
X200787D01*
X179405Y170000D02*
X200787D01*
X179375Y169600D02*
X200787D01*
X179553Y172000D02*
X200787D01*
X179524Y171600D02*
X200787D01*
X179494Y171200D02*
X200787D01*
X179257Y168000D02*
X200787D01*
X179227Y167600D02*
X200787D01*
X179198Y167200D02*
X200787D01*
X179346Y169200D02*
X200787D01*
X179316Y168800D02*
X200787D01*
X179287Y168400D02*
X200787D01*
X197563Y186800D02*
X200787D01*
X191730D02*
X196104D01*
X198150Y186400D02*
X200787D01*
X192316D02*
X195517D01*
X186483D02*
X189684D01*
X185896Y186800D02*
X190270D01*
X186783Y186000D02*
X189384D01*
X192616D02*
X195217D01*
X198615Y185600D02*
X200787D01*
X192781D02*
X195052D01*
X186948D02*
X189219D01*
X187014Y185200D02*
X189153D01*
X180768Y188400D02*
X200787D01*
X180738Y188000D02*
X200787D01*
X180709Y187600D02*
X200787D01*
X180679Y187200D02*
X200787D01*
X180798Y188800D02*
X200787D01*
X180622Y186427D02*
X181102Y192913D01*
X180649Y186800D02*
X184437D01*
X180650Y186400D02*
X183850D01*
X180950Y186000D02*
X183550D01*
X181114Y185600D02*
X183386D01*
X181181Y185200D02*
X183319D01*
X198681D02*
X200787D01*
X192825Y184800D02*
X195008D01*
X198659D02*
X200787D01*
X192712Y184400D02*
X195121D01*
X192847Y185200D02*
X194986D01*
X186992Y184800D02*
X189174D01*
X186879Y184400D02*
X189288D01*
X198546D02*
X200787D01*
X198321Y184000D02*
X200787D01*
X197916Y183600D02*
X200787D01*
X192083D02*
X195750D01*
X192487Y184000D02*
X195346D01*
X186654D02*
X189513D01*
X186249Y183600D02*
X189917D01*
X180821Y184000D02*
X183679D01*
X180416Y183600D02*
X184084D01*
X179168Y166800D02*
X200787D01*
X179138Y166400D02*
X200787D01*
X181159Y184800D02*
X183341D01*
X181046Y184400D02*
X183454D01*
X179020Y164800D02*
X200787D01*
X178990Y164400D02*
X200787D01*
X178961Y164000D02*
X200787D01*
X179109Y166000D02*
X200787D01*
X179079Y165600D02*
X200787D01*
X179050Y165200D02*
X200787D01*
X178813Y162000D02*
X200787D01*
X178783Y161600D02*
X200787D01*
X178753Y161200D02*
X200787D01*
X178724Y160800D02*
X200787D01*
X178901Y163200D02*
X200787D01*
X178872Y162800D02*
X200787D01*
X178842Y162400D02*
X200787D01*
Y159280D02*
Y188976D01*
Y86614D02*
Y156120D01*
X197730Y156000D02*
X200787D01*
X178694Y160400D02*
X200787D01*
X178664Y160000D02*
X200787D01*
X178635Y159600D02*
X200787D01*
X178250Y154400D02*
X200787D01*
X178220Y154000D02*
X200787D01*
X178190Y153600D02*
X200787D01*
X178161Y153200D02*
X200787D01*
X178338Y155600D02*
X200787D01*
X178309Y155200D02*
X200787D01*
X178279Y154800D02*
X200787D01*
X178042Y151600D02*
X200787D01*
X178013Y151200D02*
X200787D01*
X177983Y150800D02*
X200787D01*
X178131Y152800D02*
X200787D01*
X178101Y152400D02*
X200787D01*
X178072Y152000D02*
X200787D01*
X197950Y111600D02*
X200787D01*
X197894Y111200D02*
X200787D01*
X197709Y110800D02*
X200787D01*
X197314Y110400D02*
X200787D01*
X197709Y112400D02*
X200787D01*
X197314Y112800D02*
X200787D01*
X197894Y112000D02*
X200787D01*
X183047Y108800D02*
X200787D01*
X183019Y108400D02*
X200787D01*
X182870Y108000D02*
X200787D01*
X182545Y107600D02*
X200787D01*
X182737Y109600D02*
X200787D01*
X182242Y110000D02*
X200787D01*
X182961Y109200D02*
X200787D01*
X177864Y149200D02*
X200787D01*
X177835Y148800D02*
X200787D01*
X177805Y148400D02*
X200787D01*
X177776Y148000D02*
X200787D01*
X177953Y150400D02*
X200787D01*
X177924Y150000D02*
X200787D01*
X177894Y149600D02*
X200787D01*
X177657Y146400D02*
X200787D01*
X177627Y146000D02*
X200787D01*
X177598Y145600D02*
X200787D01*
X177746Y147600D02*
X200787D01*
X177716Y147200D02*
X200787D01*
X177687Y146800D02*
X200787D01*
X198083Y159200D02*
X200667D01*
X193333D02*
X195917D01*
X198487Y158800D02*
X200263D01*
X193737D02*
X195513D01*
X188987D02*
X190763D01*
X188583Y159200D02*
X191167D01*
X189212Y158400D02*
X190538D01*
X193962D02*
X195288D01*
X198826Y158000D02*
X199925D01*
X198712Y158400D02*
X200038D01*
X189325Y158000D02*
X190425D01*
X194076D02*
X195175D01*
X179083Y159200D02*
X181667D01*
X178931Y163600D02*
X200787D01*
X184237Y158800D02*
X186013D01*
X183833Y159200D02*
X186417D01*
X179487Y158800D02*
X181263D01*
X178623Y159442D02*
X180412Y183597D01*
X179712Y158400D02*
X181038D01*
X184462D02*
X185788D01*
X184575Y158000D02*
X185675D01*
X179825D02*
X180924D01*
X198847Y157600D02*
X199903D01*
X194097D02*
X195153D01*
X198781Y157200D02*
X199969D01*
X194031D02*
X195219D01*
X189347Y157600D02*
X190403D01*
X189281Y157200D02*
X190469D01*
X189116Y156800D02*
X190634D01*
X198616D02*
X200134D01*
X198316Y156400D02*
X200434D01*
X192980Y156000D02*
X196270D01*
X193866Y156800D02*
X195384D01*
X188816Y156400D02*
X190934D01*
X193566D02*
X195684D01*
X184597Y157600D02*
X185653D01*
X184531Y157200D02*
X185719D01*
X184366Y156800D02*
X185884D01*
X179316Y156400D02*
X181434D01*
X179847Y157600D02*
X180903D01*
X179781Y157200D02*
X180969D01*
X179616Y156800D02*
X181134D01*
X184066Y156400D02*
X186184D01*
X183480Y156000D02*
X186770D01*
X188230D02*
X191520D01*
X178730D02*
X182020D01*
X89616Y215600D02*
X212598D01*
X89216Y215200D02*
X212598D01*
X88816Y214800D02*
X212598D01*
X88416Y214400D02*
X212598D01*
X90551Y216535D02*
X212598D01*
X90416Y216400D02*
X212598D01*
X90016Y216000D02*
X212598D01*
X86816Y212800D02*
X212598D01*
X86416Y212400D02*
X212598D01*
X86016Y212000D02*
X212598D01*
X85616Y211600D02*
X212598D01*
X88016Y214000D02*
X212598D01*
X87616Y213600D02*
X212598D01*
X87216Y213200D02*
X212598D01*
X84016Y210000D02*
X212598D01*
X83616Y209600D02*
X212598D01*
X83216Y209200D02*
X212598D01*
X82816Y208800D02*
X212598D01*
X85216Y211200D02*
X212598D01*
X84816Y210800D02*
X212598D01*
X84416Y210400D02*
X212598D01*
X57594Y207200D02*
X212598D01*
X57194Y206800D02*
X212598D01*
X56794Y206400D02*
X212598D01*
X58794Y208400D02*
X212598D01*
X58394Y208000D02*
X212598D01*
X57994Y207600D02*
X212598D01*
X56394Y206000D02*
X212598D01*
X55994Y205600D02*
X212598D01*
X55594Y205200D02*
X212598D01*
X55194Y204800D02*
X212598D01*
X55118Y198800D02*
X210611D01*
X55118Y199200D02*
X211011D01*
X55118Y198400D02*
X210211D01*
X55118Y197600D02*
X209411D01*
X55118Y198000D02*
X209811D01*
X82728Y196800D02*
X208611D01*
X55118Y197200D02*
X209011D01*
X83528Y196000D02*
X207811D01*
X83128Y196400D02*
X208211D01*
X83928Y195600D02*
X207411D01*
X55118Y202800D02*
X212598D01*
X55118Y203200D02*
X212598D01*
X55118Y202000D02*
X212598D01*
X55118Y202400D02*
X212598D01*
X55118Y204000D02*
X212598D01*
X55118Y204400D02*
X212598D01*
X55118Y203600D02*
X212598D01*
X55118Y201200D02*
X212598D01*
X55118Y201600D02*
X212598D01*
X55118Y200800D02*
X212598D01*
X55118Y200000D02*
X211811D01*
X55118Y200400D02*
X212211D01*
X55118Y199600D02*
X211411D01*
X177479Y144000D02*
X200787D01*
X177450Y143600D02*
X200787D01*
X177420Y143200D02*
X200787D01*
X177390Y142800D02*
X200787D01*
X177568Y145200D02*
X200787D01*
X177538Y144800D02*
X200787D01*
X177509Y144400D02*
X200787D01*
X177272Y141200D02*
X200787D01*
X177242Y140800D02*
X200787D01*
X177213Y140400D02*
X200787D01*
X177183Y140000D02*
X200787D01*
X177361Y142400D02*
X200787D01*
X177331Y142000D02*
X200787D01*
X177301Y141600D02*
X200787D01*
X82677Y208661D02*
X90551Y216535D01*
X55118Y196850D02*
X82677D01*
X84728Y194800D02*
X206611D01*
X84328Y195200D02*
X207011D01*
X59055Y208661D02*
X82677D01*
X55118Y204724D02*
X59055Y208661D01*
X55118Y196850D02*
Y204724D01*
X85528Y194000D02*
X205811D01*
X85128Y194400D02*
X206211D01*
X85928Y193600D02*
X205411D01*
X86328Y193200D02*
X205011D01*
X82677Y196850D02*
X86614Y192913D01*
X181102D01*
X177064Y138400D02*
X200787D01*
X177035Y138000D02*
X200787D01*
X177005Y137600D02*
X200787D01*
X176976Y137200D02*
X200787D01*
X177153Y139600D02*
X200787D01*
X177124Y139200D02*
X200787D01*
X177094Y138800D02*
X200787D01*
X176857Y135600D02*
X200787D01*
X176827Y135200D02*
X200787D01*
X176798Y134800D02*
X200787D01*
X176768Y134400D02*
X200787D01*
X176946Y136800D02*
X200787D01*
X176916Y136400D02*
X200787D01*
X176887Y136000D02*
X200787D01*
X176649Y132800D02*
X200787D01*
X176620Y132400D02*
X200787D01*
X176590Y132000D02*
X200787D01*
X176561Y131600D02*
X200787D01*
X176738Y134000D02*
X200787D01*
X176709Y133600D02*
X200787D01*
X176679Y133200D02*
X200787D01*
X176442Y130000D02*
X200787D01*
X176412Y129600D02*
X200787D01*
X176383Y129200D02*
X200787D01*
X176531Y131200D02*
X200787D01*
X176501Y130800D02*
X200787D01*
X176472Y130400D02*
X200787D01*
X174694Y106400D02*
X200787D01*
X174664Y106000D02*
X200787D01*
X174635Y105600D02*
X200787D01*
X174605Y105200D02*
X200787D01*
X176353Y128800D02*
X200787D01*
X174753Y107200D02*
X200787D01*
X174724Y106800D02*
X200787D01*
X174487Y103600D02*
X200787D01*
X174457Y103200D02*
X200787D01*
X174427Y102800D02*
X200787D01*
X174398Y102400D02*
X200787D01*
X174575Y104800D02*
X200787D01*
X174546Y104400D02*
X200787D01*
X174516Y104000D02*
X200787D01*
X174279Y100800D02*
X200787D01*
X174249Y100400D02*
X200787D01*
X174220Y100000D02*
X200787D01*
X174190Y99600D02*
X200787D01*
X174368Y102000D02*
X200787D01*
X174338Y101600D02*
X200787D01*
X174309Y101200D02*
X200787D01*
X174072Y98000D02*
X200787D01*
X174042Y97600D02*
X200787D01*
X174012Y97200D02*
X200787D01*
X174161Y99200D02*
X200787D01*
X174131Y98800D02*
X200787D01*
X174101Y98400D02*
X200787D01*
X173894Y95600D02*
X200787D01*
X173864Y95200D02*
X200787D01*
X173835Y94800D02*
X200787D01*
X173805Y94400D02*
X200787D01*
X173983Y96800D02*
X200787D01*
X173953Y96400D02*
X200787D01*
X173924Y96000D02*
X200787D01*
X173687Y92800D02*
X200787D01*
X173657Y92400D02*
X200787D01*
X173627Y92000D02*
X200787D01*
X173598Y91600D02*
X200787D01*
X173775Y94000D02*
X200787D01*
X173746Y93600D02*
X200787D01*
X173716Y93200D02*
X200787D01*
X173479Y90000D02*
X200787D01*
X173450Y89600D02*
X200787D01*
X173420Y89200D02*
X200787D01*
X173390Y88800D02*
X200787D01*
X173568Y91200D02*
X200787D01*
X173538Y90800D02*
X200787D01*
X173509Y90400D02*
X200787D01*
X173272Y87200D02*
X200787D01*
X173242Y86800D02*
X200787D01*
X173228Y86614D02*
X200787D01*
X173361Y88400D02*
X200787D01*
X173331Y88000D02*
X200787D01*
X173301Y87600D02*
X200787D01*
X176235Y127200D02*
X200787D01*
X176205Y126800D02*
X200787D01*
X176175Y126400D02*
X200787D01*
X176146Y126000D02*
X200787D01*
X176324Y128400D02*
X200787D01*
X176294Y128000D02*
X200787D01*
X176264Y127600D02*
X200787D01*
X176027Y124400D02*
X200787D01*
X175998Y124000D02*
X200787D01*
X175968Y123600D02*
X200787D01*
X175938Y123200D02*
X200787D01*
X176116Y125600D02*
X200787D01*
X176087Y125200D02*
X200787D01*
X176057Y124800D02*
X200787D01*
X175820Y121600D02*
X200787D01*
X175790Y121200D02*
X200787D01*
X175761Y120800D02*
X200787D01*
X175731Y120400D02*
X200787D01*
X175909Y122800D02*
X200787D01*
X175879Y122400D02*
X200787D01*
X175849Y122000D02*
X200787D01*
X175642Y119200D02*
X200787D01*
X175612Y118800D02*
X200787D01*
X175583Y118400D02*
X200787D01*
X175701Y120000D02*
X200787D01*
X173228Y86614D02*
X178359Y155885D01*
X175672Y119600D02*
X200787D01*
X175464Y116800D02*
X200787D01*
X175435Y116400D02*
X200787D01*
X175405Y116000D02*
X200787D01*
X175375Y115600D02*
X200787D01*
X175553Y118000D02*
X200787D01*
X175524Y117600D02*
X200787D01*
X175494Y117200D02*
X200787D01*
X175287Y114400D02*
X200787D01*
X175257Y114000D02*
X200787D01*
X175227Y113600D02*
X200787D01*
X175198Y113200D02*
X200787D01*
X175346Y115200D02*
X200787D01*
X175316Y114800D02*
X200787D01*
X175168Y112800D02*
X195686D01*
X175138Y112400D02*
X195291D01*
X175049Y111200D02*
X195106D01*
X175020Y110800D02*
X195291D01*
X174990Y110400D02*
X195686D01*
X175109Y112000D02*
X195106D01*
X175079Y111600D02*
X195050D01*
X174961Y110000D02*
X180958D01*
X174931Y109600D02*
X180463D01*
X174812Y108000D02*
X180330D01*
X174783Y107600D02*
X180655D01*
X174901Y109200D02*
X180239D01*
X174872Y108800D02*
X180153D01*
X174842Y108400D02*
X180181D01*
X142281Y92800D02*
X200400D01*
X142116Y93200D02*
X200400D01*
Y89500D02*
Y100700D01*
X142347Y92400D02*
X200400D01*
X115300Y94400D02*
X200400D01*
X115300Y95200D02*
X200400D01*
X141816Y93600D02*
X200400D01*
X141230Y94000D02*
X200400D01*
X200725Y89600D02*
X201100D01*
X142325Y92000D02*
X200400D01*
X198700Y87200D02*
X201600Y90100D01*
X200200Y89300D02*
X201600Y90100D01*
X141987Y91200D02*
X200400D01*
X142212Y91600D02*
X200400D01*
X141583Y90800D02*
X200400D01*
X115900Y100400D02*
X200400D01*
X116200Y100700D02*
X200400D01*
X131800Y87200D02*
X198700D01*
X115500Y100000D02*
X200400D01*
X115300Y99800D02*
X116200Y100700D01*
X115300Y94000D02*
X139770D01*
X115300Y93600D02*
X139184D01*
X131800Y87200D02*
X198700D01*
X115300Y81600D02*
X131800D01*
X115300Y80800D02*
X131800D01*
X115300Y81200D02*
X131800D01*
X115300Y82400D02*
X131800D01*
X115300Y82800D02*
X131800D01*
X115300Y82000D02*
X131800D01*
X115300Y72800D02*
X131800D01*
X115300Y73200D02*
X131800D01*
Y67000D02*
Y87200D01*
X115300Y72400D02*
X131800D01*
X115300Y74400D02*
X131800D01*
X115300Y74800D02*
X131800D01*
X115300Y73600D02*
X131800D01*
X115300Y74000D02*
X131800D01*
X115300Y70400D02*
X131800D01*
X115300Y70800D02*
X131800D01*
X126900Y62100D02*
X131800Y67000D01*
X115300Y70000D02*
X131800D01*
X115300Y71600D02*
X131800D01*
X115300Y72000D02*
X131800D01*
X115300Y71200D02*
X131800D01*
X115300Y78800D02*
X131800D01*
X115300Y79200D02*
X131800D01*
X115300Y78000D02*
X131800D01*
X115300Y78400D02*
X131800D01*
X115300Y80000D02*
X131800D01*
X115300Y80400D02*
X131800D01*
X115300Y79600D02*
X131800D01*
X115300Y76000D02*
X131800D01*
X115300Y76400D02*
X131800D01*
X115300Y75200D02*
X131800D01*
X115300Y75600D02*
X131800D01*
X115300Y77200D02*
X131800D01*
X115300Y77600D02*
X131800D01*
X115300Y76800D02*
X131800D01*
X115300Y97200D02*
X200400D01*
X115300Y97600D02*
X200400D01*
X115300Y96400D02*
X200400D01*
X115300Y96800D02*
X200400D01*
X115300Y98800D02*
X200400D01*
X115300Y99200D02*
X200400D01*
X115300Y98000D02*
X200400D01*
X115300Y98400D02*
X200400D01*
X115300Y90000D02*
X200400D01*
X115300Y90400D02*
X200400D01*
X115300Y89200D02*
X200700D01*
X115300Y89600D02*
X200400D01*
X115300Y95600D02*
X200400D01*
X115300Y96000D02*
X200400D01*
X115300Y94800D02*
X200400D01*
X115300Y91600D02*
X138788D01*
X115300Y92000D02*
X138674D01*
X115300Y90800D02*
X139417D01*
X115300Y91200D02*
X139013D01*
X115300Y99600D02*
X200400D01*
X115300Y93200D02*
X138884D01*
X115300Y92800D02*
X138719D01*
X115300Y92400D02*
X138653D01*
X115300Y87600D02*
X199100D01*
X115300Y87200D02*
X131800D01*
X115300Y86400D02*
X131800D01*
X115300Y86800D02*
X131800D01*
X115300Y88800D02*
X200300D01*
X115300Y88400D02*
X199900D01*
X115300Y88000D02*
X199500D01*
X115300Y84000D02*
X131800D01*
X115300Y84400D02*
X131800D01*
X115300Y83200D02*
X131800D01*
X115300Y83600D02*
X131800D01*
X115300Y85600D02*
X131800D01*
X115300Y86000D02*
X131800D01*
X115300Y84800D02*
X131800D01*
X115300Y85200D02*
X131800D01*
X115300Y68000D02*
X131800D01*
X115300Y68400D02*
X131800D01*
X115300Y67200D02*
X131800D01*
X115300Y67600D02*
X131800D01*
X115300Y69200D02*
X131800D01*
X115300Y69600D02*
X131800D01*
X115300Y68800D02*
X131800D01*
X115300Y66000D02*
X130800D01*
X115300Y65600D02*
X130400D01*
X115300Y65200D02*
X130000D01*
X115300Y64800D02*
X129600D01*
X115300Y66800D02*
X131600D01*
X115300Y66400D02*
X131200D01*
X115300Y62100D02*
Y99800D01*
Y63200D02*
X128000D01*
X115300Y62800D02*
X127600D01*
X115300Y62400D02*
X127200D01*
X115300Y62100D02*
X126900D01*
X115300Y64400D02*
X129200D01*
X115300Y64000D02*
X128800D01*
X115300Y63600D02*
X128400D01*
X28637Y115200D02*
X53600D01*
X28861Y114800D02*
X53600D01*
X28142Y115600D02*
X53600D01*
X28919Y114000D02*
X53600D01*
X28770Y113600D02*
X53600D01*
X28947Y114400D02*
X53600D01*
X23100Y117600D02*
X53600D01*
X23500Y117200D02*
X53600D01*
X22700Y118000D02*
X53600D01*
X23300Y116400D02*
X53600D01*
X22900Y116000D02*
X53600D01*
X23700Y116800D02*
X53600D01*
X46682Y95600D02*
X53600D01*
X46783Y95200D02*
X53600D01*
X46473Y96000D02*
X53600D01*
X46716Y94400D02*
X53600D01*
X46538Y94000D02*
X53600D01*
X46794Y94800D02*
X53600D01*
X44950Y96800D02*
X53600D01*
X46099Y96400D02*
X53600D01*
X32150Y101200D02*
X53600D01*
X45550Y93200D02*
X53600D01*
X23427Y92800D02*
X53600D01*
X46215Y93600D02*
X53600D01*
X31909Y102000D02*
X53600D01*
X32094Y101600D02*
X53600D01*
X31514Y102400D02*
X53600D01*
X31909Y100400D02*
X53600D01*
X31514Y100000D02*
X53600D01*
X32094Y100800D02*
X53600D01*
X28445Y113200D02*
X53600D01*
X22500Y115600D02*
X23800Y116900D01*
X22500Y96800D02*
X44950D01*
X22500Y96381D02*
Y115600D01*
X24750Y95200D02*
X43117D01*
X24839Y94400D02*
X43184D01*
X24839Y94800D02*
X43106D01*
X24556Y93600D02*
X43685D01*
X24750Y94000D02*
X43363D01*
X23427Y96400D02*
X43801D01*
X24209Y96000D02*
X43427D01*
X24556Y95600D02*
X43218D01*
X24209Y93200D02*
X44350D01*
X22500Y80800D02*
X53600D01*
X22500Y80400D02*
X53600D01*
X22500Y81200D02*
X53600D01*
Y71700D02*
Y129800D01*
X22500Y79600D02*
X53600D01*
X22500Y80000D02*
X53600D01*
X22500Y83200D02*
X53600D01*
X22500Y82800D02*
X53600D01*
X22500Y92400D02*
X53600D01*
X22500Y82000D02*
X53600D01*
X22500Y81600D02*
X53600D01*
X22500Y82400D02*
X53600D01*
X22500Y75600D02*
X53600D01*
X22500Y75200D02*
X53600D01*
X22500Y76000D02*
X53600D01*
X22500Y72400D02*
X53600D01*
X52300Y70400D02*
X53600Y71700D01*
X22500Y74800D02*
X53600D01*
X22500Y78800D02*
X53600D01*
X22500Y78400D02*
X53600D01*
X22500Y79200D02*
X53600D01*
X22500Y77600D02*
X53600D01*
X22500Y76800D02*
X53600D01*
X22500Y78000D02*
X53600D01*
X22500Y89600D02*
X53600D01*
X22500Y89200D02*
X53600D01*
X22500Y90000D02*
X53600D01*
X22500Y88400D02*
X53600D01*
X22500Y88000D02*
X53600D01*
X22500Y88800D02*
X53600D01*
X22500Y91600D02*
X53600D01*
X22500Y91200D02*
X53600D01*
X22500Y92000D02*
X53600D01*
X22500Y90800D02*
X53600D01*
X22500Y90400D02*
X53600D01*
X22500Y70400D02*
Y92819D01*
Y85200D02*
X53600D01*
X22500Y84800D02*
X53600D01*
X22500Y85600D02*
X53600D01*
X22500Y84000D02*
X53600D01*
X22500Y83600D02*
X53600D01*
X22500Y84400D02*
X53600D01*
X22500Y87200D02*
X53600D01*
X22500Y86800D02*
X53600D01*
X22500Y87600D02*
X53600D01*
X22500Y86000D02*
X53600D01*
X22500Y86400D02*
X53600D01*
X9600Y129600D02*
X53600D01*
X9200Y129200D02*
X53600D01*
X9800Y129800D02*
X53600D01*
X8800Y121600D02*
X53600D01*
X8800Y121200D02*
X53600D01*
X8800Y126400D02*
X53600D01*
X8700Y128400D02*
X53600D01*
X8800Y128000D02*
X53600D01*
X8800Y128800D02*
X53600D01*
X8800Y127200D02*
X53600D01*
X8800Y126800D02*
X53600D01*
X8800Y127600D02*
X53600D01*
X22500Y112800D02*
X53600D01*
X22500Y112400D02*
X53600D01*
X22300Y118400D02*
X53600D01*
X22500Y111600D02*
X53600D01*
X22500Y111200D02*
X53600D01*
X22500Y112000D02*
X53600D01*
X8800Y120400D02*
X53600D01*
X8800Y120000D02*
X53600D01*
X8800Y120800D02*
X53600D01*
X8800Y119200D02*
X53600D01*
X21900Y118800D02*
X53600D01*
X8800Y119600D02*
X53600D01*
X8800Y124400D02*
X53600D01*
X8800Y124000D02*
X53600D01*
X8800Y124800D02*
X53600D01*
X8800Y123200D02*
X53600D01*
X8800Y122800D02*
X53600D01*
X8800Y123600D02*
X53600D01*
X8700Y128700D02*
X9800Y129800D01*
X8800Y126000D02*
X53600D01*
X8700Y128300D02*
Y128700D01*
X8800Y125600D02*
X53600D01*
X8800Y125200D02*
X53600D01*
X8800Y118800D02*
Y128200D01*
X22500Y115200D02*
X26363D01*
X22500Y114800D02*
X26139D01*
X22500Y114400D02*
X26053D01*
X22500Y113600D02*
X26230D01*
X22500Y113200D02*
X26555D01*
X22500Y114000D02*
X26081D01*
X8800Y122400D02*
X53600D01*
X8800Y122000D02*
X53600D01*
X8800Y118800D02*
X21900D01*
X22500Y115600D02*
X26858D01*
X21900Y118800D02*
X23800Y116900D01*
X22500Y108000D02*
X53600D01*
X22500Y103600D02*
X53600D01*
X22500Y108400D02*
X53600D01*
X22500Y99200D02*
X53600D01*
X22500Y98800D02*
X53600D01*
X22500Y99600D02*
X53600D01*
X22500Y110400D02*
X53600D01*
X22500Y110000D02*
X53600D01*
X22500Y110800D02*
X53600D01*
X22500Y109200D02*
X53600D01*
X22500Y108800D02*
X53600D01*
X22500Y109600D02*
X53600D01*
X22500Y74000D02*
X53600D01*
X22500Y73600D02*
X53600D01*
X22500Y74400D02*
X53600D01*
X22500Y72800D02*
X53600D01*
X22500Y72000D02*
X53600D01*
X22500Y73200D02*
X53600D01*
X22500Y98000D02*
X53600D01*
X22500Y97600D02*
X53600D01*
X22500Y98400D02*
X53600D01*
X22500Y77200D02*
X53600D01*
X22500Y76400D02*
X53600D01*
X22500Y97200D02*
X53600D01*
X22500Y104800D02*
X53600D01*
X22500Y104400D02*
X53600D01*
X22500Y105200D02*
X53600D01*
X22500Y103200D02*
X53600D01*
X22500Y102800D02*
X53600D01*
X22500Y104000D02*
X53600D01*
X22500Y107200D02*
X53600D01*
X22500Y106800D02*
X53600D01*
X22500Y107600D02*
X53600D01*
X22500Y106000D02*
X53600D01*
X22500Y105600D02*
X53600D01*
X22500Y106400D02*
X53600D01*
X22500Y100000D02*
X29886D01*
X22500Y71600D02*
X53500D01*
X22500Y100400D02*
X29491D01*
X22500Y71200D02*
X53100D01*
X22500Y70800D02*
X52700D01*
X22500Y70400D02*
X52300D01*
X22500Y102400D02*
X29886D01*
X22500Y102000D02*
X29491D01*
X22500Y101600D02*
X29306D01*
X22500Y100800D02*
X29306D01*
X22500Y101200D02*
X29250D01*
X24100Y73600D02*
X52900D01*
X24100Y73200D02*
X52900D01*
X24100Y74000D02*
X52900D01*
X24100Y72400D02*
X52900D01*
X24100Y72000D02*
X52900D01*
X24100Y72800D02*
X52900D01*
X24100Y78000D02*
X45569D01*
X24100Y75600D02*
X52900D01*
X24100Y78400D02*
X43475D01*
X24100Y74800D02*
X52900D01*
X24100Y75200D02*
X52900D01*
X48407Y67600D02*
X52900D01*
X48732Y67200D02*
X52900D01*
X45545D02*
X46193D01*
X48881Y66800D02*
X52900D01*
X45694D02*
X46044D01*
X24100Y71600D02*
X52900D01*
X24100Y71200D02*
X52900D01*
X42032Y67600D02*
X43330D01*
X45220D02*
X46518D01*
X42357Y67200D02*
X43005D01*
X32470Y67600D02*
X33768D01*
X35657D02*
X36955D01*
X29282D02*
X30580D01*
X38845D02*
X40143D01*
X26420Y67200D02*
X27068D01*
X24100Y79600D02*
X37191D01*
X24100Y79200D02*
X39285D01*
X24100Y81200D02*
X28813D01*
X24100Y78800D02*
X41380D01*
X26095Y67600D02*
X27393D01*
X35982Y67200D02*
X36630D01*
X39170D02*
X39818D01*
X36131Y66800D02*
X36481D01*
X42506D02*
X42856D01*
X39319D02*
X39669D01*
X29607Y67200D02*
X30255D01*
X32795D02*
X33443D01*
X26569Y66800D02*
X26919D01*
X32944D02*
X33294D01*
X29756D02*
X30106D01*
X48824Y66000D02*
X52900D01*
X48599Y65600D02*
X52900D01*
X48909Y66400D02*
X52900D01*
Y48900D02*
Y76600D01*
X45636Y66000D02*
X46101D01*
X42224Y65600D02*
X43138D01*
X42449Y66000D02*
X42914D01*
X45412Y65600D02*
X46326D01*
X44917Y65200D02*
X46820D01*
X48105D02*
X52900D01*
X41730D02*
X43633D01*
X46200Y42200D02*
X52900Y48900D01*
X24100Y59600D02*
X52900D01*
X24100Y63600D02*
X52900D01*
X24100Y63200D02*
X52900D01*
X24100Y64000D02*
X52900D01*
X24100Y62400D02*
X52900D01*
X24100Y62800D02*
X52900D01*
X36074Y66000D02*
X36539D01*
X39261D02*
X39726D01*
X29699D02*
X30164D01*
X32886D02*
X33351D01*
X26511D02*
X26976D01*
X35849Y65600D02*
X36763D01*
X39037D02*
X39951D01*
X32662D02*
X33576D01*
X38542Y65200D02*
X40445D01*
X35355D02*
X37258D01*
X29474Y65600D02*
X30388D01*
X25792Y65200D02*
X27695D01*
X26287Y65600D02*
X27201D01*
X32167Y65200D02*
X34070D01*
X28980D02*
X30883D01*
X24100Y68400D02*
X52900D01*
X24100Y68000D02*
X52900D01*
X24100Y68800D02*
X52900D01*
X24100Y64400D02*
X52900D01*
X24100Y62000D02*
X52900D01*
X24100Y64800D02*
X52900D01*
X24100Y70400D02*
X52900D01*
X24100Y70000D02*
X52900D01*
X24100Y70800D02*
X52900D01*
X24100Y69200D02*
X52900D01*
X24100Y69600D02*
X52900D01*
X24100Y61200D02*
X52900D01*
X24100Y60800D02*
X52900D01*
X24100Y61600D02*
X52900D01*
X24100Y60000D02*
X52900D01*
X24100Y60400D02*
X52900D01*
X9500Y58800D02*
X52900D01*
X9100Y58400D02*
X52900D01*
X9900Y59200D02*
X52900D01*
X9500Y57600D02*
X52900D01*
X9100Y58000D02*
X52900D01*
X24100Y80000D02*
X35096D01*
X24100Y77600D02*
X47664D01*
X24100Y80400D02*
X33002D01*
X24100Y76800D02*
X51853D01*
X24100Y77200D02*
X49758D01*
X24100Y81600D02*
X26718D01*
X24100Y80800D02*
X30907D01*
X24100Y82000D02*
X24624D01*
X24100Y82100D02*
X52900Y76600D01*
X24100Y67500D02*
Y82100D01*
Y74400D02*
X52900D01*
X24100Y65200D02*
X24508D01*
X24100Y59300D02*
Y65500D01*
Y76400D02*
X52900D01*
X24100Y76000D02*
X52900D01*
X10000Y59300D02*
X24100D01*
X8900Y58200D02*
X10000Y59300D01*
X8900Y58200D02*
X9500Y57600D01*
Y54800D02*
X52900D01*
X9500Y54400D02*
X52900D01*
X9500Y55200D02*
X52900D01*
X9500Y53600D02*
X52900D01*
X9500Y54000D02*
X52900D01*
X9500Y56800D02*
X52900D01*
X9500Y56400D02*
X52900D01*
X9500Y57200D02*
X52900D01*
X9500Y55600D02*
X52900D01*
X9500Y56000D02*
X52900D01*
X9500Y50800D02*
X52900D01*
X9500Y50400D02*
X52900D01*
X9500Y51200D02*
X52900D01*
X9500Y49200D02*
X52900D01*
X9500Y50000D02*
X52900D01*
X9500Y52800D02*
X52900D01*
X9500Y52400D02*
X52900D01*
X9500Y53200D02*
X52900D01*
X9500Y51600D02*
X52900D01*
X9500Y52000D02*
X52900D01*
X9500Y47600D02*
X51600D01*
X9500Y47200D02*
X51200D01*
X9500Y46800D02*
X50800D01*
X9500Y46400D02*
X50400D01*
X9500Y46000D02*
X50000D01*
X9500Y49600D02*
X52900D01*
X9500Y48800D02*
X52800D01*
X9500Y48400D02*
X52400D01*
X9500Y48000D02*
X52000D01*
X9500Y42200D02*
Y57600D01*
Y43600D02*
X47600D01*
X9500Y43200D02*
X47200D01*
X9500Y42800D02*
X46800D01*
X9500Y42400D02*
X46400D01*
X9500Y42200D02*
X46200D01*
X9500Y45600D02*
X49600D01*
X9500Y45200D02*
X49200D01*
X9500Y44800D02*
X48800D01*
X9500Y44400D02*
X48400D01*
X9500Y44000D02*
X48000D01*
X122300Y124800D02*
X135000D01*
X122300Y124400D02*
X135000D01*
X122342Y128000D02*
X135000D01*
X122300Y123200D02*
X135000D01*
X122300Y122800D02*
X135000D01*
X122300Y124000D02*
X135000D01*
X122300Y123600D02*
X135000D01*
X122300Y126800D02*
X135000D01*
X122300Y126400D02*
X135000D01*
X122300Y127600D02*
X135000D01*
X122300Y127200D02*
X135000D01*
X122300Y125600D02*
X135000D01*
X122300Y125200D02*
X135000D01*
X122300Y126000D02*
X135000D01*
X122300Y118800D02*
X135000D01*
X122300Y118400D02*
X135000D01*
X122300Y119600D02*
X135000D01*
X122300Y119200D02*
X135000D01*
X122300Y117200D02*
X135000D01*
X122300Y116800D02*
X135000D01*
X122300Y118000D02*
X135000D01*
X122300Y117600D02*
X135000D01*
X122300Y121600D02*
X135000D01*
X122300Y121200D02*
X135000D01*
X122300Y122400D02*
X135000D01*
X122300Y122000D02*
X135000D01*
X122300Y120400D02*
X135000D01*
X122300Y120000D02*
X135000D01*
X122300Y120800D02*
X135000D01*
Y145847D02*
Y150500D01*
X127278Y132400D02*
X135000D01*
X122300D02*
X126523D01*
X122300Y132000D02*
X125850D01*
X127950D02*
X135000D01*
X128220Y131600D02*
X135000D01*
X122300D02*
X125580D01*
X122300Y134000D02*
X135000D01*
X122300Y133600D02*
X135000D01*
X122300Y134800D02*
X135000D01*
X122300Y134400D02*
X135000D01*
X122300Y133200D02*
X135000D01*
X122300Y132800D02*
X135000D01*
X122300Y130620D02*
Y134900D01*
X128220Y130400D02*
X135000D01*
X127950Y130000D02*
X135000D01*
X128336Y131200D02*
X135000D01*
X128336Y130800D02*
X135000D01*
X123147Y129200D02*
X135000D01*
X123061Y128800D02*
X135000D01*
X123119Y129600D02*
X126523D01*
X127278D02*
X135000D01*
X122645Y130400D02*
X125580D01*
X122970Y130000D02*
X125850D01*
X122300Y131200D02*
X125464D01*
X122300Y130800D02*
X125464D01*
X122837Y128400D02*
X135000D01*
X122300Y108000D02*
X135000D01*
X122300Y107600D02*
X135000D01*
X122300Y108800D02*
X135000D01*
X122300Y108400D02*
X135000D01*
Y89800D02*
Y142953D01*
X122300Y106400D02*
X135000D01*
X122300Y107200D02*
X135000D01*
X122300Y106800D02*
X135000D01*
X122300Y112800D02*
X135000D01*
X122300Y112400D02*
X135000D01*
X122300Y113600D02*
X135000D01*
X122300Y113200D02*
X135000D01*
X122300Y109600D02*
X135000D01*
X122300Y109200D02*
X135000D01*
X122300Y111200D02*
X135000D01*
X122300Y98800D02*
X135000D01*
X122300Y98400D02*
X135000D01*
X122300Y99600D02*
X135000D01*
X122300Y99200D02*
X135000D01*
X122300Y96400D02*
X135000D01*
X129500Y84300D02*
X135000Y89800D01*
X122300Y98000D02*
X135000D01*
X122300Y97600D02*
X135000D01*
X122300Y105200D02*
X135000D01*
X122300Y104800D02*
X135000D01*
X122300Y106000D02*
X135000D01*
X122300Y105600D02*
X135000D01*
X122300Y104000D02*
X135000D01*
X122300Y100000D02*
X135000D01*
X122300Y104400D02*
X135000D01*
X122300Y100800D02*
X135000D01*
X122300Y100400D02*
X135000D01*
X122300Y89600D02*
X134800D01*
X122300Y89200D02*
X134400D01*
X122300Y88800D02*
X134000D01*
X122300Y88400D02*
X133600D01*
X122500Y86600D02*
X129500Y80600D01*
X122733Y86400D02*
X131600D01*
X122300Y102800D02*
X135000D01*
X122300Y102400D02*
X135000D01*
X122300Y103600D02*
X135000D01*
X122300Y103200D02*
X135000D01*
X122300Y101600D02*
X135000D01*
X122300Y101200D02*
X135000D01*
X122300Y102000D02*
X135000D01*
X127400Y82400D02*
X129500D01*
X127867Y82000D02*
X129500D01*
X126467Y83200D02*
X129500D01*
X126933Y82800D02*
X129500D01*
Y80600D02*
Y84300D01*
X128800Y81200D02*
X129500D01*
X128333Y81600D02*
X129500D01*
X123200Y86000D02*
X131200D01*
X123667Y85600D02*
X130800D01*
X124133Y85200D02*
X130400D01*
X124600Y84800D02*
X130000D01*
X125067Y84400D02*
X129600D01*
X126000Y83600D02*
X129500D01*
X125533Y84000D02*
X129500D01*
X56700Y150000D02*
X135000D01*
X56300Y149600D02*
X135000D01*
X57200Y150500D02*
X135000D01*
X57100Y150400D02*
X135000D01*
X55100Y148400D02*
X135000D01*
X54300Y147600D02*
X135000D01*
X55900Y149200D02*
X135000D01*
X55500Y148800D02*
X135000D01*
X49500Y142800D02*
X135000D01*
X49100Y142400D02*
X135000D01*
X53900Y147200D02*
X135000D01*
X53500Y146800D02*
X135000D01*
X48300Y141600D02*
X135000D01*
X47900Y141200D02*
X135000D01*
X48700Y142000D02*
X135000D01*
X46700Y140000D02*
X135000D01*
X46300Y139600D02*
X135000D01*
X47500Y140800D02*
X135000D01*
X47100Y140400D02*
X135000D01*
X45100Y138400D02*
X135000D01*
X45000Y135200D02*
X135000D01*
X45900Y139200D02*
X135000D01*
X45500Y138800D02*
X135000D01*
X45000Y137200D02*
X135000D01*
X45000Y136800D02*
X135000D01*
X45000Y138000D02*
X135000D01*
X45000Y137600D02*
X135000D01*
X45000Y136000D02*
X135000D01*
X45000Y135600D02*
X135000D01*
X45000Y136400D02*
X135000D01*
X105914Y146400D02*
X135000D01*
X106309Y146000D02*
X135000D01*
X100845Y146400D02*
X104286D01*
X101170Y146000D02*
X103891D01*
X106494Y145600D02*
X134086D01*
X101319D02*
X103706D01*
X101347Y145200D02*
X103650D01*
X54700Y148000D02*
X135000D01*
X53100Y146400D02*
X98955D01*
X52700Y146000D02*
X98630D01*
X52300Y145600D02*
X98481D01*
X51900Y145200D02*
X98453D01*
X45000Y138300D02*
X57200Y150500D01*
X106550Y145200D02*
X133691D01*
X106494Y144800D02*
X133506D01*
X101261D02*
X103706D01*
X101037Y144400D02*
X103891D01*
X106309D02*
X133450D01*
X105914Y144000D02*
X133506D01*
X100542D02*
X104286D01*
X50700D02*
X99258D01*
X50300Y143600D02*
X133691D01*
X51500Y144800D02*
X98539D01*
X51100Y144400D02*
X98763D01*
X49900Y143200D02*
X134086D01*
X62700Y134900D02*
X122300D01*
X45000Y134800D02*
X62600D01*
X122300Y110800D02*
X135000D01*
X122300Y110400D02*
X135000D01*
X122300Y112000D02*
X135000D01*
X122300Y111600D02*
X135000D01*
X122300Y96800D02*
X135000D01*
X122300Y96000D02*
X135000D01*
X122300Y110000D02*
X135000D01*
X122300Y97200D02*
X135000D01*
X122300Y115600D02*
X135000D01*
X122300Y115200D02*
X135000D01*
X122300Y116400D02*
X135000D01*
X122300Y116000D02*
X135000D01*
X122300Y114400D02*
X135000D01*
X122300Y114000D02*
X135000D01*
X122300Y114800D02*
X135000D01*
X122300Y92000D02*
X135000D01*
X122300Y91600D02*
X135000D01*
X122300Y92800D02*
X135000D01*
X122300Y92400D02*
X135000D01*
X122300Y90400D02*
X135000D01*
X122300Y90000D02*
X135000D01*
X122300Y91200D02*
X135000D01*
X122300Y90800D02*
X135000D01*
X122300Y94800D02*
X135000D01*
X122300Y94400D02*
X135000D01*
X122300Y95600D02*
X135000D01*
X122300Y95200D02*
X135000D01*
X122300Y93600D02*
X135000D01*
X122300Y93200D02*
X135000D01*
X122300Y94000D02*
X135000D01*
X47400Y132400D02*
X60200D01*
X47800Y132000D02*
X59800D01*
X48200Y131600D02*
X59400D01*
X48600Y131200D02*
X59000D01*
X53800Y126000D02*
X62700Y134900D01*
X49000Y130800D02*
X58600D01*
X49400Y130400D02*
X58200D01*
X49800Y130000D02*
X57800D01*
X45400Y134400D02*
X62200D01*
X45800Y134000D02*
X61800D01*
X45000Y134800D02*
Y138300D01*
X46200Y133600D02*
X61400D01*
X46600Y133200D02*
X61000D01*
X47000Y132800D02*
X60600D01*
X45000Y134800D02*
X53800Y126000D01*
X122300Y88000D02*
X133200D01*
X122300Y87600D02*
X132800D01*
X53000Y126800D02*
X54600D01*
X53400Y126400D02*
X54200D01*
X122300Y87200D02*
X132400D01*
X122300Y86800D02*
X132000D01*
X122300D02*
Y127980D01*
X50200Y129600D02*
X57400D01*
X50600Y129200D02*
X57000D01*
X51000Y128800D02*
X56600D01*
X51400Y128400D02*
X56200D01*
X51800Y128000D02*
X55800D01*
X52200Y127600D02*
X55400D01*
X52600Y127200D02*
X55000D01*
X116500Y114000D02*
Y117500D01*
X115000Y119000D02*
X116500Y117500D01*
X115700Y107300D02*
X116500Y114000D01*
X113700Y105300D02*
X115700Y107300D01*
X113143Y76000D02*
X113700D01*
X113317Y74800D02*
X113700D01*
X113191Y74400D02*
X113700D01*
X113294Y75600D02*
X113700D01*
X113349Y75200D02*
X113700D01*
X106400Y73200D02*
X113700D01*
X106400Y119000D02*
X115000D01*
X106400Y72800D02*
X113700D01*
X112949Y74000D02*
X113700D01*
X112510Y73600D02*
X113700D01*
X106400Y71600D02*
X113700D01*
X106400Y71200D02*
X113700D01*
X106400Y72400D02*
X113700D01*
X106400Y72000D02*
X113700D01*
X106400Y66000D02*
X113700D01*
X106400Y66400D02*
X113700D01*
X106400Y65600D02*
X113700D01*
X106400Y67200D02*
X113700D01*
X106400Y66800D02*
X113700D01*
X106400Y64400D02*
X113700D01*
X106400Y64000D02*
X113700D01*
X106400Y65200D02*
X113700D01*
X106400Y64800D02*
X113700D01*
X106400Y69600D02*
X113700D01*
X106400Y70000D02*
X113700D01*
X106400Y69200D02*
X113700D01*
X106400Y70800D02*
X113700D01*
X106400Y70400D02*
X113700D01*
X106400Y68000D02*
X113700D01*
X106400Y67600D02*
X113700D01*
X106400Y68800D02*
X113700D01*
X106400Y68400D02*
X113700D01*
X113317Y86000D02*
X113700D01*
X113191Y86400D02*
X113700D01*
X113349Y85600D02*
X113700D01*
X112510Y87200D02*
X113700D01*
X112949Y86800D02*
X113700D01*
X113143Y84800D02*
X113700D01*
X112864Y84400D02*
X113700D01*
X113294Y85200D02*
X113700D01*
X106400Y100800D02*
X113700D01*
X106400Y101200D02*
X113700D01*
X106400Y100400D02*
X113700D01*
X106400Y102000D02*
X113700D01*
X106400Y101600D02*
X113700D01*
X106400Y99200D02*
X113700D01*
X106400Y98800D02*
X113700D01*
X106400Y100000D02*
X113700D01*
X106400Y99600D02*
X113700D01*
X113350Y80400D02*
X113700D01*
X113306Y80800D02*
X113700D01*
X113306Y80000D02*
X113700D01*
X112908Y81600D02*
X113700D01*
X113168Y81200D02*
X113700D01*
X112429Y78800D02*
X113700D01*
X112864Y76400D02*
X113700D01*
X113168Y79600D02*
X113700D01*
X112908Y79200D02*
X113700D01*
X112429Y82000D02*
X113700D01*
X112337Y84000D02*
X113700D01*
X112337Y76800D02*
X113700D01*
X106400Y74800D02*
X109683D01*
X106400Y73600D02*
X110490D01*
X106400Y74400D02*
X109809D01*
X106400Y74000D02*
X110051D01*
X116100Y54400D02*
X116700Y55000D01*
X113700Y58000D02*
X116700Y55000D01*
X106400Y47200D02*
X116100D01*
X106400Y48000D02*
X116100D01*
X106400Y47600D02*
X116100D01*
X106400Y46000D02*
X116100D01*
X106400Y45600D02*
X116100D01*
X106400Y46800D02*
X116100D01*
X106400Y46400D02*
X116100D01*
X106400Y54800D02*
X116500D01*
X106400Y55200D02*
X116500D01*
X106400Y50000D02*
X116100D01*
X106400Y50800D02*
X116100D01*
X106400Y50400D02*
X116100D01*
X106400Y48800D02*
X116100D01*
X106400Y48400D02*
X116100D01*
X106400Y49600D02*
X116100D01*
X106400Y49200D02*
X116100D01*
X106400Y37600D02*
X116100D01*
X106400Y38000D02*
X116100D01*
X106400Y37200D02*
X116100D01*
X106400Y38800D02*
X116100D01*
X106400Y38400D02*
X116100D01*
X106400Y36000D02*
X116100D01*
X106600Y22400D02*
X116100D01*
X106400Y36800D02*
X116100D01*
X106400Y36400D02*
X116100D01*
X106400Y44000D02*
X116100D01*
X106400Y44400D02*
X116100D01*
X106400Y43600D02*
X116100D01*
X106400Y45200D02*
X116100D01*
X106400Y44800D02*
X116100D01*
X106400Y41600D02*
X116100D01*
X106400Y39200D02*
X116100D01*
X106400Y43200D02*
X116100D01*
X106400Y42000D02*
X116100D01*
X106400Y58800D02*
X113700D01*
X106400Y59200D02*
X113700D01*
X106400Y58400D02*
X113700D01*
X106400Y60000D02*
X113700D01*
X106400Y59600D02*
X113700D01*
X106400Y57600D02*
X114100D01*
X106400Y57200D02*
X114500D01*
X113700Y58000D02*
Y105300D01*
X106400Y58000D02*
X113700D01*
X106400Y62400D02*
X113700D01*
X106400Y62800D02*
X113700D01*
X106400Y62000D02*
X113700D01*
X106400Y63600D02*
X113700D01*
X106400Y63200D02*
X113700D01*
X106400Y60800D02*
X113700D01*
X106400Y60400D02*
X113700D01*
X106400Y61600D02*
X113700D01*
X106400Y61200D02*
X113700D01*
X106400Y51600D02*
X116100D01*
X106400Y52000D02*
X116100D01*
X106400Y51200D02*
X116100D01*
X106400Y52800D02*
X116100D01*
X106400Y52400D02*
X116100D01*
Y21400D02*
Y54400D01*
X107800Y21400D02*
X116100D01*
X107000Y22000D02*
X116100D01*
X107400Y21600D02*
X116100D01*
X106400Y56000D02*
X115700D01*
X106400Y55600D02*
X116100D01*
X106400Y56800D02*
X114900D01*
X106400Y56400D02*
X115300D01*
X106400Y53600D02*
X116100D01*
X106400Y53200D02*
X116100D01*
X106400Y54400D02*
X116100D01*
X106400Y54000D02*
X116100D01*
X106400Y114400D02*
X116500D01*
X106400Y114800D02*
X116500D01*
X106400Y114000D02*
X116500D01*
X106400Y115200D02*
X116500D01*
X106400Y113600D02*
X116452D01*
X106400Y113200D02*
X116404D01*
X106400Y112800D02*
X116357D01*
X106400Y112400D02*
X116309D01*
X106400Y112000D02*
X116261D01*
X106400Y117600D02*
X116400D01*
X106400Y118000D02*
X116000D01*
X106400Y117200D02*
X116500D01*
X106400Y118800D02*
X115200D01*
X106400Y118400D02*
X115600D01*
X106400Y116000D02*
X116500D01*
X106400Y115600D02*
X116500D01*
X106400Y116800D02*
X116500D01*
X106400Y116400D02*
X116500D01*
X106400Y107600D02*
X115736D01*
X106400Y108000D02*
X115784D01*
X106400Y107200D02*
X115600D01*
X106400Y106800D02*
X115200D01*
X106400Y106400D02*
X114800D01*
X106400Y106000D02*
X114400D01*
X106400Y105600D02*
X114000D01*
X106400Y104000D02*
X113700D01*
X106400Y94000D02*
X113700D01*
X106400Y111200D02*
X116166D01*
X106400Y111600D02*
X116213D01*
X106400Y110800D02*
X116118D01*
X106400Y110400D02*
X116070D01*
X106400Y110000D02*
X116022D01*
X106400Y109600D02*
X115975D01*
X106400Y109200D02*
X115927D01*
X106400Y108800D02*
X115879D01*
X106400Y108400D02*
X115831D01*
X106400Y96400D02*
X113700D01*
X106400Y96800D02*
X113700D01*
X106400Y96000D02*
X113700D01*
X106400Y97600D02*
X113700D01*
X106400Y97200D02*
X113700D01*
X106400Y94800D02*
X113700D01*
X106400Y94400D02*
X113700D01*
X106400Y95600D02*
X113700D01*
X106400Y95200D02*
X113700D01*
X106400Y103600D02*
X113700D01*
X106400Y104400D02*
X113700D01*
X106400Y103200D02*
X113700D01*
X106400Y105200D02*
X113700D01*
X106400Y104800D02*
X113700D01*
X106400Y98400D02*
X113700D01*
X106400Y98000D02*
X113700D01*
X106400Y102800D02*
X113700D01*
X106400Y102400D02*
X113700D01*
X106400Y88800D02*
X113700D01*
X106400Y89200D02*
X113700D01*
X106400Y88400D02*
X113700D01*
X106400Y90000D02*
X113700D01*
X106400Y89600D02*
X113700D01*
X106400Y88000D02*
X113700D01*
X106400Y87600D02*
X113700D01*
X106400Y87200D02*
X110490D01*
X106400Y86800D02*
X110051D01*
X106400Y92400D02*
X113700D01*
X106400Y92800D02*
X113700D01*
X106400Y92000D02*
X113700D01*
X106400Y93600D02*
X113700D01*
X106400Y93200D02*
X113700D01*
X106400Y90800D02*
X113700D01*
X106400Y90400D02*
X113700D01*
X106400Y91600D02*
X113700D01*
X106400Y91200D02*
X113700D01*
X106400Y32000D02*
X116100D01*
X106400Y32400D02*
X116100D01*
X106400Y31600D02*
X116100D01*
X106400Y33200D02*
X116100D01*
X106400Y32800D02*
X116100D01*
X106400Y30400D02*
X116100D01*
X106400Y30000D02*
X116100D01*
X106400Y31200D02*
X116100D01*
X106400Y30800D02*
X116100D01*
X106400Y35600D02*
X116100D01*
X106400Y39600D02*
X116100D01*
X106400Y35200D02*
X116100D01*
X106400Y42800D02*
X116100D01*
X106400Y42400D02*
X116100D01*
X106400Y34000D02*
X116100D01*
X106400Y33600D02*
X116100D01*
X106400Y34800D02*
X116100D01*
X106400Y34400D02*
X116100D01*
X106400Y24800D02*
X116100D01*
X106400Y25200D02*
X116100D01*
X106400Y24400D02*
X116100D01*
X106400Y26000D02*
X116100D01*
X106400Y25600D02*
X116100D01*
X106400Y23200D02*
X116100D01*
X106400Y22800D02*
X116100D01*
X106400Y24000D02*
X116100D01*
X106400Y23600D02*
X116100D01*
X106400Y28400D02*
X116100D01*
X106400Y28800D02*
X116100D01*
X106400Y28000D02*
X116100D01*
X106400Y29600D02*
X116100D01*
X106400Y29200D02*
X116100D01*
X106400Y26800D02*
X116100D01*
X106400Y26400D02*
X116100D01*
X106400Y27600D02*
X116100D01*
X106400Y27200D02*
X116100D01*
X106400Y82800D02*
X113700D01*
X106400Y83200D02*
X113700D01*
X106400Y82400D02*
X113700D01*
X106400Y82000D02*
X110571D01*
X106400Y81600D02*
X110092D01*
X106400Y81200D02*
X109832D01*
X106400Y80000D02*
X109694D01*
X106400Y80800D02*
X109694D01*
X106400Y80400D02*
X109650D01*
X106400Y85200D02*
X109706D01*
X106400Y86400D02*
X109809D01*
X106400Y84800D02*
X109857D01*
X106400Y86000D02*
X109683D01*
X106400Y85600D02*
X109651D01*
X106400Y84000D02*
X110663D01*
X106400Y83600D02*
X113700D01*
X106400Y22600D02*
Y119000D01*
Y84400D02*
X110136D01*
X106400Y76000D02*
X109857D01*
X106400Y76400D02*
X110136D01*
X106400Y41200D02*
X116100D01*
X106400Y75600D02*
X109706D01*
X106400Y75200D02*
X109651D01*
X106400Y40400D02*
X116100D01*
X106400Y40000D02*
X116100D01*
X106400Y40800D02*
X116100D01*
X106400Y22600D02*
X107700Y21300D01*
X106400Y78800D02*
X110571D01*
X106400Y78400D02*
X113700D01*
X106400Y79600D02*
X109832D01*
X106400Y79200D02*
X110092D01*
X106400Y77600D02*
X113700D01*
X106400Y77200D02*
X113700D01*
X106400Y78000D02*
X113700D01*
X106400Y76800D02*
X110663D01*
X57700Y202000D02*
X91147D01*
X57700Y202800D02*
X91131D01*
X57700Y201200D02*
X91164D01*
X57700Y201600D02*
X91156D01*
X57700Y203600D02*
X91114D01*
X57700Y209100D02*
X90900D01*
X57700Y203200D02*
X91122D01*
X91000Y209000D02*
X91200Y199500D01*
X57700Y200000D02*
X91189D01*
X57700Y199500D02*
X91200D01*
X57700Y199600D02*
X91198D01*
X57700Y200800D02*
X91173D01*
X57700Y199500D02*
Y209100D01*
Y200400D02*
X91181D01*
X57700Y207200D02*
X91038D01*
X57700Y207600D02*
X91030D01*
X57700Y206400D02*
X91055D01*
X57700Y206800D02*
X91046D01*
X57700Y208400D02*
X91013D01*
X57700Y208800D02*
X91004D01*
X57700Y208000D02*
X91021D01*
X57700Y204400D02*
X91097D01*
X57700Y204800D02*
X91088D01*
X57700Y202400D02*
X91139D01*
X57700Y204000D02*
X91105D01*
X57700Y205600D02*
X91072D01*
X57700Y206000D02*
X91063D01*
X57700Y205200D02*
X91080D01*
D61*
X15600Y124600D02*
X16200Y125200D01*
X157300Y15300D02*
X157625D01*
D63*
X150972Y7564D02*
D03*
X185028D02*
D03*
X91181D02*
D03*
X57126D02*
D03*
D64*
X150972Y24101D02*
D03*
X185028D02*
D03*
X91181D02*
D03*
X57126D02*
D03*
D65*
X15600Y184600D02*
D03*
Y64600D02*
D03*
Y114600D02*
D03*
Y144600D02*
D03*
Y74600D02*
D03*
Y84600D02*
D03*
Y104600D02*
D03*
Y164600D02*
D03*
Y134600D02*
D03*
Y174600D02*
D03*
Y94600D02*
D03*
Y154600D02*
D03*
Y54600D02*
D03*
Y124600D02*
D03*
D66*
X220101Y20932D02*
D03*
D67*
Y30775D02*
D03*
D68*
X142604Y69974D02*
D03*
X138830Y80629D02*
D03*
X158268Y71260D02*
D03*
X158661Y74410D02*
D03*
Y78683D02*
D03*
Y81890D02*
D03*
X155905Y85039D02*
D03*
X151969D02*
D03*
X148819Y84252D02*
D03*
X144882D02*
D03*
X141339Y83549D02*
D03*
X139000Y78000D02*
D03*
X140000Y75000D02*
D03*
X148819Y69291D02*
D03*
X151811Y70035D02*
D03*
X83200Y13500D02*
D03*
X103112Y14500D02*
D03*
X97025D02*
D03*
X109200D02*
D03*
X64800Y14900D02*
D03*
X82300Y20000D02*
D03*
X82400Y24100D02*
D03*
X109200Y24200D02*
D03*
X82600Y28600D02*
D03*
X109200Y29000D02*
D03*
X82700Y32700D02*
D03*
X109200Y33800D02*
D03*
Y38600D02*
D03*
Y43400D02*
D03*
X84190Y43655D02*
D03*
X61700Y43700D02*
D03*
X109200Y48100D02*
D03*
X82600Y50900D02*
D03*
X23000Y94600D02*
D03*
X109200Y52900D02*
D03*
X82700Y55000D02*
D03*
X81500Y59900D02*
D03*
X72100Y68400D02*
D03*
X111500Y75150D02*
D03*
X44950Y94950D02*
D03*
X111500Y85650D02*
D03*
X44400Y157300D02*
D03*
X48967D02*
D03*
X53533D02*
D03*
X58100D02*
D03*
X62667D02*
D03*
X67233D02*
D03*
X71800D02*
D03*
X63400Y203800D02*
D03*
X68600D02*
D03*
X78900D02*
D03*
X87200D02*
D03*
X68775Y214200D02*
D03*
X72850D02*
D03*
X64700D02*
D03*
X76925D02*
D03*
X81000D02*
D03*
X177800Y14200D02*
D03*
X120800Y5500D02*
D03*
X145725Y14500D02*
D03*
X127462D02*
D03*
X133550D02*
D03*
X139637D02*
D03*
X157300Y15300D02*
D03*
X114000Y24200D02*
D03*
Y29000D02*
D03*
Y33800D02*
D03*
Y38600D02*
D03*
Y43400D02*
D03*
Y48100D02*
D03*
Y52900D02*
D03*
X120700Y70300D02*
D03*
X126700Y74540D02*
D03*
X130400Y33900D02*
D03*
Y38600D02*
D03*
Y43300D02*
D03*
Y47900D02*
D03*
X155400Y68509D02*
D03*
X155604Y43704D02*
D03*
X178500Y43700D02*
D03*
X181300Y77100D02*
D03*
X183100Y74200D02*
D03*
X185100Y70600D02*
D03*
X186700Y66800D02*
D03*
X208000Y52600D02*
D03*
Y57000D02*
D03*
Y61400D02*
D03*
X226100Y58343D02*
D03*
Y31943D02*
D03*
Y35714D02*
D03*
Y39486D02*
D03*
Y43257D02*
D03*
Y47029D02*
D03*
Y50800D02*
D03*
Y54571D02*
D03*
X113400Y115400D02*
D03*
X121300Y164567D02*
D03*
X117467D02*
D03*
X125133D02*
D03*
X113633D02*
D03*
X128967D02*
D03*
X132800D02*
D03*
X136800D02*
D03*
Y168400D02*
D03*
Y172233D02*
D03*
Y176067D02*
D03*
Y179900D02*
D03*
Y183733D02*
D03*
Y187567D02*
D03*
X166000Y218900D02*
D03*
X173733Y92200D02*
D03*
X177650D02*
D03*
X181567D02*
D03*
X185483D02*
D03*
X189400D02*
D03*
X193317D02*
D03*
X197233D02*
D03*
X178000Y157700D02*
D03*
X182750D02*
D03*
X187500D02*
D03*
X192250D02*
D03*
X197000D02*
D03*
X201750D02*
D03*
X206500D02*
D03*
X179333Y185100D02*
D03*
X185167D02*
D03*
X191000D02*
D03*
X196833D02*
D03*
X205600Y210600D02*
D03*
X75900Y139500D02*
D03*
X36000Y110100D02*
D03*
X126700Y78560D02*
D03*
X120800Y80000D02*
D03*
X111500Y80400D02*
D03*
X126700Y82580D02*
D03*
Y86600D02*
D03*
Y90620D02*
D03*
X140500Y92300D02*
D03*
X126700Y94640D02*
D03*
D69*
X22533Y48500D02*
D03*
X22733Y45300D02*
D03*
X25133Y51800D02*
D03*
X25167Y48500D02*
D03*
X25367Y45300D02*
D03*
X27800Y48500D02*
D03*
X28000Y45300D02*
D03*
X30433Y48500D02*
D03*
X30633Y45300D02*
D03*
X33067Y48500D02*
D03*
X33267Y45300D02*
D03*
X35700Y48500D02*
D03*
X35900Y45300D02*
D03*
X38300Y51800D02*
D03*
X38333Y48500D02*
D03*
X38533Y45300D02*
D03*
X41167D02*
D03*
X43800D02*
D03*
X46433D02*
D03*
X40967Y48500D02*
D03*
X43600D02*
D03*
X46233D02*
D03*
X22500Y51800D02*
D03*
X27767D02*
D03*
X30400D02*
D03*
X33033D02*
D03*
X35667D02*
D03*
X40933D02*
D03*
X41087Y66500D02*
D03*
X21962D02*
D03*
X25150D02*
D03*
X28337D02*
D03*
X31525D02*
D03*
X34712D02*
D03*
X37900D02*
D03*
X30700Y101200D02*
D03*
X27500Y114300D02*
D03*
X27700Y144900D02*
D03*
X30400Y152800D02*
D03*
X43567Y51800D02*
D03*
X46200D02*
D03*
X44275Y66500D02*
D03*
X47462D02*
D03*
X72900Y111600D02*
D03*
X73000Y108900D02*
D03*
X99900Y145300D02*
D03*
X144900Y144100D02*
D03*
X154878Y144264D02*
D03*
X105100Y145200D02*
D03*
X139894Y144394D02*
D03*
X134900Y144400D02*
D03*
X181600Y108700D02*
D03*
X196500Y111600D02*
D03*
X121700Y129300D02*
D03*
X126900Y131000D02*
D03*
X149900Y143900D02*
D03*
M02*
