G04*
G04 #@! TF.GenerationSoftware,Altium Limited,Altium Designer,25.0.2 (28)*
G04*
G04 Layer_Color=128*
%FSLAX25Y25*%
%MOIN*%
G70*
G04*
G04 #@! TF.SameCoordinates,2A04F1A2-3F02-4B23-887A-497E0413F5F6*
G04*
G04*
G04 #@! TF.FilePolarity,Positive*
G04*
G01*
G75*
G36*
X31414Y55729D02*
X33186D01*
X33383Y55926D01*
Y57816D01*
X33186Y58091D01*
X31414D01*
X31217Y57816D01*
Y55926D01*
X31414Y55729D01*
D01*
D02*
G37*
G36*
Y59509D02*
X33186D01*
X33383Y59784D01*
Y61674D01*
X33186Y61871D01*
X31414D01*
X31217Y61674D01*
Y59784D01*
X31414Y59509D01*
D01*
D02*
G37*
G36*
X40414Y55729D02*
X42186D01*
X42383Y55926D01*
Y57816D01*
X42186Y58091D01*
X40414D01*
X40217Y57816D01*
Y55926D01*
X40414Y55729D01*
D01*
D02*
G37*
G36*
Y59509D02*
X42186D01*
X42383Y59784D01*
Y61674D01*
X42186Y61871D01*
X40414D01*
X40217Y61674D01*
Y59784D01*
X40414Y59509D01*
D01*
D02*
G37*
G36*
X35094Y102469D02*
X36906D01*
X37063Y102311D01*
Y100340D01*
X36906Y100182D01*
X35094D01*
X34937Y100340D01*
Y102311D01*
X35094Y102469D01*
D01*
D02*
G37*
G36*
Y103532D02*
X36906D01*
X37063Y103689D01*
Y105660D01*
X36906Y105817D01*
X35094D01*
X34937Y105660D01*
Y103689D01*
X35094Y103532D01*
D01*
D02*
G37*
G36*
Y119468D02*
X36906D01*
X37063Y119311D01*
Y117340D01*
X36906Y117183D01*
X35094D01*
X34937Y117340D01*
Y119311D01*
X35094Y119468D01*
D01*
D02*
G37*
G36*
Y120531D02*
X36906D01*
X37063Y120689D01*
Y122660D01*
X36906Y122818D01*
X35094D01*
X34937Y122660D01*
Y120689D01*
X35094Y120531D01*
D01*
D02*
G37*
M02*
