G04*
G04 #@! TF.GenerationSoftware,Altium Limited,Altium Designer,25.0.2 (28)*
G04*
G04 Layer_Color=8388736*
%FSLAX25Y25*%
%MOIN*%
G70*
G04*
G04 #@! TF.SameCoordinates,2A04F1A2-3F02-4B23-887A-497E0413F5F6*
G04*
G04*
G04 #@! TF.FilePolarity,Negative*
G04*
G01*
G75*
%ADD28R,0.05518X0.03156*%
%ADD29R,0.01575X0.04725*%
%ADD30R,0.02559X0.04725*%
%ADD31R,0.03511X0.02526*%
%ADD32R,0.04258X0.09613*%
%ADD33R,0.02526X0.02627*%
%ADD34R,0.03950X0.03950*%
%ADD35R,0.06312X0.05524*%
%ADD36O,0.02770X0.08160*%
%ADD37R,0.06299X0.03937*%
%ADD38R,0.02526X0.03511*%
%ADD39R,0.14573X0.09613*%
%ADD40R,0.02756X0.04331*%
%ADD41R,0.04621X0.02495*%
%ADD42R,0.06306X0.05656*%
%ADD43R,0.02627X0.02526*%
%ADD44R,0.03156X0.05321*%
%ADD45R,0.03550X0.03550*%
%ADD46R,0.03937X0.06299*%
%ADD47R,0.04343X0.04343*%
%ADD48O,0.04725X0.08268*%
%ADD49O,0.05118X0.07480*%
%ADD50C,0.07887*%
%ADD51R,0.06706X0.06706*%
%ADD52C,0.06706*%
D28*
X178576Y152729D02*
D03*
X196293D02*
D03*
X178576Y144264D02*
D03*
X196293D02*
D03*
X54953D02*
D03*
X72669Y152729D02*
D03*
X54953D02*
D03*
X72669Y144264D02*
D03*
D29*
X163078Y5399D02*
D03*
X174890D02*
D03*
X170952D02*
D03*
X167016D02*
D03*
X168984D02*
D03*
X165048D02*
D03*
X172921D02*
D03*
X161109D02*
D03*
X71201D02*
D03*
X75138D02*
D03*
X73169D02*
D03*
X77106D02*
D03*
X79074D02*
D03*
X67263D02*
D03*
X81043D02*
D03*
X69232D02*
D03*
D30*
X155402D02*
D03*
X180598D02*
D03*
X177448D02*
D03*
X158551D02*
D03*
X83602D02*
D03*
X64704D02*
D03*
X86752D02*
D03*
X61555D02*
D03*
D31*
X213954Y59700D02*
D03*
X213854Y52600D02*
D03*
X147211Y63916D02*
D03*
X151346Y89937D02*
D03*
X120946Y84400D02*
D03*
X120800Y75400D02*
D03*
X147054Y89937D02*
D03*
X218246Y59700D02*
D03*
X218146Y52600D02*
D03*
X151503Y63916D02*
D03*
X116654Y84400D02*
D03*
X116508Y75400D02*
D03*
X124946Y43400D02*
D03*
Y33400D02*
D03*
X120654D02*
D03*
Y43400D02*
D03*
D32*
X201955Y59801D02*
D03*
X192900D02*
D03*
X183845D02*
D03*
D33*
X199000Y207296D02*
D03*
Y210704D02*
D03*
X81800Y140696D02*
D03*
X161000Y40296D02*
D03*
X172900Y40300D02*
D03*
X79000Y40296D02*
D03*
X67000D02*
D03*
X177000Y207296D02*
D03*
X188000D02*
D03*
X177000Y210704D02*
D03*
X188000D02*
D03*
X172900Y43708D02*
D03*
X161000Y43704D02*
D03*
X79000D02*
D03*
X67000D02*
D03*
X81800Y144104D02*
D03*
D34*
X199000Y195148D02*
D03*
X199001Y188853D02*
D03*
D35*
X145200Y73936D02*
D03*
X153862Y80629D02*
D03*
X145200D02*
D03*
X153862Y73936D02*
D03*
D36*
X146700Y101730D02*
D03*
X141700D02*
D03*
X126700D02*
D03*
X121700D02*
D03*
X116700D02*
D03*
X121700Y123270D02*
D03*
X111700Y101730D02*
D03*
X126700Y123270D02*
D03*
X131700Y101730D02*
D03*
X136700D02*
D03*
X111700Y123270D02*
D03*
X116700D02*
D03*
X131700D02*
D03*
X136700D02*
D03*
X141700D02*
D03*
X146700D02*
D03*
D37*
X92945Y203882D02*
D03*
Y143882D02*
D03*
Y148882D02*
D03*
X161843Y193882D02*
D03*
Y188882D02*
D03*
Y183882D02*
D03*
Y178882D02*
D03*
Y173882D02*
D03*
Y168882D02*
D03*
Y163882D02*
D03*
X92945Y158882D02*
D03*
Y163882D02*
D03*
Y168882D02*
D03*
Y173882D02*
D03*
Y153882D02*
D03*
Y178882D02*
D03*
Y183882D02*
D03*
Y188882D02*
D03*
Y193882D02*
D03*
X161843Y198882D02*
D03*
Y203882D02*
D03*
Y143882D02*
D03*
Y208882D02*
D03*
X92945D02*
D03*
Y198882D02*
D03*
X161843Y158882D02*
D03*
Y153882D02*
D03*
Y148882D02*
D03*
D38*
X83000Y204454D02*
D03*
X74000D02*
D03*
X179000Y86946D02*
D03*
X171900Y86846D02*
D03*
X45000Y145854D02*
D03*
X206000Y146854D02*
D03*
Y151146D02*
D03*
X179000Y82654D02*
D03*
X171900Y82554D02*
D03*
X83000Y208746D02*
D03*
X74000D02*
D03*
X45000Y150146D02*
D03*
D39*
X192900Y82399D02*
D03*
D40*
X120800Y65400D02*
D03*
X124540Y56738D02*
D03*
X128280D02*
D03*
X120801D02*
D03*
X128281Y65400D02*
D03*
D41*
X76824Y59900D02*
D03*
X67776Y63640D02*
D03*
Y56160D02*
D03*
X76824Y63640D02*
D03*
Y56160D02*
D03*
X67776Y59900D02*
D03*
D42*
X120800Y12902D02*
D03*
Y21898D02*
D03*
D43*
X185696Y108700D02*
D03*
X189104D02*
D03*
X65196Y108900D02*
D03*
X68604D02*
D03*
D44*
X72860Y116663D02*
D03*
X189003D02*
D03*
X65380D02*
D03*
X192743Y124537D02*
D03*
X69120D02*
D03*
X196483Y116663D02*
D03*
D45*
X177000Y195700D02*
D03*
X188000D02*
D03*
Y189000D02*
D03*
X177000D02*
D03*
D46*
X149894Y138843D02*
D03*
X144894D02*
D03*
X104894D02*
D03*
X154894Y138961D02*
D03*
X139894Y138843D02*
D03*
X134894D02*
D03*
X129894D02*
D03*
X124894D02*
D03*
X119894D02*
D03*
X114894D02*
D03*
X109894D02*
D03*
X99894D02*
D03*
D47*
X127000Y184000D02*
D03*
X121488Y178488D02*
D03*
Y184000D02*
D03*
X127000Y178488D02*
D03*
Y172976D02*
D03*
X121488D02*
D03*
X115976Y184000D02*
D03*
Y178488D02*
D03*
Y172976D02*
D03*
D48*
X150972Y7564D02*
D03*
X185028D02*
D03*
X91181D02*
D03*
X57126D02*
D03*
D49*
X150972Y24101D02*
D03*
X185028D02*
D03*
X91181D02*
D03*
X57126D02*
D03*
D50*
X15600Y184600D02*
D03*
Y64600D02*
D03*
Y114600D02*
D03*
Y144600D02*
D03*
Y74600D02*
D03*
Y84600D02*
D03*
Y104600D02*
D03*
Y164600D02*
D03*
Y134600D02*
D03*
Y174600D02*
D03*
Y94600D02*
D03*
Y154600D02*
D03*
Y54600D02*
D03*
Y124600D02*
D03*
D51*
X220101Y20932D02*
D03*
D52*
Y30775D02*
D03*
M02*
